%TF.GenerationSoftware,KiCad,Pcbnew,10.0.4-10.0.4~ubuntu26.04.1*%
%TF.CreationDate,2026-07-24T16:59:21-07:00*%
%TF.ProjectId,marker-lamp-controller,6d61726b-6572-42d6-9c61-6d702d636f6e,rev?*%
%TF.SameCoordinates,Original*%
%TF.FileFunction,Copper,L2,Bot*%
%TF.FilePolarity,Positive*%
%FSLAX46Y46*%
G04 Gerber Fmt 4.6, Leading zero omitted, Abs format (unit mm)*
G04 Created by KiCad (PCBNEW 10.0.4-10.0.4~ubuntu26.04.1) date 2026-07-24 16:59:21*
%MOMM*%
%LPD*%
G01*
G04 APERTURE LIST*
%TA.AperFunction,WasherPad*%
%ADD10C,6.000000*%
%TD*%
%TA.AperFunction,ComponentPad*%
%ADD11R,3.200000X3.200000*%
%TD*%
%TA.AperFunction,ComponentPad*%
%ADD12C,3.200000*%
%TD*%
%TA.AperFunction,ViaPad*%
%ADD13C,0.800000*%
%TD*%
%TA.AperFunction,Conductor*%
%ADD14C,1.200000*%
%TD*%
G04 APERTURE END LIST*
D10*
%TO.P,H3,*%
%TO.N,*%
X77000000Y-42000000D03*
%TD*%
D11*
%TO.P,J1,1*%
%TO.N,SENSE*%
X7000000Y-10000000D03*
D12*
%TO.P,J1,2*%
%TO.N,VPRE*%
X7000000Y-15080000D03*
%TO.P,J1,3*%
%TO.N,LAMP_OUT*%
X7000000Y-20160000D03*
%TO.P,J1,4*%
%TO.N,GND*%
X7000000Y-25240000D03*
%TD*%
D10*
%TO.P,H2,*%
%TO.N,*%
X77000000Y-5000000D03*
%TD*%
%TO.P,H4,*%
%TO.N,*%
X5000000Y-42000000D03*
%TD*%
%TO.P,H1,*%
%TO.N,*%
X5000000Y-5000000D03*
%TD*%
D13*
%TO.N,GND*%
X38500000Y-26500000D03*
X36500000Y-14500000D03*
X21100000Y-15500000D03*
X23900000Y-26000000D03*
X32400000Y-26000000D03*
X63600000Y-16500000D03*
X54100000Y-20000000D03*
X27500000Y-14500000D03*
X65500000Y-23000000D03*
%TO.N,LAMP_OUT*%
X68000000Y-20635000D03*
%TO.N,VPWR*%
X47600000Y-31000000D03*
X73000000Y-31000000D03*
X20000000Y-31000000D03*
X35600000Y-31000000D03*
X43500000Y-31000000D03*
X30100000Y-31000000D03*
%TD*%
%TO.N,LAMP_OUT*%
D14*
X68000000Y-20635000D02*
X68000000Y-28000000D01*
X12000000Y-28000000D02*
X68000000Y-28000000D01*
X12000000Y-20160000D02*
X12000000Y-28000000D01*
X7000000Y-20160000D02*
X12000000Y-20160000D01*
%TO.N,VPWR*%
X20000000Y-31000000D02*
X73000000Y-31000000D01*
%TD*%
%TA.AperFunction,Conductor*%
%TO.N,GND*%
G36*
X75744942Y-1520185D02*
G01*
X75790697Y-1572989D01*
X75800641Y-1642147D01*
X75771616Y-1705703D01*
X75725356Y-1739060D01*
X75607738Y-1787779D01*
X75501535Y-1831770D01*
X75501530Y-1831772D01*
X75198224Y-1993893D01*
X75198206Y-1993904D01*
X74912248Y-2184975D01*
X74912234Y-2184985D01*
X74646367Y-2403176D01*
X74403176Y-2646367D01*
X74184985Y-2912234D01*
X74184975Y-2912248D01*
X73993904Y-3198206D01*
X73993893Y-3198224D01*
X73831772Y-3501530D01*
X73831770Y-3501535D01*
X73700150Y-3819293D01*
X73600308Y-4148427D01*
X73533210Y-4485750D01*
X73499500Y-4828034D01*
X73499500Y-5171965D01*
X73533210Y-5514249D01*
X73600308Y-5851572D01*
X73700150Y-6180706D01*
X73831770Y-6498464D01*
X73831772Y-6498469D01*
X73993893Y-6801775D01*
X73993904Y-6801793D01*
X74184975Y-7087751D01*
X74184985Y-7087765D01*
X74403176Y-7353632D01*
X74646367Y-7596823D01*
X74646372Y-7596827D01*
X74646373Y-7596828D01*
X74912240Y-7815019D01*
X75198213Y-8006100D01*
X75198222Y-8006105D01*
X75198224Y-8006106D01*
X75501530Y-8168227D01*
X75501532Y-8168227D01*
X75501538Y-8168231D01*
X75819295Y-8299850D01*
X76148422Y-8399690D01*
X76485750Y-8466789D01*
X76828031Y-8500500D01*
X76828034Y-8500500D01*
X77171966Y-8500500D01*
X77171969Y-8500500D01*
X77514250Y-8466789D01*
X77851578Y-8399690D01*
X78180705Y-8299850D01*
X78498462Y-8168231D01*
X78801787Y-8006100D01*
X79087760Y-7815019D01*
X79353627Y-7596828D01*
X79596828Y-7353627D01*
X79815019Y-7087760D01*
X80006100Y-6801787D01*
X80168231Y-6498462D01*
X80260939Y-6274643D01*
X80304780Y-6220241D01*
X80371074Y-6198176D01*
X80438773Y-6215455D01*
X80486384Y-6266592D01*
X80499500Y-6322097D01*
X80499500Y-40677902D01*
X80479815Y-40744941D01*
X80427011Y-40790696D01*
X80357853Y-40800640D01*
X80294297Y-40771615D01*
X80260939Y-40725355D01*
X80241283Y-40677902D01*
X80168231Y-40501538D01*
X80006100Y-40198213D01*
X79815019Y-39912240D01*
X79596828Y-39646373D01*
X79596827Y-39646372D01*
X79596823Y-39646367D01*
X79353632Y-39403176D01*
X79087765Y-39184985D01*
X79087764Y-39184984D01*
X79087760Y-39184981D01*
X78801787Y-38993900D01*
X78801782Y-38993897D01*
X78801775Y-38993893D01*
X78498469Y-38831772D01*
X78498464Y-38831770D01*
X78180706Y-38700150D01*
X77851572Y-38600308D01*
X77514248Y-38533210D01*
X77514249Y-38533210D01*
X77256456Y-38507821D01*
X77171969Y-38499500D01*
X76828031Y-38499500D01*
X76749966Y-38507188D01*
X76485750Y-38533210D01*
X76148427Y-38600308D01*
X75819293Y-38700150D01*
X75501535Y-38831770D01*
X75501530Y-38831772D01*
X75198224Y-38993893D01*
X75198206Y-38993904D01*
X74912248Y-39184975D01*
X74912234Y-39184985D01*
X74646367Y-39403176D01*
X74403176Y-39646367D01*
X74184985Y-39912234D01*
X74184975Y-39912248D01*
X73993904Y-40198206D01*
X73993893Y-40198224D01*
X73831772Y-40501530D01*
X73831770Y-40501535D01*
X73700150Y-40819293D01*
X73600308Y-41148427D01*
X73533210Y-41485750D01*
X73499500Y-41828034D01*
X73499500Y-42171965D01*
X73533210Y-42514249D01*
X73600308Y-42851572D01*
X73700150Y-43180706D01*
X73831770Y-43498464D01*
X73831772Y-43498469D01*
X73993893Y-43801775D01*
X73993904Y-43801793D01*
X74184975Y-44087751D01*
X74184985Y-44087765D01*
X74403176Y-44353632D01*
X74646367Y-44596823D01*
X74646372Y-44596827D01*
X74646373Y-44596828D01*
X74912240Y-44815019D01*
X75198213Y-45006100D01*
X75198222Y-45006105D01*
X75198224Y-45006106D01*
X75501530Y-45168227D01*
X75501532Y-45168227D01*
X75501538Y-45168231D01*
X75725356Y-45260939D01*
X75779759Y-45304780D01*
X75801824Y-45371074D01*
X75784545Y-45438773D01*
X75733408Y-45486384D01*
X75677903Y-45499500D01*
X6322097Y-45499500D01*
X6255058Y-45479815D01*
X6209303Y-45427011D01*
X6199359Y-45357853D01*
X6228384Y-45294297D01*
X6274643Y-45260939D01*
X6498462Y-45168231D01*
X6801787Y-45006100D01*
X7087760Y-44815019D01*
X7353627Y-44596828D01*
X7596828Y-44353627D01*
X7815019Y-44087760D01*
X8006100Y-43801787D01*
X8168231Y-43498462D01*
X8299850Y-43180705D01*
X8399690Y-42851578D01*
X8466789Y-42514250D01*
X8500500Y-42171969D01*
X8500500Y-41828031D01*
X8466789Y-41485750D01*
X8399690Y-41148422D01*
X8299850Y-40819295D01*
X8168231Y-40501538D01*
X8006100Y-40198213D01*
X7815019Y-39912240D01*
X7596828Y-39646373D01*
X7596827Y-39646372D01*
X7596823Y-39646367D01*
X7353632Y-39403176D01*
X7087765Y-39184985D01*
X7087764Y-39184984D01*
X7087760Y-39184981D01*
X6801787Y-38993900D01*
X6801782Y-38993897D01*
X6801775Y-38993893D01*
X6498469Y-38831772D01*
X6498464Y-38831770D01*
X6180706Y-38700150D01*
X5851572Y-38600308D01*
X5514248Y-38533210D01*
X5514249Y-38533210D01*
X5256456Y-38507821D01*
X5171969Y-38499500D01*
X4828031Y-38499500D01*
X4749966Y-38507188D01*
X4485750Y-38533210D01*
X4148427Y-38600308D01*
X3819293Y-38700150D01*
X3501535Y-38831770D01*
X3501530Y-38831772D01*
X3198224Y-38993893D01*
X3198206Y-38993904D01*
X2912248Y-39184975D01*
X2912234Y-39184985D01*
X2646367Y-39403176D01*
X2403176Y-39646367D01*
X2184985Y-39912234D01*
X2184975Y-39912248D01*
X1993904Y-40198206D01*
X1993893Y-40198224D01*
X1831772Y-40501530D01*
X1831770Y-40501535D01*
X1739061Y-40725355D01*
X1695220Y-40779758D01*
X1628926Y-40801823D01*
X1561226Y-40784544D01*
X1513616Y-40733406D01*
X1500500Y-40677902D01*
X1500500Y-30913389D01*
X18899500Y-30913389D01*
X18899500Y-31086611D01*
X18926598Y-31257701D01*
X18980127Y-31422445D01*
X19058768Y-31576788D01*
X19160586Y-31716928D01*
X19283072Y-31839414D01*
X19423212Y-31941232D01*
X19577555Y-32019873D01*
X19742299Y-32073402D01*
X19913389Y-32100500D01*
X19913390Y-32100500D01*
X73086610Y-32100500D01*
X73086611Y-32100500D01*
X73257701Y-32073402D01*
X73422445Y-32019873D01*
X73576788Y-31941232D01*
X73716928Y-31839414D01*
X73839414Y-31716928D01*
X73941232Y-31576788D01*
X74019873Y-31422445D01*
X74073402Y-31257701D01*
X74100500Y-31086611D01*
X74100500Y-30913389D01*
X74073402Y-30742299D01*
X74019873Y-30577555D01*
X73941232Y-30423212D01*
X73839414Y-30283072D01*
X73716928Y-30160586D01*
X73576788Y-30058768D01*
X73422445Y-29980127D01*
X73257701Y-29926598D01*
X73257699Y-29926597D01*
X73257698Y-29926597D01*
X73126271Y-29905781D01*
X73086611Y-29899500D01*
X19913389Y-29899500D01*
X19873728Y-29905781D01*
X19742302Y-29926597D01*
X19577552Y-29980128D01*
X19423211Y-30058768D01*
X19343256Y-30116859D01*
X19283072Y-30160586D01*
X19283070Y-30160588D01*
X19283069Y-30160588D01*
X19160588Y-30283069D01*
X19160588Y-30283070D01*
X19160586Y-30283072D01*
X19116859Y-30343256D01*
X19058768Y-30423211D01*
X18980128Y-30577552D01*
X18926597Y-30742302D01*
X18899500Y-30913389D01*
X1500500Y-30913389D01*
X1500500Y-25102358D01*
X4900000Y-25102358D01*
X4900000Y-25377641D01*
X4935930Y-25650565D01*
X5007180Y-25916471D01*
X5112520Y-26170787D01*
X5112527Y-26170802D01*
X5250163Y-26409196D01*
X5348758Y-26537686D01*
X6360689Y-25525755D01*
X6379668Y-25571574D01*
X6456274Y-25686224D01*
X6553776Y-25783726D01*
X6668426Y-25860332D01*
X6714243Y-25879310D01*
X5702312Y-26891240D01*
X5830804Y-26989836D01*
X6069197Y-27127472D01*
X6069212Y-27127479D01*
X6323528Y-27232819D01*
X6589434Y-27304069D01*
X6862358Y-27340000D01*
X7137642Y-27340000D01*
X7410565Y-27304069D01*
X7676471Y-27232819D01*
X7930787Y-27127479D01*
X7930802Y-27127472D01*
X8169194Y-26989836D01*
X8169211Y-26989825D01*
X8297686Y-26891241D01*
X8297686Y-26891239D01*
X7285756Y-25879310D01*
X7331574Y-25860332D01*
X7446224Y-25783726D01*
X7543726Y-25686224D01*
X7620332Y-25571574D01*
X7639310Y-25525756D01*
X8651239Y-26537686D01*
X8651241Y-26537686D01*
X8749825Y-26409211D01*
X8749836Y-26409194D01*
X8887472Y-26170802D01*
X8887479Y-26170787D01*
X8992819Y-25916471D01*
X9064069Y-25650565D01*
X9100000Y-25377641D01*
X9100000Y-25102358D01*
X9064069Y-24829434D01*
X8992819Y-24563528D01*
X8887479Y-24309212D01*
X8887472Y-24309197D01*
X8749836Y-24070804D01*
X8651240Y-23942312D01*
X7639309Y-24954242D01*
X7620332Y-24908426D01*
X7543726Y-24793776D01*
X7446224Y-24696274D01*
X7331574Y-24619668D01*
X7285756Y-24600689D01*
X8297686Y-23588758D01*
X8169196Y-23490163D01*
X7930802Y-23352527D01*
X7930787Y-23352520D01*
X7676471Y-23247180D01*
X7410565Y-23175930D01*
X7137642Y-23140000D01*
X6862358Y-23140000D01*
X6589434Y-23175930D01*
X6323528Y-23247180D01*
X6069212Y-23352520D01*
X6069197Y-23352527D01*
X5830799Y-23490166D01*
X5702312Y-23588757D01*
X5702312Y-23588758D01*
X6714243Y-24600689D01*
X6668426Y-24619668D01*
X6553776Y-24696274D01*
X6456274Y-24793776D01*
X6379668Y-24908426D01*
X6360689Y-24954243D01*
X5348758Y-23942312D01*
X5348757Y-23942312D01*
X5250166Y-24070799D01*
X5112527Y-24309197D01*
X5112520Y-24309212D01*
X5007180Y-24563528D01*
X4935930Y-24829434D01*
X4900000Y-25102358D01*
X1500500Y-25102358D01*
X1500500Y-20022332D01*
X4899500Y-20022332D01*
X4899500Y-20297667D01*
X4899501Y-20297684D01*
X4935438Y-20570655D01*
X4935439Y-20570660D01*
X4935440Y-20570666D01*
X4935441Y-20570668D01*
X5006704Y-20836630D01*
X5112075Y-21091017D01*
X5112080Y-21091028D01*
X5194861Y-21234407D01*
X5249751Y-21329479D01*
X5249753Y-21329482D01*
X5249754Y-21329483D01*
X5417370Y-21547926D01*
X5417376Y-21547933D01*
X5612066Y-21742623D01*
X5612072Y-21742628D01*
X5830521Y-21910249D01*
X5983778Y-21998732D01*
X6068971Y-22047919D01*
X6068976Y-22047921D01*
X6068979Y-22047923D01*
X6323368Y-22153295D01*
X6589334Y-22224560D01*
X6862326Y-22260500D01*
X6862333Y-22260500D01*
X7137667Y-22260500D01*
X7137674Y-22260500D01*
X7410666Y-22224560D01*
X7676632Y-22153295D01*
X7931021Y-22047923D01*
X8169479Y-21910249D01*
X8387928Y-21742628D01*
X8582628Y-21547928D01*
X8750249Y-21329479D01*
X8752365Y-21325813D01*
X8754280Y-21322498D01*
X8804848Y-21274283D01*
X8861666Y-21260500D01*
X10775500Y-21260500D01*
X10842539Y-21280185D01*
X10888294Y-21332989D01*
X10899500Y-21384500D01*
X10899500Y-28086611D01*
X10926598Y-28257701D01*
X10980127Y-28422445D01*
X11058768Y-28576788D01*
X11160586Y-28716928D01*
X11283072Y-28839414D01*
X11423212Y-28941232D01*
X11577555Y-29019873D01*
X11742299Y-29073402D01*
X11913389Y-29100500D01*
X11913390Y-29100500D01*
X68086610Y-29100500D01*
X68086611Y-29100500D01*
X68257701Y-29073402D01*
X68422445Y-29019873D01*
X68576788Y-28941232D01*
X68716928Y-28839414D01*
X68839414Y-28716928D01*
X68941232Y-28576788D01*
X69019873Y-28422445D01*
X69073402Y-28257701D01*
X69100500Y-28086611D01*
X69100500Y-20548389D01*
X69073402Y-20377299D01*
X69019873Y-20212555D01*
X68941232Y-20058212D01*
X68839414Y-19918072D01*
X68716928Y-19795586D01*
X68576788Y-19693768D01*
X68422445Y-19615127D01*
X68257701Y-19561598D01*
X68257699Y-19561597D01*
X68257698Y-19561597D01*
X68126271Y-19540781D01*
X68086611Y-19534500D01*
X67913389Y-19534500D01*
X67873728Y-19540781D01*
X67742302Y-19561597D01*
X67577552Y-19615128D01*
X67423211Y-19693768D01*
X67346736Y-19749331D01*
X67283072Y-19795586D01*
X67283070Y-19795588D01*
X67283069Y-19795588D01*
X67160588Y-19918069D01*
X67160588Y-19918070D01*
X67160586Y-19918072D01*
X67116859Y-19978256D01*
X67058768Y-20058211D01*
X66980128Y-20212552D01*
X66926597Y-20377302D01*
X66899500Y-20548389D01*
X66899500Y-26775500D01*
X66879815Y-26842539D01*
X66827011Y-26888294D01*
X66775500Y-26899500D01*
X13224500Y-26899500D01*
X13157461Y-26879815D01*
X13111706Y-26827011D01*
X13100500Y-26775500D01*
X13100500Y-20073389D01*
X13075900Y-19918072D01*
X13073402Y-19902299D01*
X13019873Y-19737555D01*
X12941232Y-19583212D01*
X12839414Y-19443072D01*
X12716928Y-19320586D01*
X12576788Y-19218768D01*
X12422445Y-19140127D01*
X12257701Y-19086598D01*
X12257699Y-19086597D01*
X12257698Y-19086597D01*
X12126271Y-19065781D01*
X12086611Y-19059500D01*
X12086610Y-19059500D01*
X8861666Y-19059500D01*
X8794627Y-19039815D01*
X8754280Y-18997502D01*
X8750249Y-18990521D01*
X8582629Y-18772073D01*
X8582623Y-18772066D01*
X8387933Y-18577376D01*
X8387926Y-18577370D01*
X8169483Y-18409754D01*
X8169482Y-18409753D01*
X8169479Y-18409751D01*
X8074407Y-18354861D01*
X7931028Y-18272080D01*
X7931017Y-18272075D01*
X7676630Y-18166704D01*
X7543649Y-18131072D01*
X7410666Y-18095440D01*
X7410660Y-18095439D01*
X7410655Y-18095438D01*
X7137684Y-18059501D01*
X7137679Y-18059500D01*
X7137674Y-18059500D01*
X6862326Y-18059500D01*
X6862320Y-18059500D01*
X6862315Y-18059501D01*
X6589344Y-18095438D01*
X6589337Y-18095439D01*
X6589334Y-18095440D01*
X6533125Y-18110500D01*
X6323369Y-18166704D01*
X6068982Y-18272075D01*
X6068971Y-18272080D01*
X5830516Y-18409754D01*
X5612073Y-18577370D01*
X5612066Y-18577376D01*
X5417376Y-18772066D01*
X5417370Y-18772073D01*
X5249754Y-18990516D01*
X5112080Y-19228971D01*
X5112075Y-19228982D01*
X5006704Y-19483369D01*
X4935441Y-19749331D01*
X4935438Y-19749344D01*
X4899501Y-20022315D01*
X4899500Y-20022332D01*
X1500500Y-20022332D01*
X1500500Y-14942332D01*
X4899500Y-14942332D01*
X4899500Y-15217667D01*
X4899501Y-15217684D01*
X4935438Y-15490655D01*
X4935439Y-15490660D01*
X4935440Y-15490666D01*
X4935441Y-15490668D01*
X5006704Y-15756630D01*
X5112075Y-16011017D01*
X5112080Y-16011028D01*
X5194861Y-16154407D01*
X5249751Y-16249479D01*
X5249753Y-16249482D01*
X5249754Y-16249483D01*
X5417370Y-16467926D01*
X5417376Y-16467933D01*
X5612066Y-16662623D01*
X5612072Y-16662628D01*
X5830521Y-16830249D01*
X5983778Y-16918732D01*
X6068971Y-16967919D01*
X6068976Y-16967921D01*
X6068979Y-16967923D01*
X6323368Y-17073295D01*
X6589334Y-17144560D01*
X6862326Y-17180500D01*
X6862333Y-17180500D01*
X7137667Y-17180500D01*
X7137674Y-17180500D01*
X7410666Y-17144560D01*
X7676632Y-17073295D01*
X7931021Y-16967923D01*
X8169479Y-16830249D01*
X8387928Y-16662628D01*
X8582628Y-16467928D01*
X8750249Y-16249479D01*
X8887923Y-16011021D01*
X8993295Y-15756632D01*
X9064560Y-15490666D01*
X9100500Y-15217674D01*
X9100500Y-14942326D01*
X9064560Y-14669334D01*
X8993295Y-14403368D01*
X8887923Y-14148979D01*
X8887921Y-14148976D01*
X8887919Y-14148971D01*
X8838732Y-14063778D01*
X8750249Y-13910521D01*
X8582628Y-13692072D01*
X8582623Y-13692066D01*
X8387933Y-13497376D01*
X8387926Y-13497370D01*
X8169483Y-13329754D01*
X8169482Y-13329753D01*
X8169479Y-13329751D01*
X8074407Y-13274861D01*
X7931028Y-13192080D01*
X7931017Y-13192075D01*
X7676630Y-13086704D01*
X7543649Y-13051072D01*
X7410666Y-13015440D01*
X7410660Y-13015439D01*
X7410655Y-13015438D01*
X7137684Y-12979501D01*
X7137679Y-12979500D01*
X7137674Y-12979500D01*
X6862326Y-12979500D01*
X6862320Y-12979500D01*
X6862315Y-12979501D01*
X6589344Y-13015438D01*
X6589337Y-13015439D01*
X6589334Y-13015440D01*
X6533125Y-13030500D01*
X6323369Y-13086704D01*
X6068982Y-13192075D01*
X6068971Y-13192080D01*
X5830516Y-13329754D01*
X5612073Y-13497370D01*
X5612066Y-13497376D01*
X5417376Y-13692066D01*
X5417370Y-13692073D01*
X5249754Y-13910516D01*
X5112080Y-14148971D01*
X5112075Y-14148982D01*
X5006704Y-14403369D01*
X4935441Y-14669331D01*
X4935438Y-14669344D01*
X4899501Y-14942315D01*
X4899500Y-14942332D01*
X1500500Y-14942332D01*
X1500500Y-6322097D01*
X1520185Y-6255058D01*
X1572989Y-6209303D01*
X1642147Y-6199359D01*
X1705703Y-6228384D01*
X1739060Y-6274643D01*
X1831769Y-6498462D01*
X1831770Y-6498464D01*
X1831772Y-6498469D01*
X1993893Y-6801775D01*
X1993904Y-6801793D01*
X2184975Y-7087751D01*
X2184985Y-7087765D01*
X2403176Y-7353632D01*
X2646367Y-7596823D01*
X2646372Y-7596827D01*
X2646373Y-7596828D01*
X2912240Y-7815019D01*
X3198213Y-8006100D01*
X3198222Y-8006105D01*
X3198224Y-8006106D01*
X3501530Y-8168227D01*
X3501532Y-8168227D01*
X3501538Y-8168231D01*
X3819295Y-8299850D01*
X4148422Y-8399690D01*
X4485750Y-8466789D01*
X4787654Y-8496523D01*
X4852441Y-8522684D01*
X4892800Y-8579718D01*
X4899500Y-8619926D01*
X4899500Y-11647870D01*
X4899501Y-11647876D01*
X4905908Y-11707483D01*
X4956202Y-11842328D01*
X4956206Y-11842335D01*
X5042452Y-11957544D01*
X5042455Y-11957547D01*
X5157664Y-12043793D01*
X5157671Y-12043797D01*
X5292517Y-12094091D01*
X5292516Y-12094091D01*
X5299444Y-12094835D01*
X5352127Y-12100500D01*
X8647872Y-12100499D01*
X8707483Y-12094091D01*
X8842331Y-12043796D01*
X8957546Y-11957546D01*
X9043796Y-11842331D01*
X9094091Y-11707483D01*
X9100500Y-11647873D01*
X9100499Y-8352128D01*
X9094091Y-8292517D01*
X9047735Y-8168231D01*
X9043797Y-8157671D01*
X9043793Y-8157664D01*
X8957547Y-8042455D01*
X8957544Y-8042452D01*
X8842335Y-7956206D01*
X8842328Y-7956202D01*
X8707482Y-7905908D01*
X8707483Y-7905908D01*
X8647883Y-7899501D01*
X8647881Y-7899500D01*
X8647873Y-7899500D01*
X8647865Y-7899500D01*
X7331377Y-7899500D01*
X7264338Y-7879815D01*
X7218583Y-7827011D01*
X7208639Y-7757853D01*
X7237664Y-7694297D01*
X7252712Y-7679647D01*
X7281320Y-7656168D01*
X7353627Y-7596828D01*
X7596828Y-7353627D01*
X7815019Y-7087760D01*
X8006100Y-6801787D01*
X8168231Y-6498462D01*
X8299850Y-6180705D01*
X8399690Y-5851578D01*
X8466789Y-5514250D01*
X8500500Y-5171969D01*
X8500500Y-4828031D01*
X8466789Y-4485750D01*
X8399690Y-4148422D01*
X8299850Y-3819295D01*
X8168231Y-3501538D01*
X8006100Y-3198213D01*
X7815019Y-2912240D01*
X7596828Y-2646373D01*
X7596827Y-2646372D01*
X7596823Y-2646367D01*
X7353632Y-2403176D01*
X7087765Y-2184985D01*
X7087764Y-2184984D01*
X7087760Y-2184981D01*
X6801787Y-1993900D01*
X6801782Y-1993897D01*
X6801775Y-1993893D01*
X6498469Y-1831772D01*
X6498464Y-1831770D01*
X6498462Y-1831769D01*
X6274643Y-1739060D01*
X6220241Y-1695220D01*
X6198176Y-1628926D01*
X6215455Y-1561227D01*
X6266592Y-1513616D01*
X6322097Y-1500500D01*
X75677903Y-1500500D01*
X75744942Y-1520185D01*
G37*
%TD.AperFunction*%
%TD*%
M02*
