M48
; DRILL file KiCad 10.0.4-10.0.4~ubuntu26.04.1 date 2026-07-24T16:59:21
; FORMAT={-:-/ absolute / metric / decimal}
; #@! TF.CreationDate,2026-07-24T16:59:21-07:00
; #@! TF.GenerationSoftware,Kicad,Pcbnew,10.0.4-10.0.4~ubuntu26.04.1
; #@! TF.FileFunction,Plated,1,2,PTH
FMAT,2
METRIC
; #@! TA.AperFunction,Plated,PTH,ViaDrill
T1C0.400
; #@! TA.AperFunction,Plated,PTH,ComponentDrill
T2C1.400
%
G90
G05
T1
X20.0Y-31.0
X21.1Y-15.5
X23.9Y-26.0
X27.5Y-14.5
X30.1Y-31.0
X32.4Y-26.0
X35.6Y-31.0
X36.5Y-14.5
X38.5Y-26.5
X43.5Y-31.0
X47.6Y-31.0
X54.1Y-20.0
X63.6Y-16.5
X65.5Y-23.0
X68.0Y-20.635
X73.0Y-31.0
T2
X7.0Y-10.0
X7.0Y-15.08
X7.0Y-20.16
X7.0Y-25.24
M30
