%TF.GenerationSoftware,KiCad,Pcbnew,10.0.4-10.0.4~ubuntu26.04.1*%
%TF.CreationDate,2026-07-24T16:59:21-07:00*%
%TF.ProjectId,marker-lamp-controller,6d61726b-6572-42d6-9c61-6d702d636f6e,rev?*%
%TF.SameCoordinates,Original*%
%TF.FileFunction,Copper,L1,Top*%
%TF.FilePolarity,Positive*%
%FSLAX46Y46*%
G04 Gerber Fmt 4.6, Leading zero omitted, Abs format (unit mm)*
G04 Created by KiCad (PCBNEW 10.0.4-10.0.4~ubuntu26.04.1) date 2026-07-24 16:59:21*
%MOMM*%
%LPD*%
G01*
G04 APERTURE LIST*
G04 Aperture macros list*
%AMRoundRect*
0 Rectangle with rounded corners*
0 $1 Rounding radius*
0 $2 $3 $4 $5 $6 $7 $8 $9 X,Y pos of 4 corners*
0 Add a 4 corners polygon primitive as box body*
4,1,4,$2,$3,$4,$5,$6,$7,$8,$9,$2,$3,0*
0 Add four circle primitives for the rounded corners*
1,1,$1+$1,$2,$3*
1,1,$1+$1,$4,$5*
1,1,$1+$1,$6,$7*
1,1,$1+$1,$8,$9*
0 Add four rect primitives between the rounded corners*
20,1,$1+$1,$2,$3,$4,$5,0*
20,1,$1+$1,$4,$5,$6,$7,0*
20,1,$1+$1,$6,$7,$8,$9,0*
20,1,$1+$1,$8,$9,$2,$3,0*%
G04 Aperture macros list end*
%TA.AperFunction,WasherPad*%
%ADD10C,6.000000*%
%TD*%
%TA.AperFunction,SMDPad,CuDef*%
%ADD11RoundRect,0.135000X-0.765000X-0.240000X0.765000X-0.240000X0.765000X0.240000X-0.765000X0.240000X0*%
%TD*%
%TA.AperFunction,SMDPad,CuDef*%
%ADD12RoundRect,0.270000X-0.480000X-0.480000X0.480000X-0.480000X0.480000X0.480000X-0.480000X0.480000X0*%
%TD*%
%TA.AperFunction,SMDPad,CuDef*%
%ADD13RoundRect,0.324000X-0.576000X-0.776000X0.576000X-0.776000X0.576000X0.776000X-0.576000X0.776000X0*%
%TD*%
%TA.AperFunction,ComponentPad*%
%ADD14R,3.200000X3.200000*%
%TD*%
%TA.AperFunction,ComponentPad*%
%ADD15C,3.200000*%
%TD*%
%TA.AperFunction,SMDPad,CuDef*%
%ADD16RoundRect,0.270000X-0.580000X-0.480000X0.580000X-0.480000X0.580000X0.480000X-0.580000X0.480000X0*%
%TD*%
%TA.AperFunction,SMDPad,CuDef*%
%ADD17RoundRect,0.270000X-0.930000X-0.480000X0.930000X-0.480000X0.930000X0.480000X-0.930000X0.480000X0*%
%TD*%
%TA.AperFunction,SMDPad,CuDef*%
%ADD18RoundRect,0.198000X-0.702000X-0.352000X0.702000X-0.352000X0.702000X0.352000X-0.702000X0.352000X0*%
%TD*%
%TA.AperFunction,SMDPad,CuDef*%
%ADD19RoundRect,0.396000X-0.704000X-1.004000X0.704000X-1.004000X0.704000X1.004000X-0.704000X1.004000X0*%
%TD*%
%TA.AperFunction,SMDPad,CuDef*%
%ADD20RoundRect,0.432000X-0.918000X-0.768000X0.918000X-0.768000X0.918000X0.768000X-0.918000X0.768000X0*%
%TD*%
%TA.AperFunction,SMDPad,CuDef*%
%ADD21RoundRect,0.396000X-0.804000X-0.704000X0.804000X-0.704000X0.804000X0.704000X-0.804000X0.704000X0*%
%TD*%
%TA.AperFunction,ViaPad*%
%ADD22C,0.800000*%
%TD*%
%TA.AperFunction,Conductor*%
%ADD23C,0.500000*%
%TD*%
%TA.AperFunction,Conductor*%
%ADD24C,0.600000*%
%TD*%
%TA.AperFunction,Conductor*%
%ADD25C,0.350000*%
%TD*%
%TA.AperFunction,Conductor*%
%ADD26C,1.200000*%
%TD*%
%TA.AperFunction,Conductor*%
%ADD27C,0.800000*%
%TD*%
G04 APERTURE END LIST*
D10*
%TO.P,H3,*%
%TO.N,*%
X77000000Y-42000000D03*
%TD*%
D11*
%TO.P,U1,1*%
%TO.N,GND*%
X66000000Y-18095000D03*
%TO.P,U1,2*%
%TO.N,CTRL*%
X66000000Y-19365000D03*
%TO.P,U1,3*%
%TO.N,LAMP_OUT*%
X66000000Y-20635000D03*
%TO.P,U1,4*%
%TO.N,N/C*%
X66000000Y-21905000D03*
%TO.P,U1,5*%
%TO.N,VPWR*%
X72000000Y-21905000D03*
%TO.P,U1,6*%
X72000000Y-20635000D03*
%TO.P,U1,7*%
X72000000Y-19365000D03*
%TO.P,U1,8*%
X72000000Y-18095000D03*
%TD*%
D12*
%TO.P,R4,1*%
%TO.N,QBASE*%
X44400000Y-14000000D03*
%TO.P,R4,2*%
%TO.N,VPWR*%
X47600000Y-14000000D03*
%TD*%
%TO.P,R1,1*%
%TO.N,SENSE*%
X15400000Y-10000000D03*
%TO.P,R1,2*%
%TO.N,SENSE_R1*%
X18600000Y-10000000D03*
%TD*%
%TO.P,R5,1*%
%TO.N,QCOL*%
X54400000Y-14000000D03*
%TO.P,R5,2*%
%TO.N,CTRL*%
X57600000Y-14000000D03*
%TD*%
D13*
%TO.P,C1,1*%
%TO.N,CTRL*%
X60100000Y-23000000D03*
%TO.P,C1,2*%
%TO.N,GND*%
X63900000Y-23000000D03*
%TD*%
D14*
%TO.P,J1,1*%
%TO.N,SENSE*%
X7000000Y-10000000D03*
D15*
%TO.P,J1,2*%
%TO.N,VPRE*%
X7000000Y-15080000D03*
%TO.P,J1,3*%
%TO.N,LAMP_OUT*%
X7000000Y-20160000D03*
%TO.P,J1,4*%
%TO.N,GND*%
X7000000Y-25240000D03*
%TD*%
D16*
%TO.P,D3,1*%
%TO.N,OPTO_A*%
X24900000Y-14000000D03*
%TO.P,D3,2*%
%TO.N,GND*%
X21100000Y-14000000D03*
%TD*%
D17*
%TO.P,U2,1*%
%TO.N,OPTO_A*%
X27500000Y-10000000D03*
%TO.P,U2,2*%
%TO.N,GND*%
X27500000Y-12540000D03*
%TO.P,U2,3*%
X36500000Y-12540000D03*
%TO.P,U2,4*%
%TO.N,OPTO_C*%
X36500000Y-10000000D03*
%TD*%
D18*
%TO.P,Q1,1*%
%TO.N,QBASE*%
X49300000Y-10950000D03*
%TO.P,Q1,2*%
%TO.N,VPWR*%
X49300000Y-9050000D03*
%TO.P,Q1,3*%
%TO.N,QCOL*%
X52700000Y-10000000D03*
%TD*%
D12*
%TO.P,C2,1*%
%TO.N,GND*%
X32400000Y-24000000D03*
%TO.P,C2,2*%
%TO.N,VPWR*%
X35600000Y-24000000D03*
%TD*%
%TO.P,R6,1*%
%TO.N,CTRL*%
X60400000Y-18000000D03*
%TO.P,R6,2*%
%TO.N,GND*%
X63600000Y-18000000D03*
%TD*%
D10*
%TO.P,H2,*%
%TO.N,*%
X77000000Y-5000000D03*
%TD*%
D19*
%TO.P,C3,1*%
%TO.N,GND*%
X38500000Y-24000000D03*
%TO.P,C3,2*%
%TO.N,VPWR*%
X43500000Y-24000000D03*
%TD*%
D20*
%TO.P,D2,1*%
%TO.N,VPWR*%
X30100000Y-24000000D03*
%TO.P,D2,2*%
%TO.N,GND*%
X23900000Y-24000000D03*
%TD*%
D21*
%TO.P,D1,1*%
%TO.N,VPWR*%
X19750000Y-18000000D03*
%TO.P,D1,2*%
%TO.N,VPRE*%
X14250000Y-18000000D03*
%TD*%
D10*
%TO.P,H4,*%
%TO.N,*%
X5000000Y-42000000D03*
%TD*%
D16*
%TO.P,D4,1*%
%TO.N,CTRL*%
X57900000Y-18000000D03*
%TO.P,D4,2*%
%TO.N,GND*%
X54100000Y-18000000D03*
%TD*%
D12*
%TO.P,R3,1*%
%TO.N,OPTO_C*%
X39400000Y-10000000D03*
%TO.P,R3,2*%
%TO.N,QBASE*%
X42600000Y-10000000D03*
%TD*%
D10*
%TO.P,H1,*%
%TO.N,*%
X5000000Y-5000000D03*
%TD*%
D12*
%TO.P,R2,1*%
%TO.N,SENSE_R1*%
X21400000Y-10000000D03*
%TO.P,R2,2*%
%TO.N,OPTO_A*%
X24600000Y-10000000D03*
%TD*%
D22*
%TO.N,GND*%
X38500000Y-26500000D03*
X36500000Y-14500000D03*
X21100000Y-15500000D03*
X23900000Y-26000000D03*
X32400000Y-26000000D03*
X63600000Y-16500000D03*
X54100000Y-20000000D03*
X27500000Y-14500000D03*
X65500000Y-23000000D03*
%TO.N,LAMP_OUT*%
X68000000Y-20635000D03*
%TO.N,VPWR*%
X47600000Y-31000000D03*
X73000000Y-31000000D03*
X20000000Y-31000000D03*
X35600000Y-31000000D03*
X43500000Y-31000000D03*
X30100000Y-31000000D03*
%TD*%
%TO.N,GND*%
D23*
X63900000Y-23000000D02*
X65500000Y-23000000D01*
X23900000Y-24000000D02*
X23900000Y-26000000D01*
X38500000Y-24000000D02*
X38500000Y-26500000D01*
X36500000Y-12540000D02*
X36500000Y-14500000D01*
X32400000Y-24000000D02*
X32400000Y-26000000D01*
X54100000Y-18000000D02*
X54100000Y-20000000D01*
X21100000Y-14000000D02*
X21100000Y-15500000D01*
X63600000Y-18000000D02*
X63600000Y-16500000D01*
X27500000Y-12540000D02*
X27500000Y-14500000D01*
D24*
X66000000Y-18095000D02*
X63600000Y-18000000D01*
%TO.N,CTRL*%
D25*
X59000000Y-19365000D02*
X66000000Y-19365000D01*
X60400000Y-18000000D02*
X59000000Y-18000000D01*
X59000000Y-18000000D02*
X59000000Y-19365000D01*
X60400000Y-18000000D02*
X60400000Y-18000000D01*
X60400000Y-18000000D02*
X60100000Y-23000000D01*
X60400000Y-14000000D02*
X60400000Y-18000000D01*
X57600000Y-14000000D02*
X60400000Y-14000000D01*
X60400000Y-18000000D02*
X57900000Y-18000000D01*
%TO.N,LAMP_OUT*%
D26*
X66000000Y-20635000D02*
X68000000Y-20635000D01*
%TO.N,VPWR*%
D24*
X51200000Y-16000000D02*
X51200000Y-7500000D01*
D26*
X19750000Y-18000000D02*
X20000000Y-18000000D01*
D27*
X73000000Y-18095000D02*
X73000000Y-31000000D01*
X30100000Y-24000000D02*
X30100000Y-31000000D01*
D24*
X49300000Y-7500000D02*
X49300000Y-9050000D01*
D27*
X73000000Y-19365000D02*
X73000000Y-31000000D01*
X73000000Y-21905000D02*
X73000000Y-31000000D01*
X72000000Y-19365000D02*
X73000000Y-19365000D01*
D24*
X47600000Y-14000000D02*
X47600000Y-31000000D01*
D26*
X20000000Y-18000000D02*
X20000000Y-31000000D01*
D27*
X72000000Y-20635000D02*
X73000000Y-20635000D01*
X73000000Y-20635000D02*
X73000000Y-31000000D01*
X43500000Y-24000000D02*
X43500000Y-31000000D01*
X35600000Y-24000000D02*
X35600000Y-31000000D01*
D24*
X51200000Y-7500000D02*
X49300000Y-7500000D01*
X47600000Y-16000000D02*
X51200000Y-16000000D01*
X47600000Y-14000000D02*
X47600000Y-16000000D01*
D27*
X72000000Y-18095000D02*
X73000000Y-18095000D01*
X72000000Y-21905000D02*
X73000000Y-21905000D01*
%TO.N,QBASE*%
D25*
X49300000Y-12500000D02*
X49300000Y-10950000D01*
X45000000Y-10000000D02*
X45000000Y-12500000D01*
X45000000Y-12500000D02*
X44400000Y-14000000D01*
X42600000Y-10000000D02*
X45000000Y-10000000D01*
X45000000Y-12500000D02*
X49300000Y-12500000D01*
%TO.N,SENSE*%
X7000000Y-10000000D02*
X15400000Y-10000000D01*
%TO.N,SENSE_R1*%
X18600000Y-10000000D02*
X21400000Y-10000000D01*
%TO.N,QCOL*%
X52700000Y-10000000D02*
X54400000Y-14000000D01*
%TO.N,VPRE*%
D26*
X12000000Y-18000000D02*
X14250000Y-18000000D01*
X7000000Y-15080000D02*
X12000000Y-15080000D01*
X12000000Y-15080000D02*
X12000000Y-18000000D01*
%TO.N,OPTO_A*%
D25*
X24600000Y-10000000D02*
X27500000Y-10000000D01*
X25200000Y-10000000D02*
X25200000Y-14000000D01*
X25200000Y-14000000D02*
X24900000Y-14000000D01*
X24600000Y-10000000D02*
X25200000Y-10000000D01*
%TO.N,OPTO_C*%
X36500000Y-10000000D02*
X39400000Y-10000000D01*
%TD*%
M02*
