%TF.GenerationSoftware,KiCad,Pcbnew,10.0.5-10.0.5~ubuntu26.04.1*%
%TF.CreationDate,2026-08-12T13:49:54-07:00*%
%TF.ProjectId,marker-lamp-controller-rev-b,6d61726b-6572-42d6-9c61-6d702d636f6e,rev?*%
%TF.SameCoordinates,Original*%
%TF.FileFunction,Legend,Top*%
%TF.FilePolarity,Positive*%
%FSLAX46Y46*%
G04 Gerber Fmt 4.6, Leading zero omitted, Abs format (unit mm)*
G04 Created by KiCad (PCBNEW 10.0.5-10.0.5~ubuntu26.04.1) date 2026-08-12 13:49:54*
%MOMM*%
%LPD*%
G01*
G04 APERTURE LIST*
%ADD10C,0.150000*%
%ADD11C,0.158750*%
G04 APERTURE END LIST*
D10*
X27676188Y-39062295D02*
X27676188Y-39633723D01*
X27676188Y-39633723D02*
X27638093Y-39748009D01*
X27638093Y-39748009D02*
X27561902Y-39824200D01*
X27561902Y-39824200D02*
X27447617Y-39862295D01*
X27447617Y-39862295D02*
X27371426Y-39862295D01*
X28476188Y-39862295D02*
X28019045Y-39862295D01*
X28247617Y-39862295D02*
X28247617Y-39062295D01*
X28247617Y-39062295D02*
X28171426Y-39176580D01*
X28171426Y-39176580D02*
X28095236Y-39252771D01*
X28095236Y-39252771D02*
X28019045Y-39290866D01*
X28819046Y-39786104D02*
X28857141Y-39824200D01*
X28857141Y-39824200D02*
X28819046Y-39862295D01*
X28819046Y-39862295D02*
X28780950Y-39824200D01*
X28780950Y-39824200D02*
X28819046Y-39786104D01*
X28819046Y-39786104D02*
X28819046Y-39862295D01*
X28819046Y-39367057D02*
X28857141Y-39405152D01*
X28857141Y-39405152D02*
X28819046Y-39443247D01*
X28819046Y-39443247D02*
X28780950Y-39405152D01*
X28780950Y-39405152D02*
X28819046Y-39367057D01*
X28819046Y-39367057D02*
X28819046Y-39443247D01*
X30228569Y-39862295D02*
X29771426Y-39862295D01*
X29999998Y-39862295D02*
X29999998Y-39062295D01*
X29999998Y-39062295D02*
X29923807Y-39176580D01*
X29923807Y-39176580D02*
X29847617Y-39252771D01*
X29847617Y-39252771D02*
X29771426Y-39290866D01*
X31142855Y-39824200D02*
X31257141Y-39862295D01*
X31257141Y-39862295D02*
X31447617Y-39862295D01*
X31447617Y-39862295D02*
X31523808Y-39824200D01*
X31523808Y-39824200D02*
X31561903Y-39786104D01*
X31561903Y-39786104D02*
X31599998Y-39709914D01*
X31599998Y-39709914D02*
X31599998Y-39633723D01*
X31599998Y-39633723D02*
X31561903Y-39557533D01*
X31561903Y-39557533D02*
X31523808Y-39519438D01*
X31523808Y-39519438D02*
X31447617Y-39481342D01*
X31447617Y-39481342D02*
X31295236Y-39443247D01*
X31295236Y-39443247D02*
X31219046Y-39405152D01*
X31219046Y-39405152D02*
X31180951Y-39367057D01*
X31180951Y-39367057D02*
X31142855Y-39290866D01*
X31142855Y-39290866D02*
X31142855Y-39214676D01*
X31142855Y-39214676D02*
X31180951Y-39138485D01*
X31180951Y-39138485D02*
X31219046Y-39100390D01*
X31219046Y-39100390D02*
X31295236Y-39062295D01*
X31295236Y-39062295D02*
X31485713Y-39062295D01*
X31485713Y-39062295D02*
X31599998Y-39100390D01*
X31942856Y-39443247D02*
X32209522Y-39443247D01*
X32323808Y-39862295D02*
X31942856Y-39862295D01*
X31942856Y-39862295D02*
X31942856Y-39062295D01*
X31942856Y-39062295D02*
X32323808Y-39062295D01*
X32666666Y-39862295D02*
X32666666Y-39062295D01*
X32666666Y-39062295D02*
X33123809Y-39862295D01*
X33123809Y-39862295D02*
X33123809Y-39062295D01*
X33466665Y-39824200D02*
X33580951Y-39862295D01*
X33580951Y-39862295D02*
X33771427Y-39862295D01*
X33771427Y-39862295D02*
X33847618Y-39824200D01*
X33847618Y-39824200D02*
X33885713Y-39786104D01*
X33885713Y-39786104D02*
X33923808Y-39709914D01*
X33923808Y-39709914D02*
X33923808Y-39633723D01*
X33923808Y-39633723D02*
X33885713Y-39557533D01*
X33885713Y-39557533D02*
X33847618Y-39519438D01*
X33847618Y-39519438D02*
X33771427Y-39481342D01*
X33771427Y-39481342D02*
X33619046Y-39443247D01*
X33619046Y-39443247D02*
X33542856Y-39405152D01*
X33542856Y-39405152D02*
X33504761Y-39367057D01*
X33504761Y-39367057D02*
X33466665Y-39290866D01*
X33466665Y-39290866D02*
X33466665Y-39214676D01*
X33466665Y-39214676D02*
X33504761Y-39138485D01*
X33504761Y-39138485D02*
X33542856Y-39100390D01*
X33542856Y-39100390D02*
X33619046Y-39062295D01*
X33619046Y-39062295D02*
X33809523Y-39062295D01*
X33809523Y-39062295D02*
X33923808Y-39100390D01*
X34266666Y-39443247D02*
X34533332Y-39443247D01*
X34647618Y-39862295D02*
X34266666Y-39862295D01*
X34266666Y-39862295D02*
X34266666Y-39062295D01*
X34266666Y-39062295D02*
X34647618Y-39062295D01*
X36171428Y-39138485D02*
X36209524Y-39100390D01*
X36209524Y-39100390D02*
X36285714Y-39062295D01*
X36285714Y-39062295D02*
X36476190Y-39062295D01*
X36476190Y-39062295D02*
X36552381Y-39100390D01*
X36552381Y-39100390D02*
X36590476Y-39138485D01*
X36590476Y-39138485D02*
X36628571Y-39214676D01*
X36628571Y-39214676D02*
X36628571Y-39290866D01*
X36628571Y-39290866D02*
X36590476Y-39405152D01*
X36590476Y-39405152D02*
X36133333Y-39862295D01*
X36133333Y-39862295D02*
X36628571Y-39862295D01*
X37847619Y-39443247D02*
X37961905Y-39481342D01*
X37961905Y-39481342D02*
X38000000Y-39519438D01*
X38000000Y-39519438D02*
X38038096Y-39595628D01*
X38038096Y-39595628D02*
X38038096Y-39709914D01*
X38038096Y-39709914D02*
X38000000Y-39786104D01*
X38000000Y-39786104D02*
X37961905Y-39824200D01*
X37961905Y-39824200D02*
X37885715Y-39862295D01*
X37885715Y-39862295D02*
X37580953Y-39862295D01*
X37580953Y-39862295D02*
X37580953Y-39062295D01*
X37580953Y-39062295D02*
X37847619Y-39062295D01*
X37847619Y-39062295D02*
X37923810Y-39100390D01*
X37923810Y-39100390D02*
X37961905Y-39138485D01*
X37961905Y-39138485D02*
X38000000Y-39214676D01*
X38000000Y-39214676D02*
X38000000Y-39290866D01*
X38000000Y-39290866D02*
X37961905Y-39367057D01*
X37961905Y-39367057D02*
X37923810Y-39405152D01*
X37923810Y-39405152D02*
X37847619Y-39443247D01*
X37847619Y-39443247D02*
X37580953Y-39443247D01*
X38342857Y-39633723D02*
X38723810Y-39633723D01*
X38266667Y-39862295D02*
X38533334Y-39062295D01*
X38533334Y-39062295D02*
X38800000Y-39862295D01*
X38952381Y-39062295D02*
X39409524Y-39062295D01*
X39180952Y-39862295D02*
X39180952Y-39062295D01*
X39561905Y-39062295D02*
X40019048Y-39062295D01*
X39790476Y-39862295D02*
X39790476Y-39062295D01*
X40285715Y-39557533D02*
X40895239Y-39557533D01*
X40590477Y-39862295D02*
X40590477Y-39252771D01*
X42419048Y-39062295D02*
X42914286Y-39062295D01*
X42914286Y-39062295D02*
X42647620Y-39367057D01*
X42647620Y-39367057D02*
X42761905Y-39367057D01*
X42761905Y-39367057D02*
X42838096Y-39405152D01*
X42838096Y-39405152D02*
X42876191Y-39443247D01*
X42876191Y-39443247D02*
X42914286Y-39519438D01*
X42914286Y-39519438D02*
X42914286Y-39709914D01*
X42914286Y-39709914D02*
X42876191Y-39786104D01*
X42876191Y-39786104D02*
X42838096Y-39824200D01*
X42838096Y-39824200D02*
X42761905Y-39862295D01*
X42761905Y-39862295D02*
X42533334Y-39862295D01*
X42533334Y-39862295D02*
X42457143Y-39824200D01*
X42457143Y-39824200D02*
X42419048Y-39786104D01*
X44247620Y-39862295D02*
X43866668Y-39862295D01*
X43866668Y-39862295D02*
X43866668Y-39062295D01*
X44476191Y-39633723D02*
X44857144Y-39633723D01*
X44400001Y-39862295D02*
X44666668Y-39062295D01*
X44666668Y-39062295D02*
X44933334Y-39862295D01*
X45200001Y-39862295D02*
X45200001Y-39062295D01*
X45200001Y-39062295D02*
X45466667Y-39633723D01*
X45466667Y-39633723D02*
X45733334Y-39062295D01*
X45733334Y-39062295D02*
X45733334Y-39862295D01*
X46114287Y-39862295D02*
X46114287Y-39062295D01*
X46114287Y-39062295D02*
X46419049Y-39062295D01*
X46419049Y-39062295D02*
X46495239Y-39100390D01*
X46495239Y-39100390D02*
X46533334Y-39138485D01*
X46533334Y-39138485D02*
X46571430Y-39214676D01*
X46571430Y-39214676D02*
X46571430Y-39328961D01*
X46571430Y-39328961D02*
X46533334Y-39405152D01*
X46533334Y-39405152D02*
X46495239Y-39443247D01*
X46495239Y-39443247D02*
X46419049Y-39481342D01*
X46419049Y-39481342D02*
X46114287Y-39481342D01*
X46914287Y-39557533D02*
X47523811Y-39557533D01*
X47219049Y-39862295D02*
X47219049Y-39252771D01*
X49466668Y-39328961D02*
X49466668Y-39862295D01*
X49276192Y-39024200D02*
X49085715Y-39595628D01*
X49085715Y-39595628D02*
X49580954Y-39595628D01*
X50914287Y-39100390D02*
X50838097Y-39062295D01*
X50838097Y-39062295D02*
X50723811Y-39062295D01*
X50723811Y-39062295D02*
X50609525Y-39100390D01*
X50609525Y-39100390D02*
X50533335Y-39176580D01*
X50533335Y-39176580D02*
X50495240Y-39252771D01*
X50495240Y-39252771D02*
X50457144Y-39405152D01*
X50457144Y-39405152D02*
X50457144Y-39519438D01*
X50457144Y-39519438D02*
X50495240Y-39671819D01*
X50495240Y-39671819D02*
X50533335Y-39748009D01*
X50533335Y-39748009D02*
X50609525Y-39824200D01*
X50609525Y-39824200D02*
X50723811Y-39862295D01*
X50723811Y-39862295D02*
X50800002Y-39862295D01*
X50800002Y-39862295D02*
X50914287Y-39824200D01*
X50914287Y-39824200D02*
X50952383Y-39786104D01*
X50952383Y-39786104D02*
X50952383Y-39519438D01*
X50952383Y-39519438D02*
X50800002Y-39519438D01*
X51295240Y-39862295D02*
X51295240Y-39062295D01*
X51295240Y-39062295D02*
X51752383Y-39862295D01*
X51752383Y-39862295D02*
X51752383Y-39062295D01*
X52133335Y-39862295D02*
X52133335Y-39062295D01*
X52133335Y-39062295D02*
X52323811Y-39062295D01*
X52323811Y-39062295D02*
X52438097Y-39100390D01*
X52438097Y-39100390D02*
X52514287Y-39176580D01*
X52514287Y-39176580D02*
X52552382Y-39252771D01*
X52552382Y-39252771D02*
X52590478Y-39405152D01*
X52590478Y-39405152D02*
X52590478Y-39519438D01*
X52590478Y-39519438D02*
X52552382Y-39671819D01*
X52552382Y-39671819D02*
X52514287Y-39748009D01*
X52514287Y-39748009D02*
X52438097Y-39824200D01*
X52438097Y-39824200D02*
X52323811Y-39862295D01*
X52323811Y-39862295D02*
X52133335Y-39862295D01*
X48066667Y-27286104D02*
X48028571Y-27324200D01*
X48028571Y-27324200D02*
X47914286Y-27362295D01*
X47914286Y-27362295D02*
X47838095Y-27362295D01*
X47838095Y-27362295D02*
X47723809Y-27324200D01*
X47723809Y-27324200D02*
X47647619Y-27248009D01*
X47647619Y-27248009D02*
X47609524Y-27171819D01*
X47609524Y-27171819D02*
X47571428Y-27019438D01*
X47571428Y-27019438D02*
X47571428Y-26905152D01*
X47571428Y-26905152D02*
X47609524Y-26752771D01*
X47609524Y-26752771D02*
X47647619Y-26676580D01*
X47647619Y-26676580D02*
X47723809Y-26600390D01*
X47723809Y-26600390D02*
X47838095Y-26562295D01*
X47838095Y-26562295D02*
X47914286Y-26562295D01*
X47914286Y-26562295D02*
X48028571Y-26600390D01*
X48028571Y-26600390D02*
X48066667Y-26638485D01*
X48333333Y-26562295D02*
X48828571Y-26562295D01*
X48828571Y-26562295D02*
X48561905Y-26867057D01*
X48561905Y-26867057D02*
X48676190Y-26867057D01*
X48676190Y-26867057D02*
X48752381Y-26905152D01*
X48752381Y-26905152D02*
X48790476Y-26943247D01*
X48790476Y-26943247D02*
X48828571Y-27019438D01*
X48828571Y-27019438D02*
X48828571Y-27209914D01*
X48828571Y-27209914D02*
X48790476Y-27286104D01*
X48790476Y-27286104D02*
X48752381Y-27324200D01*
X48752381Y-27324200D02*
X48676190Y-27362295D01*
X48676190Y-27362295D02*
X48447619Y-27362295D01*
X48447619Y-27362295D02*
X48371428Y-27324200D01*
X48371428Y-27324200D02*
X48333333Y-27286104D01*
X49780953Y-27057533D02*
X50390477Y-27057533D01*
X50085715Y-27362295D02*
X50085715Y-26752771D01*
X30190475Y-43454819D02*
X30190475Y-42454819D01*
X30190475Y-42454819D02*
X30523808Y-43169104D01*
X30523808Y-43169104D02*
X30857141Y-42454819D01*
X30857141Y-42454819D02*
X30857141Y-43454819D01*
X31285713Y-43169104D02*
X31761903Y-43169104D01*
X31190475Y-43454819D02*
X31523808Y-42454819D01*
X31523808Y-42454819D02*
X31857141Y-43454819D01*
X32761903Y-43454819D02*
X32428570Y-42978628D01*
X32190475Y-43454819D02*
X32190475Y-42454819D01*
X32190475Y-42454819D02*
X32571427Y-42454819D01*
X32571427Y-42454819D02*
X32666665Y-42502438D01*
X32666665Y-42502438D02*
X32714284Y-42550057D01*
X32714284Y-42550057D02*
X32761903Y-42645295D01*
X32761903Y-42645295D02*
X32761903Y-42788152D01*
X32761903Y-42788152D02*
X32714284Y-42883390D01*
X32714284Y-42883390D02*
X32666665Y-42931009D01*
X32666665Y-42931009D02*
X32571427Y-42978628D01*
X32571427Y-42978628D02*
X32190475Y-42978628D01*
X33190475Y-43454819D02*
X33190475Y-42454819D01*
X33761903Y-43454819D02*
X33333332Y-42883390D01*
X33761903Y-42454819D02*
X33190475Y-43026247D01*
X34190475Y-42931009D02*
X34523808Y-42931009D01*
X34666665Y-43454819D02*
X34190475Y-43454819D01*
X34190475Y-43454819D02*
X34190475Y-42454819D01*
X34190475Y-42454819D02*
X34666665Y-42454819D01*
X35666665Y-43454819D02*
X35333332Y-42978628D01*
X35095237Y-43454819D02*
X35095237Y-42454819D01*
X35095237Y-42454819D02*
X35476189Y-42454819D01*
X35476189Y-42454819D02*
X35571427Y-42502438D01*
X35571427Y-42502438D02*
X35619046Y-42550057D01*
X35619046Y-42550057D02*
X35666665Y-42645295D01*
X35666665Y-42645295D02*
X35666665Y-42788152D01*
X35666665Y-42788152D02*
X35619046Y-42883390D01*
X35619046Y-42883390D02*
X35571427Y-42931009D01*
X35571427Y-42931009D02*
X35476189Y-42978628D01*
X35476189Y-42978628D02*
X35095237Y-42978628D01*
X37333332Y-43454819D02*
X36857142Y-43454819D01*
X36857142Y-43454819D02*
X36857142Y-42454819D01*
X37619047Y-43169104D02*
X38095237Y-43169104D01*
X37523809Y-43454819D02*
X37857142Y-42454819D01*
X37857142Y-42454819D02*
X38190475Y-43454819D01*
X38523809Y-43454819D02*
X38523809Y-42454819D01*
X38523809Y-42454819D02*
X38857142Y-43169104D01*
X38857142Y-43169104D02*
X39190475Y-42454819D01*
X39190475Y-42454819D02*
X39190475Y-43454819D01*
X39666666Y-43454819D02*
X39666666Y-42454819D01*
X39666666Y-42454819D02*
X40047618Y-42454819D01*
X40047618Y-42454819D02*
X40142856Y-42502438D01*
X40142856Y-42502438D02*
X40190475Y-42550057D01*
X40190475Y-42550057D02*
X40238094Y-42645295D01*
X40238094Y-42645295D02*
X40238094Y-42788152D01*
X40238094Y-42788152D02*
X40190475Y-42883390D01*
X40190475Y-42883390D02*
X40142856Y-42931009D01*
X40142856Y-42931009D02*
X40047618Y-42978628D01*
X40047618Y-42978628D02*
X39666666Y-42978628D01*
X41999999Y-43359580D02*
X41952380Y-43407200D01*
X41952380Y-43407200D02*
X41809523Y-43454819D01*
X41809523Y-43454819D02*
X41714285Y-43454819D01*
X41714285Y-43454819D02*
X41571428Y-43407200D01*
X41571428Y-43407200D02*
X41476190Y-43311961D01*
X41476190Y-43311961D02*
X41428571Y-43216723D01*
X41428571Y-43216723D02*
X41380952Y-43026247D01*
X41380952Y-43026247D02*
X41380952Y-42883390D01*
X41380952Y-42883390D02*
X41428571Y-42692914D01*
X41428571Y-42692914D02*
X41476190Y-42597676D01*
X41476190Y-42597676D02*
X41571428Y-42502438D01*
X41571428Y-42502438D02*
X41714285Y-42454819D01*
X41714285Y-42454819D02*
X41809523Y-42454819D01*
X41809523Y-42454819D02*
X41952380Y-42502438D01*
X41952380Y-42502438D02*
X41999999Y-42550057D01*
X42285714Y-42454819D02*
X42857142Y-42454819D01*
X42571428Y-43454819D02*
X42571428Y-42454819D01*
X43761904Y-43454819D02*
X43428571Y-42978628D01*
X43190476Y-43454819D02*
X43190476Y-42454819D01*
X43190476Y-42454819D02*
X43571428Y-42454819D01*
X43571428Y-42454819D02*
X43666666Y-42502438D01*
X43666666Y-42502438D02*
X43714285Y-42550057D01*
X43714285Y-42550057D02*
X43761904Y-42645295D01*
X43761904Y-42645295D02*
X43761904Y-42788152D01*
X43761904Y-42788152D02*
X43714285Y-42883390D01*
X43714285Y-42883390D02*
X43666666Y-42931009D01*
X43666666Y-42931009D02*
X43571428Y-42978628D01*
X43571428Y-42978628D02*
X43190476Y-42978628D01*
X44666666Y-43454819D02*
X44190476Y-43454819D01*
X44190476Y-43454819D02*
X44190476Y-42454819D01*
X46333333Y-43454819D02*
X46000000Y-42978628D01*
X45761905Y-43454819D02*
X45761905Y-42454819D01*
X45761905Y-42454819D02*
X46142857Y-42454819D01*
X46142857Y-42454819D02*
X46238095Y-42502438D01*
X46238095Y-42502438D02*
X46285714Y-42550057D01*
X46285714Y-42550057D02*
X46333333Y-42645295D01*
X46333333Y-42645295D02*
X46333333Y-42788152D01*
X46333333Y-42788152D02*
X46285714Y-42883390D01*
X46285714Y-42883390D02*
X46238095Y-42931009D01*
X46238095Y-42931009D02*
X46142857Y-42978628D01*
X46142857Y-42978628D02*
X45761905Y-42978628D01*
X46761905Y-42931009D02*
X47095238Y-42931009D01*
X47238095Y-43454819D02*
X46761905Y-43454819D01*
X46761905Y-43454819D02*
X46761905Y-42454819D01*
X46761905Y-42454819D02*
X47238095Y-42454819D01*
X47523810Y-42454819D02*
X47857143Y-43454819D01*
X47857143Y-43454819D02*
X48190476Y-42454819D01*
X49619048Y-42931009D02*
X49761905Y-42978628D01*
X49761905Y-42978628D02*
X49809524Y-43026247D01*
X49809524Y-43026247D02*
X49857143Y-43121485D01*
X49857143Y-43121485D02*
X49857143Y-43264342D01*
X49857143Y-43264342D02*
X49809524Y-43359580D01*
X49809524Y-43359580D02*
X49761905Y-43407200D01*
X49761905Y-43407200D02*
X49666667Y-43454819D01*
X49666667Y-43454819D02*
X49285715Y-43454819D01*
X49285715Y-43454819D02*
X49285715Y-42454819D01*
X49285715Y-42454819D02*
X49619048Y-42454819D01*
X49619048Y-42454819D02*
X49714286Y-42502438D01*
X49714286Y-42502438D02*
X49761905Y-42550057D01*
X49761905Y-42550057D02*
X49809524Y-42645295D01*
X49809524Y-42645295D02*
X49809524Y-42740533D01*
X49809524Y-42740533D02*
X49761905Y-42835771D01*
X49761905Y-42835771D02*
X49714286Y-42883390D01*
X49714286Y-42883390D02*
X49619048Y-42931009D01*
X49619048Y-42931009D02*
X49285715Y-42931009D01*
X32657142Y-3418771D02*
X32257142Y-3418771D01*
X32257142Y-4047342D02*
X32257142Y-2847342D01*
X32257142Y-2847342D02*
X32828570Y-2847342D01*
X33285713Y-3590200D02*
X34199999Y-3590200D01*
X35399998Y-4047342D02*
X34714284Y-4047342D01*
X35057141Y-4047342D02*
X35057141Y-2847342D01*
X35057141Y-2847342D02*
X34942855Y-3018771D01*
X34942855Y-3018771D02*
X34828570Y-3133057D01*
X34828570Y-3133057D02*
X34714284Y-3190200D01*
X36485712Y-2847342D02*
X35914284Y-2847342D01*
X35914284Y-2847342D02*
X35857141Y-3418771D01*
X35857141Y-3418771D02*
X35914284Y-3361628D01*
X35914284Y-3361628D02*
X36028570Y-3304485D01*
X36028570Y-3304485D02*
X36314284Y-3304485D01*
X36314284Y-3304485D02*
X36428570Y-3361628D01*
X36428570Y-3361628D02*
X36485712Y-3418771D01*
X36485712Y-3418771D02*
X36542855Y-3533057D01*
X36542855Y-3533057D02*
X36542855Y-3818771D01*
X36542855Y-3818771D02*
X36485712Y-3933057D01*
X36485712Y-3933057D02*
X36428570Y-3990200D01*
X36428570Y-3990200D02*
X36314284Y-4047342D01*
X36314284Y-4047342D02*
X36028570Y-4047342D01*
X36028570Y-4047342D02*
X35914284Y-3990200D01*
X35914284Y-3990200D02*
X35857141Y-3933057D01*
X37285712Y-2847342D02*
X37399998Y-2847342D01*
X37399998Y-2847342D02*
X37514284Y-2904485D01*
X37514284Y-2904485D02*
X37571427Y-2961628D01*
X37571427Y-2961628D02*
X37628569Y-3075914D01*
X37628569Y-3075914D02*
X37685712Y-3304485D01*
X37685712Y-3304485D02*
X37685712Y-3590200D01*
X37685712Y-3590200D02*
X37628569Y-3818771D01*
X37628569Y-3818771D02*
X37571427Y-3933057D01*
X37571427Y-3933057D02*
X37514284Y-3990200D01*
X37514284Y-3990200D02*
X37399998Y-4047342D01*
X37399998Y-4047342D02*
X37285712Y-4047342D01*
X37285712Y-4047342D02*
X37171427Y-3990200D01*
X37171427Y-3990200D02*
X37114284Y-3933057D01*
X37114284Y-3933057D02*
X37057141Y-3818771D01*
X37057141Y-3818771D02*
X36999998Y-3590200D01*
X36999998Y-3590200D02*
X36999998Y-3304485D01*
X36999998Y-3304485D02*
X37057141Y-3075914D01*
X37057141Y-3075914D02*
X37114284Y-2961628D01*
X37114284Y-2961628D02*
X37171427Y-2904485D01*
X37171427Y-2904485D02*
X37285712Y-2847342D01*
X39685712Y-4047342D02*
X39114284Y-4047342D01*
X39114284Y-4047342D02*
X39114284Y-2847342D01*
X40085713Y-4047342D02*
X40085713Y-2847342D01*
X41285713Y-2904485D02*
X41171428Y-2847342D01*
X41171428Y-2847342D02*
X40999999Y-2847342D01*
X40999999Y-2847342D02*
X40828570Y-2904485D01*
X40828570Y-2904485D02*
X40714285Y-3018771D01*
X40714285Y-3018771D02*
X40657142Y-3133057D01*
X40657142Y-3133057D02*
X40599999Y-3361628D01*
X40599999Y-3361628D02*
X40599999Y-3533057D01*
X40599999Y-3533057D02*
X40657142Y-3761628D01*
X40657142Y-3761628D02*
X40714285Y-3875914D01*
X40714285Y-3875914D02*
X40828570Y-3990200D01*
X40828570Y-3990200D02*
X40999999Y-4047342D01*
X40999999Y-4047342D02*
X41114285Y-4047342D01*
X41114285Y-4047342D02*
X41285713Y-3990200D01*
X41285713Y-3990200D02*
X41342856Y-3933057D01*
X41342856Y-3933057D02*
X41342856Y-3533057D01*
X41342856Y-3533057D02*
X41114285Y-3533057D01*
X41857142Y-4047342D02*
X41857142Y-2847342D01*
X41857142Y-3418771D02*
X42542856Y-3418771D01*
X42542856Y-4047342D02*
X42542856Y-2847342D01*
X42942856Y-2847342D02*
X43628571Y-2847342D01*
X43285713Y-4047342D02*
X43285713Y-2847342D01*
X44028571Y-4047342D02*
X44028571Y-2847342D01*
X44028571Y-2847342D02*
X44714285Y-4047342D01*
X44714285Y-4047342D02*
X44714285Y-2847342D01*
X45285714Y-4047342D02*
X45285714Y-2847342D01*
X45857143Y-4047342D02*
X45857143Y-2847342D01*
X45857143Y-2847342D02*
X46542857Y-4047342D01*
X46542857Y-4047342D02*
X46542857Y-2847342D01*
X47742857Y-2904485D02*
X47628572Y-2847342D01*
X47628572Y-2847342D02*
X47457143Y-2847342D01*
X47457143Y-2847342D02*
X47285714Y-2904485D01*
X47285714Y-2904485D02*
X47171429Y-3018771D01*
X47171429Y-3018771D02*
X47114286Y-3133057D01*
X47114286Y-3133057D02*
X47057143Y-3361628D01*
X47057143Y-3361628D02*
X47057143Y-3533057D01*
X47057143Y-3533057D02*
X47114286Y-3761628D01*
X47114286Y-3761628D02*
X47171429Y-3875914D01*
X47171429Y-3875914D02*
X47285714Y-3990200D01*
X47285714Y-3990200D02*
X47457143Y-4047342D01*
X47457143Y-4047342D02*
X47571429Y-4047342D01*
X47571429Y-4047342D02*
X47742857Y-3990200D01*
X47742857Y-3990200D02*
X47800000Y-3933057D01*
X47800000Y-3933057D02*
X47800000Y-3533057D01*
X47800000Y-3533057D02*
X47571429Y-3533057D01*
D11*
X-423332Y690728D02*
X-423332Y-216414D01*
X-423332Y-216414D02*
X-483809Y-397842D01*
X-483809Y-397842D02*
X-604761Y-518795D01*
X-604761Y-518795D02*
X-786190Y-579271D01*
X-786190Y-579271D02*
X-907142Y-579271D01*
X846667Y-579271D02*
X120952Y-579271D01*
X483809Y-579271D02*
X483809Y690728D01*
X483809Y690728D02*
X362857Y509300D01*
X362857Y509300D02*
X241905Y388347D01*
X241905Y388347D02*
X120952Y327871D01*
X-211666Y-579271D02*
X-635000Y25490D01*
X-937381Y-579271D02*
X-937381Y690728D01*
X-937381Y690728D02*
X-453571Y690728D01*
X-453571Y690728D02*
X-332619Y630252D01*
X-332619Y630252D02*
X-272142Y569776D01*
X-272142Y569776D02*
X-211666Y448824D01*
X-211666Y448824D02*
X-211666Y267395D01*
X-211666Y267395D02*
X-272142Y146443D01*
X-272142Y146443D02*
X-332619Y85966D01*
X-332619Y85966D02*
X-453571Y25490D01*
X-453571Y25490D02*
X-937381Y25490D01*
X876904Y267395D02*
X876904Y-579271D01*
X574523Y751205D02*
X272142Y-155937D01*
X272142Y-155937D02*
X1058333Y-155937D01*
X-211666Y-579271D02*
X-635000Y25490D01*
X-937381Y-579271D02*
X-937381Y690728D01*
X-937381Y690728D02*
X-453571Y690728D01*
X-453571Y690728D02*
X-332619Y630252D01*
X-332619Y630252D02*
X-272142Y569776D01*
X-272142Y569776D02*
X-211666Y448824D01*
X-211666Y448824D02*
X-211666Y267395D01*
X-211666Y267395D02*
X-272142Y146443D01*
X-272142Y146443D02*
X-332619Y85966D01*
X-332619Y85966D02*
X-453571Y25490D01*
X-453571Y25490D02*
X-937381Y25490D01*
X997857Y-579271D02*
X272142Y-579271D01*
X634999Y-579271D02*
X634999Y690728D01*
X634999Y690728D02*
X514047Y509300D01*
X514047Y509300D02*
X393095Y388347D01*
X393095Y388347D02*
X272142Y327871D01*
X-967619Y-579271D02*
X-967619Y690728D01*
X-967619Y85966D02*
X-241904Y85966D01*
X-241904Y-579271D02*
X-241904Y690728D01*
X241904Y690728D02*
X1028095Y690728D01*
X1028095Y690728D02*
X604761Y206919D01*
X604761Y206919D02*
X786190Y206919D01*
X786190Y206919D02*
X907142Y146443D01*
X907142Y146443D02*
X967618Y85966D01*
X967618Y85966D02*
X1028095Y-34985D01*
X1028095Y-34985D02*
X1028095Y-337366D01*
X1028095Y-337366D02*
X967618Y-458318D01*
X967618Y-458318D02*
X907142Y-518795D01*
X907142Y-518795D02*
X786190Y-579271D01*
X786190Y-579271D02*
X423333Y-579271D01*
X423333Y-579271D02*
X302380Y-518795D01*
X302380Y-518795D02*
X241904Y-458318D01*
X-967619Y-579271D02*
X-967619Y690728D01*
X-967619Y85966D02*
X-241904Y85966D01*
X-241904Y-579271D02*
X-241904Y690728D01*
X907142Y267395D02*
X907142Y-579271D01*
X604761Y751205D02*
X302380Y-155937D01*
X302380Y-155937D02*
X1088571Y-155937D01*
X-120952Y-700223D02*
X-241904Y-639747D01*
X-241904Y-639747D02*
X-362857Y-518795D01*
X-362857Y-518795D02*
X-544285Y-337366D01*
X-544285Y-337366D02*
X-665238Y-276890D01*
X-665238Y-276890D02*
X-786190Y-276890D01*
X-725714Y-579271D02*
X-846666Y-518795D01*
X-846666Y-518795D02*
X-967619Y-397842D01*
X-967619Y-397842D02*
X-1028095Y-155937D01*
X-1028095Y-155937D02*
X-1028095Y267395D01*
X-1028095Y267395D02*
X-967619Y509300D01*
X-967619Y509300D02*
X-846666Y630252D01*
X-846666Y630252D02*
X-725714Y690728D01*
X-725714Y690728D02*
X-483809Y690728D01*
X-483809Y690728D02*
X-362857Y630252D01*
X-362857Y630252D02*
X-241904Y509300D01*
X-241904Y509300D02*
X-181428Y267395D01*
X-181428Y267395D02*
X-181428Y-155937D01*
X-181428Y-155937D02*
X-241904Y-397842D01*
X-241904Y-397842D02*
X-362857Y-518795D01*
X-362857Y-518795D02*
X-483809Y-579271D01*
X-483809Y-579271D02*
X-725714Y-579271D01*
X1028095Y-579271D02*
X302380Y-579271D01*
X665237Y-579271D02*
X665237Y690728D01*
X665237Y690728D02*
X544285Y509300D01*
X544285Y509300D02*
X423333Y388347D01*
X423333Y388347D02*
X302380Y327871D01*
X-211666Y-579271D02*
X-635000Y25490D01*
X-937381Y-579271D02*
X-937381Y690728D01*
X-937381Y690728D02*
X-453571Y690728D01*
X-453571Y690728D02*
X-332619Y630252D01*
X-332619Y630252D02*
X-272142Y569776D01*
X-272142Y569776D02*
X-211666Y448824D01*
X-211666Y448824D02*
X-211666Y267395D01*
X-211666Y267395D02*
X-272142Y146443D01*
X-272142Y146443D02*
X-332619Y85966D01*
X-332619Y85966D02*
X-453571Y25490D01*
X-453571Y25490D02*
X-937381Y25490D01*
X211666Y690728D02*
X997857Y690728D01*
X997857Y690728D02*
X574523Y206919D01*
X574523Y206919D02*
X755952Y206919D01*
X755952Y206919D02*
X876904Y146443D01*
X876904Y146443D02*
X937380Y85966D01*
X937380Y85966D02*
X997857Y-34985D01*
X997857Y-34985D02*
X997857Y-337366D01*
X997857Y-337366D02*
X937380Y-458318D01*
X937380Y-458318D02*
X876904Y-518795D01*
X876904Y-518795D02*
X755952Y-579271D01*
X755952Y-579271D02*
X393095Y-579271D01*
X393095Y-579271D02*
X272142Y-518795D01*
X272142Y-518795D02*
X211666Y-458318D01*
X-211666Y-458318D02*
X-272142Y-518795D01*
X-272142Y-518795D02*
X-453571Y-579271D01*
X-453571Y-579271D02*
X-574523Y-579271D01*
X-574523Y-579271D02*
X-755952Y-518795D01*
X-755952Y-518795D02*
X-876904Y-397842D01*
X-876904Y-397842D02*
X-937381Y-276890D01*
X-937381Y-276890D02*
X-997857Y-34985D01*
X-997857Y-34985D02*
X-997857Y146443D01*
X-997857Y146443D02*
X-937381Y388347D01*
X-937381Y388347D02*
X-876904Y509300D01*
X-876904Y509300D02*
X-755952Y630252D01*
X-755952Y630252D02*
X-574523Y690728D01*
X-574523Y690728D02*
X-453571Y690728D01*
X-453571Y690728D02*
X-272142Y630252D01*
X-272142Y630252D02*
X-211666Y569776D01*
X997857Y-579271D02*
X272142Y-579271D01*
X634999Y-579271D02*
X634999Y690728D01*
X634999Y690728D02*
X514047Y509300D01*
X514047Y509300D02*
X393095Y388347D01*
X393095Y388347D02*
X272142Y327871D01*
X-937381Y-579271D02*
X-937381Y690728D01*
X-937381Y690728D02*
X-635000Y690728D01*
X-635000Y690728D02*
X-453571Y630252D01*
X-453571Y630252D02*
X-332619Y509300D01*
X-332619Y509300D02*
X-272142Y388347D01*
X-272142Y388347D02*
X-211666Y146443D01*
X-211666Y146443D02*
X-211666Y-34985D01*
X-211666Y-34985D02*
X-272142Y-276890D01*
X-272142Y-276890D02*
X-332619Y-397842D01*
X-332619Y-397842D02*
X-453571Y-518795D01*
X-453571Y-518795D02*
X-635000Y-579271D01*
X-635000Y-579271D02*
X-937381Y-579271D01*
X997857Y-579271D02*
X272142Y-579271D01*
X634999Y-579271D02*
X634999Y690728D01*
X634999Y690728D02*
X514047Y509300D01*
X514047Y509300D02*
X393095Y388347D01*
X393095Y388347D02*
X272142Y327871D01*
X-937381Y-579271D02*
X-937381Y690728D01*
X-937381Y690728D02*
X-635000Y690728D01*
X-635000Y690728D02*
X-453571Y630252D01*
X-453571Y630252D02*
X-332619Y509300D01*
X-332619Y509300D02*
X-272142Y388347D01*
X-272142Y388347D02*
X-211666Y146443D01*
X-211666Y146443D02*
X-211666Y-34985D01*
X-211666Y-34985D02*
X-272142Y-276890D01*
X-272142Y-276890D02*
X-332619Y-397842D01*
X-332619Y-397842D02*
X-453571Y-518795D01*
X-453571Y-518795D02*
X-635000Y-579271D01*
X-635000Y-579271D02*
X-937381Y-579271D01*
X272142Y569776D02*
X332618Y630252D01*
X332618Y630252D02*
X453571Y690728D01*
X453571Y690728D02*
X755952Y690728D01*
X755952Y690728D02*
X876904Y630252D01*
X876904Y630252D02*
X937380Y569776D01*
X937380Y569776D02*
X997857Y448824D01*
X997857Y448824D02*
X997857Y327871D01*
X997857Y327871D02*
X937380Y146443D01*
X937380Y146443D02*
X211666Y-579271D01*
X211666Y-579271D02*
X997857Y-579271D01*
X-211666Y-458318D02*
X-272142Y-518795D01*
X-272142Y-518795D02*
X-453571Y-579271D01*
X-453571Y-579271D02*
X-574523Y-579271D01*
X-574523Y-579271D02*
X-755952Y-518795D01*
X-755952Y-518795D02*
X-876904Y-397842D01*
X-876904Y-397842D02*
X-937381Y-276890D01*
X-937381Y-276890D02*
X-997857Y-34985D01*
X-997857Y-34985D02*
X-997857Y146443D01*
X-997857Y146443D02*
X-937381Y388347D01*
X-937381Y388347D02*
X-876904Y509300D01*
X-876904Y509300D02*
X-755952Y630252D01*
X-755952Y630252D02*
X-574523Y690728D01*
X-574523Y690728D02*
X-453571Y690728D01*
X-453571Y690728D02*
X-272142Y630252D01*
X-272142Y630252D02*
X-211666Y569776D01*
X211666Y690728D02*
X997857Y690728D01*
X997857Y690728D02*
X574523Y206919D01*
X574523Y206919D02*
X755952Y206919D01*
X755952Y206919D02*
X876904Y146443D01*
X876904Y146443D02*
X937380Y85966D01*
X937380Y85966D02*
X997857Y-34985D01*
X997857Y-34985D02*
X997857Y-337366D01*
X997857Y-337366D02*
X937380Y-458318D01*
X937380Y-458318D02*
X876904Y-518795D01*
X876904Y-518795D02*
X755952Y-579271D01*
X755952Y-579271D02*
X393095Y-579271D01*
X393095Y-579271D02*
X272142Y-518795D01*
X272142Y-518795D02*
X211666Y-458318D01*
X-967619Y-579271D02*
X-967619Y690728D01*
X-967619Y85966D02*
X-241904Y85966D01*
X-241904Y-579271D02*
X-241904Y690728D01*
X302380Y569776D02*
X362856Y630252D01*
X362856Y630252D02*
X483809Y690728D01*
X483809Y690728D02*
X786190Y690728D01*
X786190Y690728D02*
X907142Y630252D01*
X907142Y630252D02*
X967618Y569776D01*
X967618Y569776D02*
X1028095Y448824D01*
X1028095Y448824D02*
X1028095Y327871D01*
X1028095Y327871D02*
X967618Y146443D01*
X967618Y146443D02*
X241904Y-579271D01*
X241904Y-579271D02*
X1028095Y-579271D01*
X-967619Y-579271D02*
X-967619Y690728D01*
X-967619Y85966D02*
X-241904Y85966D01*
X-241904Y-579271D02*
X-241904Y690728D01*
X1028095Y-579271D02*
X302380Y-579271D01*
X665237Y-579271D02*
X665237Y690728D01*
X665237Y690728D02*
X544285Y509300D01*
X544285Y509300D02*
X423333Y388347D01*
X423333Y388347D02*
X302380Y327871D01*
X-211666Y-579271D02*
X-635000Y25490D01*
X-937381Y-579271D02*
X-937381Y690728D01*
X-937381Y690728D02*
X-453571Y690728D01*
X-453571Y690728D02*
X-332619Y630252D01*
X-332619Y630252D02*
X-272142Y569776D01*
X-272142Y569776D02*
X-211666Y448824D01*
X-211666Y448824D02*
X-211666Y267395D01*
X-211666Y267395D02*
X-272142Y146443D01*
X-272142Y146443D02*
X-332619Y85966D01*
X-332619Y85966D02*
X-453571Y25490D01*
X-453571Y25490D02*
X-937381Y25490D01*
X876904Y690728D02*
X634999Y690728D01*
X634999Y690728D02*
X514047Y630252D01*
X514047Y630252D02*
X453571Y569776D01*
X453571Y569776D02*
X332618Y388347D01*
X332618Y388347D02*
X272142Y146443D01*
X272142Y146443D02*
X272142Y-337366D01*
X272142Y-337366D02*
X332618Y-458318D01*
X332618Y-458318D02*
X393095Y-518795D01*
X393095Y-518795D02*
X514047Y-579271D01*
X514047Y-579271D02*
X755952Y-579271D01*
X755952Y-579271D02*
X876904Y-518795D01*
X876904Y-518795D02*
X937380Y-458318D01*
X937380Y-458318D02*
X997857Y-337366D01*
X997857Y-337366D02*
X997857Y-34985D01*
X997857Y-34985D02*
X937380Y85966D01*
X937380Y85966D02*
X876904Y146443D01*
X876904Y146443D02*
X755952Y206919D01*
X755952Y206919D02*
X514047Y206919D01*
X514047Y206919D02*
X393095Y146443D01*
X393095Y146443D02*
X332618Y85966D01*
X332618Y85966D02*
X272142Y-34985D01*
X-967619Y690728D02*
X-967619Y-337366D01*
X-967619Y-337366D02*
X-907142Y-458318D01*
X-907142Y-458318D02*
X-846666Y-518795D01*
X-846666Y-518795D02*
X-725714Y-579271D01*
X-725714Y-579271D02*
X-483809Y-579271D01*
X-483809Y-579271D02*
X-362857Y-518795D01*
X-362857Y-518795D02*
X-302380Y-458318D01*
X-302380Y-458318D02*
X-241904Y-337366D01*
X-241904Y-337366D02*
X-241904Y690728D01*
X1028095Y-579271D02*
X302380Y-579271D01*
X665237Y-579271D02*
X665237Y690728D01*
X665237Y690728D02*
X544285Y509300D01*
X544285Y509300D02*
X423333Y388347D01*
X423333Y388347D02*
X302380Y327871D01*
X-937381Y-579271D02*
X-937381Y690728D01*
X-937381Y690728D02*
X-635000Y690728D01*
X-635000Y690728D02*
X-453571Y630252D01*
X-453571Y630252D02*
X-332619Y509300D01*
X-332619Y509300D02*
X-272142Y388347D01*
X-272142Y388347D02*
X-211666Y146443D01*
X-211666Y146443D02*
X-211666Y-34985D01*
X-211666Y-34985D02*
X-272142Y-276890D01*
X-272142Y-276890D02*
X-332619Y-397842D01*
X-332619Y-397842D02*
X-453571Y-518795D01*
X-453571Y-518795D02*
X-635000Y-579271D01*
X-635000Y-579271D02*
X-937381Y-579271D01*
X876904Y267395D02*
X876904Y-579271D01*
X574523Y751205D02*
X272142Y-155937D01*
X272142Y-155937D02*
X1058333Y-155937D01*
X-937381Y-579271D02*
X-937381Y690728D01*
X-937381Y690728D02*
X-635000Y690728D01*
X-635000Y690728D02*
X-453571Y630252D01*
X-453571Y630252D02*
X-332619Y509300D01*
X-332619Y509300D02*
X-272142Y388347D01*
X-272142Y388347D02*
X-211666Y146443D01*
X-211666Y146443D02*
X-211666Y-34985D01*
X-211666Y-34985D02*
X-272142Y-276890D01*
X-272142Y-276890D02*
X-332619Y-397842D01*
X-332619Y-397842D02*
X-453571Y-518795D01*
X-453571Y-518795D02*
X-635000Y-579271D01*
X-635000Y-579271D02*
X-937381Y-579271D01*
X211666Y690728D02*
X997857Y690728D01*
X997857Y690728D02*
X574523Y206919D01*
X574523Y206919D02*
X755952Y206919D01*
X755952Y206919D02*
X876904Y146443D01*
X876904Y146443D02*
X937380Y85966D01*
X937380Y85966D02*
X997857Y-34985D01*
X997857Y-34985D02*
X997857Y-337366D01*
X997857Y-337366D02*
X937380Y-458318D01*
X937380Y-458318D02*
X876904Y-518795D01*
X876904Y-518795D02*
X755952Y-579271D01*
X755952Y-579271D02*
X393095Y-579271D01*
X393095Y-579271D02*
X272142Y-518795D01*
X272142Y-518795D02*
X211666Y-458318D01*
X-967619Y690728D02*
X-967619Y-337366D01*
X-967619Y-337366D02*
X-907142Y-458318D01*
X-907142Y-458318D02*
X-846666Y-518795D01*
X-846666Y-518795D02*
X-725714Y-579271D01*
X-725714Y-579271D02*
X-483809Y-579271D01*
X-483809Y-579271D02*
X-362857Y-518795D01*
X-362857Y-518795D02*
X-302380Y-458318D01*
X-302380Y-458318D02*
X-241904Y-337366D01*
X-241904Y-337366D02*
X-241904Y690728D01*
X302380Y569776D02*
X362856Y630252D01*
X362856Y630252D02*
X483809Y690728D01*
X483809Y690728D02*
X786190Y690728D01*
X786190Y690728D02*
X907142Y630252D01*
X907142Y630252D02*
X967618Y569776D01*
X967618Y569776D02*
X1028095Y448824D01*
X1028095Y448824D02*
X1028095Y327871D01*
X1028095Y327871D02*
X967618Y146443D01*
X967618Y146443D02*
X241904Y-579271D01*
X241904Y-579271D02*
X1028095Y-579271D01*
X-211666Y-579271D02*
X-635000Y25490D01*
X-937381Y-579271D02*
X-937381Y690728D01*
X-937381Y690728D02*
X-453571Y690728D01*
X-453571Y690728D02*
X-332619Y630252D01*
X-332619Y630252D02*
X-272142Y569776D01*
X-272142Y569776D02*
X-211666Y448824D01*
X-211666Y448824D02*
X-211666Y267395D01*
X-211666Y267395D02*
X-272142Y146443D01*
X-272142Y146443D02*
X-332619Y85966D01*
X-332619Y85966D02*
X-453571Y25490D01*
X-453571Y25490D02*
X-937381Y25490D01*
X937380Y690728D02*
X332618Y690728D01*
X332618Y690728D02*
X272142Y85966D01*
X272142Y85966D02*
X332618Y146443D01*
X332618Y146443D02*
X453571Y206919D01*
X453571Y206919D02*
X755952Y206919D01*
X755952Y206919D02*
X876904Y146443D01*
X876904Y146443D02*
X937380Y85966D01*
X937380Y85966D02*
X997857Y-34985D01*
X997857Y-34985D02*
X997857Y-337366D01*
X997857Y-337366D02*
X937380Y-458318D01*
X937380Y-458318D02*
X876904Y-518795D01*
X876904Y-518795D02*
X755952Y-579271D01*
X755952Y-579271D02*
X453571Y-579271D01*
X453571Y-579271D02*
X332618Y-518795D01*
X332618Y-518795D02*
X272142Y-458318D01*
X-211666Y-458318D02*
X-272142Y-518795D01*
X-272142Y-518795D02*
X-453571Y-579271D01*
X-453571Y-579271D02*
X-574523Y-579271D01*
X-574523Y-579271D02*
X-755952Y-518795D01*
X-755952Y-518795D02*
X-876904Y-397842D01*
X-876904Y-397842D02*
X-937381Y-276890D01*
X-937381Y-276890D02*
X-997857Y-34985D01*
X-997857Y-34985D02*
X-997857Y146443D01*
X-997857Y146443D02*
X-937381Y388347D01*
X-937381Y388347D02*
X-876904Y509300D01*
X-876904Y509300D02*
X-755952Y630252D01*
X-755952Y630252D02*
X-574523Y690728D01*
X-574523Y690728D02*
X-453571Y690728D01*
X-453571Y690728D02*
X-272142Y630252D01*
X-272142Y630252D02*
X-211666Y569776D01*
X272142Y569776D02*
X332618Y630252D01*
X332618Y630252D02*
X453571Y690728D01*
X453571Y690728D02*
X755952Y690728D01*
X755952Y690728D02*
X876904Y630252D01*
X876904Y630252D02*
X937380Y569776D01*
X937380Y569776D02*
X997857Y448824D01*
X997857Y448824D02*
X997857Y327871D01*
X997857Y327871D02*
X937380Y146443D01*
X937380Y146443D02*
X211666Y-579271D01*
X211666Y-579271D02*
X997857Y-579271D01*
X-211666Y-579271D02*
X-635000Y25490D01*
X-937381Y-579271D02*
X-937381Y690728D01*
X-937381Y690728D02*
X-453571Y690728D01*
X-453571Y690728D02*
X-332619Y630252D01*
X-332619Y630252D02*
X-272142Y569776D01*
X-272142Y569776D02*
X-211666Y448824D01*
X-211666Y448824D02*
X-211666Y267395D01*
X-211666Y267395D02*
X-272142Y146443D01*
X-272142Y146443D02*
X-332619Y85966D01*
X-332619Y85966D02*
X-453571Y25490D01*
X-453571Y25490D02*
X-937381Y25490D01*
X272142Y569776D02*
X332618Y630252D01*
X332618Y630252D02*
X453571Y690728D01*
X453571Y690728D02*
X755952Y690728D01*
X755952Y690728D02*
X876904Y630252D01*
X876904Y630252D02*
X937380Y569776D01*
X937380Y569776D02*
X997857Y448824D01*
X997857Y448824D02*
X997857Y327871D01*
X997857Y327871D02*
X937380Y146443D01*
X937380Y146443D02*
X211666Y-579271D01*
X211666Y-579271D02*
X997857Y-579271D01*
M02*
