%TF.GenerationSoftware,KiCad,Pcbnew,10.0.5-10.0.5~ubuntu26.04.1*%
%TF.CreationDate,2026-08-13T19:38:53-07:00*%
%TF.ProjectId,marker-lamp-controller-rev-b,6d61726b-6572-42d6-9c61-6d702d636f6e,rev?*%
%TF.SameCoordinates,Original*%
%TF.FileFunction,Copper,L2,Bot*%
%TF.FilePolarity,Positive*%
%FSLAX46Y46*%
G04 Gerber Fmt 4.6, Leading zero omitted, Abs format (unit mm)*
G04 Created by KiCad (PCBNEW 10.0.5-10.0.5~ubuntu26.04.1) date 2026-08-13 19:38:53*
%MOMM*%
%LPD*%
G01*
G04 APERTURE LIST*
%TA.AperFunction,ComponentPad*%
%ADD10R,3.200000X3.200000*%
%TD*%
%TA.AperFunction,ComponentPad*%
%ADD11C,3.200000*%
%TD*%
%TA.AperFunction,WasherPad*%
%ADD12C,6.000000*%
%TD*%
%TA.AperFunction,ViaPad*%
%ADD13C,0.800000*%
%TD*%
%TA.AperFunction,Conductor*%
%ADD14C,1.200000*%
%TD*%
G04 APERTURE END LIST*
D10*
%TO.P,J1,1*%
%TO.N,SENSE*%
X7000000Y-17000000D03*
D11*
%TO.P,J1,2*%
%TO.N,VPRE*%
X7000000Y-22080000D03*
%TO.P,J1,3*%
%TO.N,LAMP_OUT*%
X7000000Y-27160000D03*
%TO.P,J1,4*%
%TO.N,GND*%
X7000000Y-32240000D03*
%TD*%
D12*
%TO.P,H3,*%
%TO.N,*%
X77000000Y-42000000D03*
%TD*%
%TO.P,H1,*%
%TO.N,*%
X5000000Y-5000000D03*
%TD*%
%TO.P,H4,*%
%TO.N,*%
X5000000Y-42000000D03*
%TD*%
%TO.P,H2,*%
%TO.N,*%
X77000000Y-5000000D03*
%TD*%
D13*
%TO.N,GND*%
X65500000Y-23000000D03*
X21100000Y-15500000D03*
X54100000Y-20000000D03*
X63600000Y-16500000D03*
X32400000Y-26000000D03*
X23900000Y-26000000D03*
X39950000Y-26500000D03*
X27500000Y-14500000D03*
X36500000Y-14500000D03*
%TO.N,VPWR*%
X47600000Y-31000000D03*
X30100000Y-31000000D03*
X73000000Y-31000000D03*
X20000000Y-31000000D03*
X35600000Y-31000000D03*
X46050000Y-31000000D03*
%TO.N,LAMP_OUT*%
X68000000Y-20635000D03*
%TD*%
%TO.N,VPWR*%
D14*
X20000000Y-31000000D02*
X73000000Y-31000000D01*
%TO.N,LAMP_OUT*%
X12000000Y-28000000D02*
X68000000Y-28000000D01*
X68000000Y-20635000D02*
X68000000Y-28000000D01*
X7000000Y-27160000D02*
X12000000Y-27160000D01*
X12000000Y-27160000D02*
X12000000Y-28000000D01*
%TD*%
%TA.AperFunction,Conductor*%
%TO.N,GND*%
G36*
X75744942Y-1520185D02*
G01*
X75790697Y-1572989D01*
X75800641Y-1642147D01*
X75771616Y-1705703D01*
X75725356Y-1739060D01*
X75607738Y-1787779D01*
X75501535Y-1831770D01*
X75501530Y-1831772D01*
X75198224Y-1993893D01*
X75198206Y-1993904D01*
X74912248Y-2184975D01*
X74912234Y-2184985D01*
X74646367Y-2403176D01*
X74403176Y-2646367D01*
X74184985Y-2912234D01*
X74184975Y-2912248D01*
X73993904Y-3198206D01*
X73993893Y-3198224D01*
X73831772Y-3501530D01*
X73831770Y-3501535D01*
X73700150Y-3819293D01*
X73600308Y-4148427D01*
X73533210Y-4485750D01*
X73499500Y-4828034D01*
X73499500Y-5171965D01*
X73533210Y-5514249D01*
X73600308Y-5851572D01*
X73700150Y-6180706D01*
X73831770Y-6498464D01*
X73831772Y-6498469D01*
X73993893Y-6801775D01*
X73993904Y-6801793D01*
X74184975Y-7087751D01*
X74184985Y-7087765D01*
X74403176Y-7353632D01*
X74646367Y-7596823D01*
X74646372Y-7596827D01*
X74646373Y-7596828D01*
X74912240Y-7815019D01*
X75198213Y-8006100D01*
X75198222Y-8006105D01*
X75198224Y-8006106D01*
X75501530Y-8168227D01*
X75501532Y-8168227D01*
X75501538Y-8168231D01*
X75819295Y-8299850D01*
X76148422Y-8399690D01*
X76485750Y-8466789D01*
X76828031Y-8500500D01*
X76828034Y-8500500D01*
X77171966Y-8500500D01*
X77171969Y-8500500D01*
X77514250Y-8466789D01*
X77851578Y-8399690D01*
X78180705Y-8299850D01*
X78498462Y-8168231D01*
X78801787Y-8006100D01*
X79087760Y-7815019D01*
X79353627Y-7596828D01*
X79596828Y-7353627D01*
X79815019Y-7087760D01*
X80006100Y-6801787D01*
X80168231Y-6498462D01*
X80260939Y-6274643D01*
X80304780Y-6220241D01*
X80371074Y-6198176D01*
X80438773Y-6215455D01*
X80486384Y-6266592D01*
X80499500Y-6322097D01*
X80499500Y-40677902D01*
X80479815Y-40744941D01*
X80427011Y-40790696D01*
X80357853Y-40800640D01*
X80294297Y-40771615D01*
X80260939Y-40725355D01*
X80241283Y-40677902D01*
X80168231Y-40501538D01*
X80006100Y-40198213D01*
X79815019Y-39912240D01*
X79596828Y-39646373D01*
X79596827Y-39646372D01*
X79596823Y-39646367D01*
X79353632Y-39403176D01*
X79087765Y-39184985D01*
X79087764Y-39184984D01*
X79087760Y-39184981D01*
X78801787Y-38993900D01*
X78801782Y-38993897D01*
X78801775Y-38993893D01*
X78498469Y-38831772D01*
X78498464Y-38831770D01*
X78180706Y-38700150D01*
X77851572Y-38600308D01*
X77514248Y-38533210D01*
X77514249Y-38533210D01*
X77256456Y-38507821D01*
X77171969Y-38499500D01*
X76828031Y-38499500D01*
X76749966Y-38507188D01*
X76485750Y-38533210D01*
X76148427Y-38600308D01*
X75819293Y-38700150D01*
X75501535Y-38831770D01*
X75501530Y-38831772D01*
X75198224Y-38993893D01*
X75198206Y-38993904D01*
X74912248Y-39184975D01*
X74912234Y-39184985D01*
X74646367Y-39403176D01*
X74403176Y-39646367D01*
X74184985Y-39912234D01*
X74184975Y-39912248D01*
X73993904Y-40198206D01*
X73993893Y-40198224D01*
X73831772Y-40501530D01*
X73831770Y-40501535D01*
X73700150Y-40819293D01*
X73600308Y-41148427D01*
X73533210Y-41485750D01*
X73499500Y-41828034D01*
X73499500Y-42171965D01*
X73533210Y-42514249D01*
X73600308Y-42851572D01*
X73700150Y-43180706D01*
X73831770Y-43498464D01*
X73831772Y-43498469D01*
X73993893Y-43801775D01*
X73993904Y-43801793D01*
X74184975Y-44087751D01*
X74184985Y-44087765D01*
X74403176Y-44353632D01*
X74646367Y-44596823D01*
X74646372Y-44596827D01*
X74646373Y-44596828D01*
X74912240Y-44815019D01*
X75198213Y-45006100D01*
X75198222Y-45006105D01*
X75198224Y-45006106D01*
X75501530Y-45168227D01*
X75501532Y-45168227D01*
X75501538Y-45168231D01*
X75725356Y-45260939D01*
X75779759Y-45304780D01*
X75801824Y-45371074D01*
X75784545Y-45438773D01*
X75733408Y-45486384D01*
X75677903Y-45499500D01*
X6322097Y-45499500D01*
X6255058Y-45479815D01*
X6209303Y-45427011D01*
X6199359Y-45357853D01*
X6228384Y-45294297D01*
X6274643Y-45260939D01*
X6498462Y-45168231D01*
X6801787Y-45006100D01*
X7087760Y-44815019D01*
X7353627Y-44596828D01*
X7596828Y-44353627D01*
X7815019Y-44087760D01*
X8006100Y-43801787D01*
X8168231Y-43498462D01*
X8299850Y-43180705D01*
X8399690Y-42851578D01*
X8466789Y-42514250D01*
X8500500Y-42171969D01*
X8500500Y-41828031D01*
X8466789Y-41485750D01*
X8399690Y-41148422D01*
X8299850Y-40819295D01*
X8168231Y-40501538D01*
X8006100Y-40198213D01*
X7815019Y-39912240D01*
X7596828Y-39646373D01*
X7596827Y-39646372D01*
X7596823Y-39646367D01*
X7353632Y-39403176D01*
X7087765Y-39184985D01*
X7087764Y-39184984D01*
X7087760Y-39184981D01*
X6801787Y-38993900D01*
X6801782Y-38993897D01*
X6801775Y-38993893D01*
X6498469Y-38831772D01*
X6498464Y-38831770D01*
X6180706Y-38700150D01*
X5851572Y-38600308D01*
X5514248Y-38533210D01*
X5514249Y-38533210D01*
X5256456Y-38507821D01*
X5171969Y-38499500D01*
X4828031Y-38499500D01*
X4749966Y-38507188D01*
X4485750Y-38533210D01*
X4148427Y-38600308D01*
X3819293Y-38700150D01*
X3501535Y-38831770D01*
X3501530Y-38831772D01*
X3198224Y-38993893D01*
X3198206Y-38993904D01*
X2912248Y-39184975D01*
X2912234Y-39184985D01*
X2646367Y-39403176D01*
X2403176Y-39646367D01*
X2184985Y-39912234D01*
X2184975Y-39912248D01*
X1993904Y-40198206D01*
X1993893Y-40198224D01*
X1831772Y-40501530D01*
X1831770Y-40501535D01*
X1739061Y-40725355D01*
X1695220Y-40779758D01*
X1628926Y-40801823D01*
X1561226Y-40784544D01*
X1513616Y-40733406D01*
X1500500Y-40677902D01*
X1500500Y-32102358D01*
X4900000Y-32102358D01*
X4900000Y-32377641D01*
X4935930Y-32650565D01*
X5007180Y-32916471D01*
X5112520Y-33170787D01*
X5112527Y-33170802D01*
X5250163Y-33409196D01*
X5348758Y-33537686D01*
X6360689Y-32525755D01*
X6379668Y-32571574D01*
X6456274Y-32686224D01*
X6553776Y-32783726D01*
X6668426Y-32860332D01*
X6714243Y-32879310D01*
X5702312Y-33891240D01*
X5830804Y-33989836D01*
X6069197Y-34127472D01*
X6069212Y-34127479D01*
X6323528Y-34232819D01*
X6589434Y-34304069D01*
X6862358Y-34340000D01*
X7137642Y-34340000D01*
X7410565Y-34304069D01*
X7676471Y-34232819D01*
X7930787Y-34127479D01*
X7930802Y-34127472D01*
X8169194Y-33989836D01*
X8169211Y-33989825D01*
X8297686Y-33891241D01*
X8297686Y-33891239D01*
X7285756Y-32879310D01*
X7331574Y-32860332D01*
X7446224Y-32783726D01*
X7543726Y-32686224D01*
X7620332Y-32571574D01*
X7639310Y-32525756D01*
X8651239Y-33537686D01*
X8651241Y-33537686D01*
X8749825Y-33409211D01*
X8749836Y-33409194D01*
X8887472Y-33170802D01*
X8887479Y-33170787D01*
X8992819Y-32916471D01*
X9064069Y-32650565D01*
X9100000Y-32377641D01*
X9100000Y-32102358D01*
X9064069Y-31829434D01*
X8992819Y-31563528D01*
X8887479Y-31309212D01*
X8887472Y-31309197D01*
X8749836Y-31070803D01*
X8683232Y-30984004D01*
X8651240Y-30942312D01*
X7639309Y-31954242D01*
X7620332Y-31908426D01*
X7543726Y-31793776D01*
X7446224Y-31696274D01*
X7331574Y-31619668D01*
X7285756Y-31600689D01*
X7973055Y-30913389D01*
X18899500Y-30913389D01*
X18899500Y-31086611D01*
X18926598Y-31257701D01*
X18980127Y-31422445D01*
X19058768Y-31576788D01*
X19160586Y-31716928D01*
X19283072Y-31839414D01*
X19423212Y-31941232D01*
X19577555Y-32019873D01*
X19742299Y-32073402D01*
X19913389Y-32100500D01*
X19913390Y-32100500D01*
X73086610Y-32100500D01*
X73086611Y-32100500D01*
X73257701Y-32073402D01*
X73422445Y-32019873D01*
X73576788Y-31941232D01*
X73716928Y-31839414D01*
X73839414Y-31716928D01*
X73941232Y-31576788D01*
X74019873Y-31422445D01*
X74073402Y-31257701D01*
X74100500Y-31086611D01*
X74100500Y-30913389D01*
X74073402Y-30742299D01*
X74019873Y-30577555D01*
X73941232Y-30423212D01*
X73839414Y-30283072D01*
X73716928Y-30160586D01*
X73576788Y-30058768D01*
X73422445Y-29980127D01*
X73257701Y-29926598D01*
X73257699Y-29926597D01*
X73257698Y-29926597D01*
X73126271Y-29905781D01*
X73086611Y-29899500D01*
X19913389Y-29899500D01*
X19873728Y-29905781D01*
X19742302Y-29926597D01*
X19577552Y-29980128D01*
X19423211Y-30058768D01*
X19343256Y-30116859D01*
X19283072Y-30160586D01*
X19283070Y-30160588D01*
X19283069Y-30160588D01*
X19160588Y-30283069D01*
X19160588Y-30283070D01*
X19160586Y-30283072D01*
X19116859Y-30343256D01*
X19058768Y-30423211D01*
X18980128Y-30577552D01*
X18926597Y-30742302D01*
X18899500Y-30913389D01*
X7973055Y-30913389D01*
X8297686Y-30588758D01*
X8169196Y-30490163D01*
X7930802Y-30352527D01*
X7930787Y-30352520D01*
X7676471Y-30247180D01*
X7410565Y-30175930D01*
X7137642Y-30140000D01*
X6862358Y-30140000D01*
X6589434Y-30175930D01*
X6323528Y-30247180D01*
X6069212Y-30352520D01*
X6069197Y-30352527D01*
X5830799Y-30490166D01*
X5702312Y-30588757D01*
X5702312Y-30588758D01*
X6714243Y-31600689D01*
X6668426Y-31619668D01*
X6553776Y-31696274D01*
X6456274Y-31793776D01*
X6379668Y-31908426D01*
X6360689Y-31954243D01*
X5348758Y-30942312D01*
X5348757Y-30942312D01*
X5250166Y-31070799D01*
X5112527Y-31309197D01*
X5112520Y-31309212D01*
X5007180Y-31563528D01*
X4935930Y-31829434D01*
X4900000Y-32102358D01*
X1500500Y-32102358D01*
X1500500Y-27022332D01*
X4899500Y-27022332D01*
X4899500Y-27297667D01*
X4899501Y-27297684D01*
X4935438Y-27570655D01*
X4935439Y-27570660D01*
X4935440Y-27570666D01*
X4935441Y-27570668D01*
X5006704Y-27836630D01*
X5112075Y-28091017D01*
X5112080Y-28091028D01*
X5194861Y-28234407D01*
X5249751Y-28329479D01*
X5249753Y-28329482D01*
X5249754Y-28329483D01*
X5417370Y-28547926D01*
X5417376Y-28547933D01*
X5612066Y-28742623D01*
X5612072Y-28742628D01*
X5830521Y-28910249D01*
X5983778Y-28998732D01*
X6068971Y-29047919D01*
X6068976Y-29047921D01*
X6068979Y-29047923D01*
X6323368Y-29153295D01*
X6589334Y-29224560D01*
X6862326Y-29260500D01*
X6862333Y-29260500D01*
X7137667Y-29260500D01*
X7137674Y-29260500D01*
X7410666Y-29224560D01*
X7676632Y-29153295D01*
X7931021Y-29047923D01*
X8169479Y-28910249D01*
X8387928Y-28742628D01*
X8582628Y-28547928D01*
X8750249Y-28329479D01*
X8752365Y-28325813D01*
X8754280Y-28322498D01*
X8804848Y-28274283D01*
X8861666Y-28260500D01*
X10837416Y-28260500D01*
X10904455Y-28280185D01*
X10950210Y-28332989D01*
X10955347Y-28346181D01*
X10980128Y-28422449D01*
X11044062Y-28547926D01*
X11058768Y-28576788D01*
X11160586Y-28716928D01*
X11283072Y-28839414D01*
X11423212Y-28941232D01*
X11577555Y-29019873D01*
X11742299Y-29073402D01*
X11913389Y-29100500D01*
X11913390Y-29100500D01*
X68086610Y-29100500D01*
X68086611Y-29100500D01*
X68257701Y-29073402D01*
X68422445Y-29019873D01*
X68576788Y-28941232D01*
X68716928Y-28839414D01*
X68839414Y-28716928D01*
X68941232Y-28576788D01*
X69019873Y-28422445D01*
X69073402Y-28257701D01*
X69100500Y-28086611D01*
X69100500Y-20548389D01*
X69073402Y-20377299D01*
X69019873Y-20212555D01*
X68941232Y-20058212D01*
X68839414Y-19918072D01*
X68716928Y-19795586D01*
X68576788Y-19693768D01*
X68422445Y-19615127D01*
X68257701Y-19561598D01*
X68257699Y-19561597D01*
X68257698Y-19561597D01*
X68126271Y-19540781D01*
X68086611Y-19534500D01*
X67913389Y-19534500D01*
X67873728Y-19540781D01*
X67742302Y-19561597D01*
X67577552Y-19615128D01*
X67423211Y-19693768D01*
X67343256Y-19751859D01*
X67283072Y-19795586D01*
X67283070Y-19795588D01*
X67283069Y-19795588D01*
X67160588Y-19918069D01*
X67160588Y-19918070D01*
X67160586Y-19918072D01*
X67116859Y-19978256D01*
X67058768Y-20058211D01*
X66980128Y-20212552D01*
X66926597Y-20377302D01*
X66899500Y-20548389D01*
X66899500Y-26775500D01*
X66879815Y-26842539D01*
X66827011Y-26888294D01*
X66775500Y-26899500D01*
X13162584Y-26899500D01*
X13095545Y-26879815D01*
X13049790Y-26827011D01*
X13044653Y-26813819D01*
X13032202Y-26775500D01*
X13019873Y-26737555D01*
X13019871Y-26737552D01*
X13019871Y-26737550D01*
X12941231Y-26583211D01*
X12839414Y-26443072D01*
X12716928Y-26320586D01*
X12576788Y-26218768D01*
X12422445Y-26140127D01*
X12257701Y-26086598D01*
X12257699Y-26086597D01*
X12257698Y-26086597D01*
X12126271Y-26065781D01*
X12086611Y-26059500D01*
X12086610Y-26059500D01*
X8861666Y-26059500D01*
X8794627Y-26039815D01*
X8754280Y-25997502D01*
X8750249Y-25990521D01*
X8582629Y-25772073D01*
X8582623Y-25772066D01*
X8387933Y-25577376D01*
X8387926Y-25577370D01*
X8169483Y-25409754D01*
X8169482Y-25409753D01*
X8169479Y-25409751D01*
X8074407Y-25354861D01*
X7931028Y-25272080D01*
X7931017Y-25272075D01*
X7676630Y-25166704D01*
X7543649Y-25131072D01*
X7410666Y-25095440D01*
X7410660Y-25095439D01*
X7410655Y-25095438D01*
X7137684Y-25059501D01*
X7137679Y-25059500D01*
X7137674Y-25059500D01*
X6862326Y-25059500D01*
X6862320Y-25059500D01*
X6862315Y-25059501D01*
X6589344Y-25095438D01*
X6589337Y-25095439D01*
X6589334Y-25095440D01*
X6533125Y-25110500D01*
X6323369Y-25166704D01*
X6068982Y-25272075D01*
X6068971Y-25272080D01*
X5830516Y-25409754D01*
X5612073Y-25577370D01*
X5612066Y-25577376D01*
X5417376Y-25772066D01*
X5417370Y-25772073D01*
X5249754Y-25990516D01*
X5112080Y-26228971D01*
X5112075Y-26228982D01*
X5006704Y-26483369D01*
X4979952Y-26583211D01*
X4938598Y-26737550D01*
X4935441Y-26749331D01*
X4935438Y-26749344D01*
X4899501Y-27022315D01*
X4899500Y-27022332D01*
X1500500Y-27022332D01*
X1500500Y-21942332D01*
X4899500Y-21942332D01*
X4899500Y-22217667D01*
X4899501Y-22217684D01*
X4935438Y-22490655D01*
X4935439Y-22490660D01*
X4935440Y-22490666D01*
X4935441Y-22490668D01*
X5006704Y-22756630D01*
X5112075Y-23011017D01*
X5112080Y-23011028D01*
X5194861Y-23154407D01*
X5249751Y-23249479D01*
X5249753Y-23249482D01*
X5249754Y-23249483D01*
X5417370Y-23467926D01*
X5417376Y-23467933D01*
X5612066Y-23662623D01*
X5612072Y-23662628D01*
X5830521Y-23830249D01*
X5983778Y-23918732D01*
X6068971Y-23967919D01*
X6068976Y-23967921D01*
X6068979Y-23967923D01*
X6323368Y-24073295D01*
X6589334Y-24144560D01*
X6862326Y-24180500D01*
X6862333Y-24180500D01*
X7137667Y-24180500D01*
X7137674Y-24180500D01*
X7410666Y-24144560D01*
X7676632Y-24073295D01*
X7931021Y-23967923D01*
X8169479Y-23830249D01*
X8387928Y-23662628D01*
X8582628Y-23467928D01*
X8750249Y-23249479D01*
X8887923Y-23011021D01*
X8993295Y-22756632D01*
X9064560Y-22490666D01*
X9100500Y-22217674D01*
X9100500Y-21942326D01*
X9064560Y-21669334D01*
X8993295Y-21403368D01*
X8887923Y-21148979D01*
X8887921Y-21148976D01*
X8887919Y-21148971D01*
X8838732Y-21063778D01*
X8750249Y-20910521D01*
X8582628Y-20692072D01*
X8582623Y-20692066D01*
X8387933Y-20497376D01*
X8387926Y-20497370D01*
X8169483Y-20329754D01*
X8169482Y-20329753D01*
X8169479Y-20329751D01*
X8074407Y-20274861D01*
X7931028Y-20192080D01*
X7931017Y-20192075D01*
X7676630Y-20086704D01*
X7543649Y-20051072D01*
X7410666Y-20015440D01*
X7410660Y-20015439D01*
X7410655Y-20015438D01*
X7137684Y-19979501D01*
X7137679Y-19979500D01*
X7137674Y-19979500D01*
X6862326Y-19979500D01*
X6862320Y-19979500D01*
X6862315Y-19979501D01*
X6589344Y-20015438D01*
X6589337Y-20015439D01*
X6589334Y-20015440D01*
X6533125Y-20030500D01*
X6323369Y-20086704D01*
X6068982Y-20192075D01*
X6068971Y-20192080D01*
X5830516Y-20329754D01*
X5612073Y-20497370D01*
X5612066Y-20497376D01*
X5417376Y-20692066D01*
X5417370Y-20692073D01*
X5249754Y-20910516D01*
X5112080Y-21148971D01*
X5112075Y-21148982D01*
X5006704Y-21403369D01*
X4935441Y-21669331D01*
X4935438Y-21669344D01*
X4899501Y-21942315D01*
X4899500Y-21942332D01*
X1500500Y-21942332D01*
X1500500Y-15352135D01*
X4899500Y-15352135D01*
X4899500Y-18647870D01*
X4899501Y-18647876D01*
X4905908Y-18707483D01*
X4956202Y-18842328D01*
X4956206Y-18842335D01*
X5042452Y-18957544D01*
X5042455Y-18957547D01*
X5157664Y-19043793D01*
X5157671Y-19043797D01*
X5292517Y-19094091D01*
X5292516Y-19094091D01*
X5299444Y-19094835D01*
X5352127Y-19100500D01*
X8647872Y-19100499D01*
X8707483Y-19094091D01*
X8842331Y-19043796D01*
X8957546Y-18957546D01*
X9043796Y-18842331D01*
X9094091Y-18707483D01*
X9100500Y-18647873D01*
X9100499Y-15352128D01*
X9094091Y-15292517D01*
X9043796Y-15157669D01*
X9043795Y-15157668D01*
X9043793Y-15157664D01*
X8957547Y-15042455D01*
X8957544Y-15042452D01*
X8842335Y-14956206D01*
X8842328Y-14956202D01*
X8707482Y-14905908D01*
X8707483Y-14905908D01*
X8647883Y-14899501D01*
X8647881Y-14899500D01*
X8647873Y-14899500D01*
X8647864Y-14899500D01*
X5352129Y-14899500D01*
X5352123Y-14899501D01*
X5292516Y-14905908D01*
X5157671Y-14956202D01*
X5157664Y-14956206D01*
X5042455Y-15042452D01*
X5042452Y-15042455D01*
X4956206Y-15157664D01*
X4956202Y-15157671D01*
X4905908Y-15292517D01*
X4899501Y-15352116D01*
X4899501Y-15352123D01*
X4899500Y-15352135D01*
X1500500Y-15352135D01*
X1500500Y-6322097D01*
X1520185Y-6255058D01*
X1572989Y-6209303D01*
X1642147Y-6199359D01*
X1705703Y-6228384D01*
X1739060Y-6274643D01*
X1831769Y-6498462D01*
X1831770Y-6498464D01*
X1831772Y-6498469D01*
X1993893Y-6801775D01*
X1993904Y-6801793D01*
X2184975Y-7087751D01*
X2184985Y-7087765D01*
X2403176Y-7353632D01*
X2646367Y-7596823D01*
X2646372Y-7596827D01*
X2646373Y-7596828D01*
X2912240Y-7815019D01*
X3198213Y-8006100D01*
X3198222Y-8006105D01*
X3198224Y-8006106D01*
X3501530Y-8168227D01*
X3501532Y-8168227D01*
X3501538Y-8168231D01*
X3819295Y-8299850D01*
X4148422Y-8399690D01*
X4485750Y-8466789D01*
X4828031Y-8500500D01*
X4828034Y-8500500D01*
X5171966Y-8500500D01*
X5171969Y-8500500D01*
X5514250Y-8466789D01*
X5851578Y-8399690D01*
X6180705Y-8299850D01*
X6498462Y-8168231D01*
X6801787Y-8006100D01*
X7087760Y-7815019D01*
X7353627Y-7596828D01*
X7596828Y-7353627D01*
X7815019Y-7087760D01*
X8006100Y-6801787D01*
X8168231Y-6498462D01*
X8299850Y-6180705D01*
X8399690Y-5851578D01*
X8466789Y-5514250D01*
X8500500Y-5171969D01*
X8500500Y-4828031D01*
X8466789Y-4485750D01*
X8399690Y-4148422D01*
X8299850Y-3819295D01*
X8168231Y-3501538D01*
X8006100Y-3198213D01*
X7815019Y-2912240D01*
X7596828Y-2646373D01*
X7596827Y-2646372D01*
X7596823Y-2646367D01*
X7353632Y-2403176D01*
X7087765Y-2184985D01*
X7087764Y-2184984D01*
X7087760Y-2184981D01*
X6801787Y-1993900D01*
X6801782Y-1993897D01*
X6801775Y-1993893D01*
X6498469Y-1831772D01*
X6498464Y-1831770D01*
X6498462Y-1831769D01*
X6274643Y-1739060D01*
X6220241Y-1695220D01*
X6198176Y-1628926D01*
X6215455Y-1561227D01*
X6266592Y-1513616D01*
X6322097Y-1500500D01*
X75677903Y-1500500D01*
X75744942Y-1520185D01*
G37*
%TD.AperFunction*%
%TD*%
M02*
