%TF.GenerationSoftware,KiCad,Pcbnew,10.0.5-10.0.5~ubuntu26.04.1*%
%TF.CreationDate,2026-08-13T19:38:53-07:00*%
%TF.ProjectId,marker-lamp-controller-rev-b,6d61726b-6572-42d6-9c61-6d702d636f6e,rev?*%
%TF.SameCoordinates,Original*%
%TF.FileFunction,Legend,Top*%
%TF.FilePolarity,Positive*%
%FSLAX46Y46*%
G04 Gerber Fmt 4.6, Leading zero omitted, Abs format (unit mm)*
G04 Created by KiCad (PCBNEW 10.0.5-10.0.5~ubuntu26.04.1) date 2026-08-13 19:38:53*
%MOMM*%
%LPD*%
G01*
G04 APERTURE LIST*
%ADD10C,0.180000*%
%ADD11C,0.150000*%
G04 APERTURE END LIST*
D10*
X27450000Y-8700000D02*
G75*
G02*
X26750000Y-8700000I-350000J0D01*
G01*
X26750000Y-8700000D02*
G75*
G02*
X27450000Y-8700000I350000J0D01*
G01*
D11*
X21790476Y-18362295D02*
X21790476Y-17562295D01*
X22247619Y-18362295D02*
X21904761Y-17905152D01*
X22247619Y-17562295D02*
X21790476Y-18019438D01*
X26228571Y-8562294D02*
X25771428Y-8562294D01*
X26000000Y-8562294D02*
X26000000Y-7762294D01*
X26000000Y-7762294D02*
X25923809Y-7876579D01*
X25923809Y-7876579D02*
X25847619Y-7952770D01*
X25847619Y-7952770D02*
X25771428Y-7990865D01*
X26590476Y-14362295D02*
X26590476Y-13562295D01*
X27047619Y-14362295D02*
X26704761Y-13905152D01*
X27047619Y-13562295D02*
X26590476Y-14019438D01*
X30790476Y-27662295D02*
X30790476Y-26862295D01*
X31247619Y-27662295D02*
X30904761Y-27205152D01*
X31247619Y-26862295D02*
X30790476Y-27319438D01*
X27676188Y-39062295D02*
X27676188Y-39633723D01*
X27676188Y-39633723D02*
X27638093Y-39748009D01*
X27638093Y-39748009D02*
X27561902Y-39824200D01*
X27561902Y-39824200D02*
X27447617Y-39862295D01*
X27447617Y-39862295D02*
X27371426Y-39862295D01*
X28476188Y-39862295D02*
X28019045Y-39862295D01*
X28247617Y-39862295D02*
X28247617Y-39062295D01*
X28247617Y-39062295D02*
X28171426Y-39176580D01*
X28171426Y-39176580D02*
X28095236Y-39252771D01*
X28095236Y-39252771D02*
X28019045Y-39290866D01*
X28819046Y-39786104D02*
X28857141Y-39824200D01*
X28857141Y-39824200D02*
X28819046Y-39862295D01*
X28819046Y-39862295D02*
X28780950Y-39824200D01*
X28780950Y-39824200D02*
X28819046Y-39786104D01*
X28819046Y-39786104D02*
X28819046Y-39862295D01*
X28819046Y-39367057D02*
X28857141Y-39405152D01*
X28857141Y-39405152D02*
X28819046Y-39443247D01*
X28819046Y-39443247D02*
X28780950Y-39405152D01*
X28780950Y-39405152D02*
X28819046Y-39367057D01*
X28819046Y-39367057D02*
X28819046Y-39443247D01*
X30228569Y-39862295D02*
X29771426Y-39862295D01*
X29999998Y-39862295D02*
X29999998Y-39062295D01*
X29999998Y-39062295D02*
X29923807Y-39176580D01*
X29923807Y-39176580D02*
X29847617Y-39252771D01*
X29847617Y-39252771D02*
X29771426Y-39290866D01*
X31142855Y-39824200D02*
X31257141Y-39862295D01*
X31257141Y-39862295D02*
X31447617Y-39862295D01*
X31447617Y-39862295D02*
X31523808Y-39824200D01*
X31523808Y-39824200D02*
X31561903Y-39786104D01*
X31561903Y-39786104D02*
X31599998Y-39709914D01*
X31599998Y-39709914D02*
X31599998Y-39633723D01*
X31599998Y-39633723D02*
X31561903Y-39557533D01*
X31561903Y-39557533D02*
X31523808Y-39519438D01*
X31523808Y-39519438D02*
X31447617Y-39481342D01*
X31447617Y-39481342D02*
X31295236Y-39443247D01*
X31295236Y-39443247D02*
X31219046Y-39405152D01*
X31219046Y-39405152D02*
X31180951Y-39367057D01*
X31180951Y-39367057D02*
X31142855Y-39290866D01*
X31142855Y-39290866D02*
X31142855Y-39214676D01*
X31142855Y-39214676D02*
X31180951Y-39138485D01*
X31180951Y-39138485D02*
X31219046Y-39100390D01*
X31219046Y-39100390D02*
X31295236Y-39062295D01*
X31295236Y-39062295D02*
X31485713Y-39062295D01*
X31485713Y-39062295D02*
X31599998Y-39100390D01*
X31942856Y-39443247D02*
X32209522Y-39443247D01*
X32323808Y-39862295D02*
X31942856Y-39862295D01*
X31942856Y-39862295D02*
X31942856Y-39062295D01*
X31942856Y-39062295D02*
X32323808Y-39062295D01*
X32666666Y-39862295D02*
X32666666Y-39062295D01*
X32666666Y-39062295D02*
X33123809Y-39862295D01*
X33123809Y-39862295D02*
X33123809Y-39062295D01*
X33466665Y-39824200D02*
X33580951Y-39862295D01*
X33580951Y-39862295D02*
X33771427Y-39862295D01*
X33771427Y-39862295D02*
X33847618Y-39824200D01*
X33847618Y-39824200D02*
X33885713Y-39786104D01*
X33885713Y-39786104D02*
X33923808Y-39709914D01*
X33923808Y-39709914D02*
X33923808Y-39633723D01*
X33923808Y-39633723D02*
X33885713Y-39557533D01*
X33885713Y-39557533D02*
X33847618Y-39519438D01*
X33847618Y-39519438D02*
X33771427Y-39481342D01*
X33771427Y-39481342D02*
X33619046Y-39443247D01*
X33619046Y-39443247D02*
X33542856Y-39405152D01*
X33542856Y-39405152D02*
X33504761Y-39367057D01*
X33504761Y-39367057D02*
X33466665Y-39290866D01*
X33466665Y-39290866D02*
X33466665Y-39214676D01*
X33466665Y-39214676D02*
X33504761Y-39138485D01*
X33504761Y-39138485D02*
X33542856Y-39100390D01*
X33542856Y-39100390D02*
X33619046Y-39062295D01*
X33619046Y-39062295D02*
X33809523Y-39062295D01*
X33809523Y-39062295D02*
X33923808Y-39100390D01*
X34266666Y-39443247D02*
X34533332Y-39443247D01*
X34647618Y-39862295D02*
X34266666Y-39862295D01*
X34266666Y-39862295D02*
X34266666Y-39062295D01*
X34266666Y-39062295D02*
X34647618Y-39062295D01*
X36171428Y-39138485D02*
X36209524Y-39100390D01*
X36209524Y-39100390D02*
X36285714Y-39062295D01*
X36285714Y-39062295D02*
X36476190Y-39062295D01*
X36476190Y-39062295D02*
X36552381Y-39100390D01*
X36552381Y-39100390D02*
X36590476Y-39138485D01*
X36590476Y-39138485D02*
X36628571Y-39214676D01*
X36628571Y-39214676D02*
X36628571Y-39290866D01*
X36628571Y-39290866D02*
X36590476Y-39405152D01*
X36590476Y-39405152D02*
X36133333Y-39862295D01*
X36133333Y-39862295D02*
X36628571Y-39862295D01*
X37847619Y-39443247D02*
X37961905Y-39481342D01*
X37961905Y-39481342D02*
X38000000Y-39519438D01*
X38000000Y-39519438D02*
X38038096Y-39595628D01*
X38038096Y-39595628D02*
X38038096Y-39709914D01*
X38038096Y-39709914D02*
X38000000Y-39786104D01*
X38000000Y-39786104D02*
X37961905Y-39824200D01*
X37961905Y-39824200D02*
X37885715Y-39862295D01*
X37885715Y-39862295D02*
X37580953Y-39862295D01*
X37580953Y-39862295D02*
X37580953Y-39062295D01*
X37580953Y-39062295D02*
X37847619Y-39062295D01*
X37847619Y-39062295D02*
X37923810Y-39100390D01*
X37923810Y-39100390D02*
X37961905Y-39138485D01*
X37961905Y-39138485D02*
X38000000Y-39214676D01*
X38000000Y-39214676D02*
X38000000Y-39290866D01*
X38000000Y-39290866D02*
X37961905Y-39367057D01*
X37961905Y-39367057D02*
X37923810Y-39405152D01*
X37923810Y-39405152D02*
X37847619Y-39443247D01*
X37847619Y-39443247D02*
X37580953Y-39443247D01*
X38342857Y-39633723D02*
X38723810Y-39633723D01*
X38266667Y-39862295D02*
X38533334Y-39062295D01*
X38533334Y-39062295D02*
X38800000Y-39862295D01*
X38952381Y-39062295D02*
X39409524Y-39062295D01*
X39180952Y-39862295D02*
X39180952Y-39062295D01*
X39561905Y-39062295D02*
X40019048Y-39062295D01*
X39790476Y-39862295D02*
X39790476Y-39062295D01*
X40285715Y-39557533D02*
X40895239Y-39557533D01*
X40590477Y-39862295D02*
X40590477Y-39252771D01*
X42419048Y-39062295D02*
X42914286Y-39062295D01*
X42914286Y-39062295D02*
X42647620Y-39367057D01*
X42647620Y-39367057D02*
X42761905Y-39367057D01*
X42761905Y-39367057D02*
X42838096Y-39405152D01*
X42838096Y-39405152D02*
X42876191Y-39443247D01*
X42876191Y-39443247D02*
X42914286Y-39519438D01*
X42914286Y-39519438D02*
X42914286Y-39709914D01*
X42914286Y-39709914D02*
X42876191Y-39786104D01*
X42876191Y-39786104D02*
X42838096Y-39824200D01*
X42838096Y-39824200D02*
X42761905Y-39862295D01*
X42761905Y-39862295D02*
X42533334Y-39862295D01*
X42533334Y-39862295D02*
X42457143Y-39824200D01*
X42457143Y-39824200D02*
X42419048Y-39786104D01*
X44247620Y-39862295D02*
X43866668Y-39862295D01*
X43866668Y-39862295D02*
X43866668Y-39062295D01*
X44476191Y-39633723D02*
X44857144Y-39633723D01*
X44400001Y-39862295D02*
X44666668Y-39062295D01*
X44666668Y-39062295D02*
X44933334Y-39862295D01*
X45200001Y-39862295D02*
X45200001Y-39062295D01*
X45200001Y-39062295D02*
X45466667Y-39633723D01*
X45466667Y-39633723D02*
X45733334Y-39062295D01*
X45733334Y-39062295D02*
X45733334Y-39862295D01*
X46114287Y-39862295D02*
X46114287Y-39062295D01*
X46114287Y-39062295D02*
X46419049Y-39062295D01*
X46419049Y-39062295D02*
X46495239Y-39100390D01*
X46495239Y-39100390D02*
X46533334Y-39138485D01*
X46533334Y-39138485D02*
X46571430Y-39214676D01*
X46571430Y-39214676D02*
X46571430Y-39328961D01*
X46571430Y-39328961D02*
X46533334Y-39405152D01*
X46533334Y-39405152D02*
X46495239Y-39443247D01*
X46495239Y-39443247D02*
X46419049Y-39481342D01*
X46419049Y-39481342D02*
X46114287Y-39481342D01*
X46914287Y-39557533D02*
X47523811Y-39557533D01*
X47219049Y-39862295D02*
X47219049Y-39252771D01*
X49466668Y-39328961D02*
X49466668Y-39862295D01*
X49276192Y-39024200D02*
X49085715Y-39595628D01*
X49085715Y-39595628D02*
X49580954Y-39595628D01*
X50914287Y-39100390D02*
X50838097Y-39062295D01*
X50838097Y-39062295D02*
X50723811Y-39062295D01*
X50723811Y-39062295D02*
X50609525Y-39100390D01*
X50609525Y-39100390D02*
X50533335Y-39176580D01*
X50533335Y-39176580D02*
X50495240Y-39252771D01*
X50495240Y-39252771D02*
X50457144Y-39405152D01*
X50457144Y-39405152D02*
X50457144Y-39519438D01*
X50457144Y-39519438D02*
X50495240Y-39671819D01*
X50495240Y-39671819D02*
X50533335Y-39748009D01*
X50533335Y-39748009D02*
X50609525Y-39824200D01*
X50609525Y-39824200D02*
X50723811Y-39862295D01*
X50723811Y-39862295D02*
X50800002Y-39862295D01*
X50800002Y-39862295D02*
X50914287Y-39824200D01*
X50914287Y-39824200D02*
X50952383Y-39786104D01*
X50952383Y-39786104D02*
X50952383Y-39519438D01*
X50952383Y-39519438D02*
X50800002Y-39519438D01*
X51295240Y-39862295D02*
X51295240Y-39062295D01*
X51295240Y-39062295D02*
X51752383Y-39862295D01*
X51752383Y-39862295D02*
X51752383Y-39062295D01*
X52133335Y-39862295D02*
X52133335Y-39062295D01*
X52133335Y-39062295D02*
X52323811Y-39062295D01*
X52323811Y-39062295D02*
X52438097Y-39100390D01*
X52438097Y-39100390D02*
X52514287Y-39176580D01*
X52514287Y-39176580D02*
X52552382Y-39252771D01*
X52552382Y-39252771D02*
X52590478Y-39405152D01*
X52590478Y-39405152D02*
X52590478Y-39519438D01*
X52590478Y-39519438D02*
X52552382Y-39671819D01*
X52552382Y-39671819D02*
X52514287Y-39748009D01*
X52514287Y-39748009D02*
X52438097Y-39824200D01*
X52438097Y-39824200D02*
X52323811Y-39862295D01*
X52323811Y-39862295D02*
X52133335Y-39862295D01*
X24971424Y-44428961D02*
X24971424Y-45076580D01*
X24971424Y-45076580D02*
X24933329Y-45152771D01*
X24933329Y-45152771D02*
X24895233Y-45190866D01*
X24895233Y-45190866D02*
X24819043Y-45228961D01*
X24819043Y-45228961D02*
X24704757Y-45228961D01*
X24704757Y-45228961D02*
X24628567Y-45190866D01*
X24971424Y-44924200D02*
X24895233Y-44962295D01*
X24895233Y-44962295D02*
X24742852Y-44962295D01*
X24742852Y-44962295D02*
X24666662Y-44924200D01*
X24666662Y-44924200D02*
X24628567Y-44886104D01*
X24628567Y-44886104D02*
X24590471Y-44809914D01*
X24590471Y-44809914D02*
X24590471Y-44581342D01*
X24590471Y-44581342D02*
X24628567Y-44505152D01*
X24628567Y-44505152D02*
X24666662Y-44467057D01*
X24666662Y-44467057D02*
X24742852Y-44428961D01*
X24742852Y-44428961D02*
X24895233Y-44428961D01*
X24895233Y-44428961D02*
X24971424Y-44467057D01*
X25352377Y-44962295D02*
X25352377Y-44428961D01*
X25352377Y-44162295D02*
X25314281Y-44200390D01*
X25314281Y-44200390D02*
X25352377Y-44238485D01*
X25352377Y-44238485D02*
X25390472Y-44200390D01*
X25390472Y-44200390D02*
X25352377Y-44162295D01*
X25352377Y-44162295D02*
X25352377Y-44238485D01*
X25619043Y-44428961D02*
X25923805Y-44428961D01*
X25733329Y-44162295D02*
X25733329Y-44848009D01*
X25733329Y-44848009D02*
X25771424Y-44924200D01*
X25771424Y-44924200D02*
X25847614Y-44962295D01*
X25847614Y-44962295D02*
X25923805Y-44962295D01*
X26190472Y-44962295D02*
X26190472Y-44162295D01*
X26533329Y-44962295D02*
X26533329Y-44543247D01*
X26533329Y-44543247D02*
X26495234Y-44467057D01*
X26495234Y-44467057D02*
X26419043Y-44428961D01*
X26419043Y-44428961D02*
X26304757Y-44428961D01*
X26304757Y-44428961D02*
X26228567Y-44467057D01*
X26228567Y-44467057D02*
X26190472Y-44505152D01*
X27257139Y-44428961D02*
X27257139Y-44962295D01*
X26914282Y-44428961D02*
X26914282Y-44848009D01*
X26914282Y-44848009D02*
X26952377Y-44924200D01*
X26952377Y-44924200D02*
X27028567Y-44962295D01*
X27028567Y-44962295D02*
X27142853Y-44962295D01*
X27142853Y-44962295D02*
X27219044Y-44924200D01*
X27219044Y-44924200D02*
X27257139Y-44886104D01*
X27638092Y-44962295D02*
X27638092Y-44162295D01*
X27638092Y-44467057D02*
X27714282Y-44428961D01*
X27714282Y-44428961D02*
X27866663Y-44428961D01*
X27866663Y-44428961D02*
X27942854Y-44467057D01*
X27942854Y-44467057D02*
X27980949Y-44505152D01*
X27980949Y-44505152D02*
X28019044Y-44581342D01*
X28019044Y-44581342D02*
X28019044Y-44809914D01*
X28019044Y-44809914D02*
X27980949Y-44886104D01*
X27980949Y-44886104D02*
X27942854Y-44924200D01*
X27942854Y-44924200D02*
X27866663Y-44962295D01*
X27866663Y-44962295D02*
X27714282Y-44962295D01*
X27714282Y-44962295D02*
X27638092Y-44924200D01*
X28361902Y-44886104D02*
X28399997Y-44924200D01*
X28399997Y-44924200D02*
X28361902Y-44962295D01*
X28361902Y-44962295D02*
X28323806Y-44924200D01*
X28323806Y-44924200D02*
X28361902Y-44886104D01*
X28361902Y-44886104D02*
X28361902Y-44962295D01*
X29085711Y-44924200D02*
X29009520Y-44962295D01*
X29009520Y-44962295D02*
X28857139Y-44962295D01*
X28857139Y-44962295D02*
X28780949Y-44924200D01*
X28780949Y-44924200D02*
X28742854Y-44886104D01*
X28742854Y-44886104D02*
X28704758Y-44809914D01*
X28704758Y-44809914D02*
X28704758Y-44581342D01*
X28704758Y-44581342D02*
X28742854Y-44505152D01*
X28742854Y-44505152D02*
X28780949Y-44467057D01*
X28780949Y-44467057D02*
X28857139Y-44428961D01*
X28857139Y-44428961D02*
X29009520Y-44428961D01*
X29009520Y-44428961D02*
X29085711Y-44467057D01*
X29542853Y-44962295D02*
X29466663Y-44924200D01*
X29466663Y-44924200D02*
X29428568Y-44886104D01*
X29428568Y-44886104D02*
X29390472Y-44809914D01*
X29390472Y-44809914D02*
X29390472Y-44581342D01*
X29390472Y-44581342D02*
X29428568Y-44505152D01*
X29428568Y-44505152D02*
X29466663Y-44467057D01*
X29466663Y-44467057D02*
X29542853Y-44428961D01*
X29542853Y-44428961D02*
X29657139Y-44428961D01*
X29657139Y-44428961D02*
X29733330Y-44467057D01*
X29733330Y-44467057D02*
X29771425Y-44505152D01*
X29771425Y-44505152D02*
X29809520Y-44581342D01*
X29809520Y-44581342D02*
X29809520Y-44809914D01*
X29809520Y-44809914D02*
X29771425Y-44886104D01*
X29771425Y-44886104D02*
X29733330Y-44924200D01*
X29733330Y-44924200D02*
X29657139Y-44962295D01*
X29657139Y-44962295D02*
X29542853Y-44962295D01*
X30152378Y-44962295D02*
X30152378Y-44428961D01*
X30152378Y-44505152D02*
X30190473Y-44467057D01*
X30190473Y-44467057D02*
X30266663Y-44428961D01*
X30266663Y-44428961D02*
X30380949Y-44428961D01*
X30380949Y-44428961D02*
X30457140Y-44467057D01*
X30457140Y-44467057D02*
X30495235Y-44543247D01*
X30495235Y-44543247D02*
X30495235Y-44962295D01*
X30495235Y-44543247D02*
X30533330Y-44467057D01*
X30533330Y-44467057D02*
X30609521Y-44428961D01*
X30609521Y-44428961D02*
X30723806Y-44428961D01*
X30723806Y-44428961D02*
X30799997Y-44467057D01*
X30799997Y-44467057D02*
X30838092Y-44543247D01*
X30838092Y-44543247D02*
X30838092Y-44962295D01*
X31790473Y-44124200D02*
X31104759Y-45152771D01*
X32057140Y-44962295D02*
X32057140Y-44428961D01*
X32057140Y-44505152D02*
X32095235Y-44467057D01*
X32095235Y-44467057D02*
X32171425Y-44428961D01*
X32171425Y-44428961D02*
X32285711Y-44428961D01*
X32285711Y-44428961D02*
X32361902Y-44467057D01*
X32361902Y-44467057D02*
X32399997Y-44543247D01*
X32399997Y-44543247D02*
X32399997Y-44962295D01*
X32399997Y-44543247D02*
X32438092Y-44467057D01*
X32438092Y-44467057D02*
X32514283Y-44428961D01*
X32514283Y-44428961D02*
X32628568Y-44428961D01*
X32628568Y-44428961D02*
X32704759Y-44467057D01*
X32704759Y-44467057D02*
X32742854Y-44543247D01*
X32742854Y-44543247D02*
X32742854Y-44962295D01*
X33238092Y-44962295D02*
X33161902Y-44924200D01*
X33161902Y-44924200D02*
X33123807Y-44886104D01*
X33123807Y-44886104D02*
X33085711Y-44809914D01*
X33085711Y-44809914D02*
X33085711Y-44581342D01*
X33085711Y-44581342D02*
X33123807Y-44505152D01*
X33123807Y-44505152D02*
X33161902Y-44467057D01*
X33161902Y-44467057D02*
X33238092Y-44428961D01*
X33238092Y-44428961D02*
X33352378Y-44428961D01*
X33352378Y-44428961D02*
X33428569Y-44467057D01*
X33428569Y-44467057D02*
X33466664Y-44505152D01*
X33466664Y-44505152D02*
X33504759Y-44581342D01*
X33504759Y-44581342D02*
X33504759Y-44809914D01*
X33504759Y-44809914D02*
X33466664Y-44886104D01*
X33466664Y-44886104D02*
X33428569Y-44924200D01*
X33428569Y-44924200D02*
X33352378Y-44962295D01*
X33352378Y-44962295D02*
X33238092Y-44962295D01*
X33961902Y-44962295D02*
X33885712Y-44924200D01*
X33885712Y-44924200D02*
X33847617Y-44886104D01*
X33847617Y-44886104D02*
X33809521Y-44809914D01*
X33809521Y-44809914D02*
X33809521Y-44581342D01*
X33809521Y-44581342D02*
X33847617Y-44505152D01*
X33847617Y-44505152D02*
X33885712Y-44467057D01*
X33885712Y-44467057D02*
X33961902Y-44428961D01*
X33961902Y-44428961D02*
X34076188Y-44428961D01*
X34076188Y-44428961D02*
X34152379Y-44467057D01*
X34152379Y-44467057D02*
X34190474Y-44505152D01*
X34190474Y-44505152D02*
X34228569Y-44581342D01*
X34228569Y-44581342D02*
X34228569Y-44809914D01*
X34228569Y-44809914D02*
X34190474Y-44886104D01*
X34190474Y-44886104D02*
X34152379Y-44924200D01*
X34152379Y-44924200D02*
X34076188Y-44962295D01*
X34076188Y-44962295D02*
X33961902Y-44962295D01*
X34571427Y-44428961D02*
X34571427Y-44962295D01*
X34571427Y-44505152D02*
X34609522Y-44467057D01*
X34609522Y-44467057D02*
X34685712Y-44428961D01*
X34685712Y-44428961D02*
X34799998Y-44428961D01*
X34799998Y-44428961D02*
X34876189Y-44467057D01*
X34876189Y-44467057D02*
X34914284Y-44543247D01*
X34914284Y-44543247D02*
X34914284Y-44962295D01*
X35295237Y-44428961D02*
X35295237Y-45228961D01*
X35295237Y-44467057D02*
X35371427Y-44428961D01*
X35371427Y-44428961D02*
X35523808Y-44428961D01*
X35523808Y-44428961D02*
X35599999Y-44467057D01*
X35599999Y-44467057D02*
X35638094Y-44505152D01*
X35638094Y-44505152D02*
X35676189Y-44581342D01*
X35676189Y-44581342D02*
X35676189Y-44809914D01*
X35676189Y-44809914D02*
X35638094Y-44886104D01*
X35638094Y-44886104D02*
X35599999Y-44924200D01*
X35599999Y-44924200D02*
X35523808Y-44962295D01*
X35523808Y-44962295D02*
X35371427Y-44962295D01*
X35371427Y-44962295D02*
X35295237Y-44924200D01*
X36133332Y-44962295D02*
X36057142Y-44924200D01*
X36057142Y-44924200D02*
X36019047Y-44886104D01*
X36019047Y-44886104D02*
X35980951Y-44809914D01*
X35980951Y-44809914D02*
X35980951Y-44581342D01*
X35980951Y-44581342D02*
X36019047Y-44505152D01*
X36019047Y-44505152D02*
X36057142Y-44467057D01*
X36057142Y-44467057D02*
X36133332Y-44428961D01*
X36133332Y-44428961D02*
X36247618Y-44428961D01*
X36247618Y-44428961D02*
X36323809Y-44467057D01*
X36323809Y-44467057D02*
X36361904Y-44505152D01*
X36361904Y-44505152D02*
X36399999Y-44581342D01*
X36399999Y-44581342D02*
X36399999Y-44809914D01*
X36399999Y-44809914D02*
X36361904Y-44886104D01*
X36361904Y-44886104D02*
X36323809Y-44924200D01*
X36323809Y-44924200D02*
X36247618Y-44962295D01*
X36247618Y-44962295D02*
X36133332Y-44962295D01*
X36857142Y-44962295D02*
X36780952Y-44924200D01*
X36780952Y-44924200D02*
X36742857Y-44848009D01*
X36742857Y-44848009D02*
X36742857Y-44162295D01*
X37085714Y-44428961D02*
X37276190Y-44962295D01*
X37466667Y-44428961D02*
X37276190Y-44962295D01*
X37276190Y-44962295D02*
X37200000Y-45152771D01*
X37200000Y-45152771D02*
X37161905Y-45190866D01*
X37161905Y-45190866D02*
X37085714Y-45228961D01*
X37733333Y-44924200D02*
X37809524Y-44962295D01*
X37809524Y-44962295D02*
X37961905Y-44962295D01*
X37961905Y-44962295D02*
X38038095Y-44924200D01*
X38038095Y-44924200D02*
X38076191Y-44848009D01*
X38076191Y-44848009D02*
X38076191Y-44809914D01*
X38076191Y-44809914D02*
X38038095Y-44733723D01*
X38038095Y-44733723D02*
X37961905Y-44695628D01*
X37961905Y-44695628D02*
X37847619Y-44695628D01*
X37847619Y-44695628D02*
X37771429Y-44657533D01*
X37771429Y-44657533D02*
X37733333Y-44581342D01*
X37733333Y-44581342D02*
X37733333Y-44543247D01*
X37733333Y-44543247D02*
X37771429Y-44467057D01*
X37771429Y-44467057D02*
X37847619Y-44428961D01*
X37847619Y-44428961D02*
X37961905Y-44428961D01*
X37961905Y-44428961D02*
X38038095Y-44467057D01*
X38533333Y-44962295D02*
X38457143Y-44924200D01*
X38457143Y-44924200D02*
X38419048Y-44886104D01*
X38419048Y-44886104D02*
X38380952Y-44809914D01*
X38380952Y-44809914D02*
X38380952Y-44581342D01*
X38380952Y-44581342D02*
X38419048Y-44505152D01*
X38419048Y-44505152D02*
X38457143Y-44467057D01*
X38457143Y-44467057D02*
X38533333Y-44428961D01*
X38533333Y-44428961D02*
X38647619Y-44428961D01*
X38647619Y-44428961D02*
X38723810Y-44467057D01*
X38723810Y-44467057D02*
X38761905Y-44505152D01*
X38761905Y-44505152D02*
X38800000Y-44581342D01*
X38800000Y-44581342D02*
X38800000Y-44809914D01*
X38800000Y-44809914D02*
X38761905Y-44886104D01*
X38761905Y-44886104D02*
X38723810Y-44924200D01*
X38723810Y-44924200D02*
X38647619Y-44962295D01*
X38647619Y-44962295D02*
X38533333Y-44962295D01*
X39028572Y-44428961D02*
X39333334Y-44428961D01*
X39142858Y-44962295D02*
X39142858Y-44276580D01*
X39142858Y-44276580D02*
X39180953Y-44200390D01*
X39180953Y-44200390D02*
X39257143Y-44162295D01*
X39257143Y-44162295D02*
X39333334Y-44162295D01*
X39485715Y-44428961D02*
X39790477Y-44428961D01*
X39600001Y-44162295D02*
X39600001Y-44848009D01*
X39600001Y-44848009D02*
X39638096Y-44924200D01*
X39638096Y-44924200D02*
X39714286Y-44962295D01*
X39714286Y-44962295D02*
X39790477Y-44962295D01*
X40628572Y-44124200D02*
X39942858Y-45152771D01*
X40895239Y-44962295D02*
X40895239Y-44428961D01*
X40895239Y-44505152D02*
X40933334Y-44467057D01*
X40933334Y-44467057D02*
X41009524Y-44428961D01*
X41009524Y-44428961D02*
X41123810Y-44428961D01*
X41123810Y-44428961D02*
X41200001Y-44467057D01*
X41200001Y-44467057D02*
X41238096Y-44543247D01*
X41238096Y-44543247D02*
X41238096Y-44962295D01*
X41238096Y-44543247D02*
X41276191Y-44467057D01*
X41276191Y-44467057D02*
X41352382Y-44428961D01*
X41352382Y-44428961D02*
X41466667Y-44428961D01*
X41466667Y-44428961D02*
X41542858Y-44467057D01*
X41542858Y-44467057D02*
X41580953Y-44543247D01*
X41580953Y-44543247D02*
X41580953Y-44962295D01*
X42304763Y-44962295D02*
X42304763Y-44543247D01*
X42304763Y-44543247D02*
X42266668Y-44467057D01*
X42266668Y-44467057D02*
X42190477Y-44428961D01*
X42190477Y-44428961D02*
X42038096Y-44428961D01*
X42038096Y-44428961D02*
X41961906Y-44467057D01*
X42304763Y-44924200D02*
X42228572Y-44962295D01*
X42228572Y-44962295D02*
X42038096Y-44962295D01*
X42038096Y-44962295D02*
X41961906Y-44924200D01*
X41961906Y-44924200D02*
X41923810Y-44848009D01*
X41923810Y-44848009D02*
X41923810Y-44771819D01*
X41923810Y-44771819D02*
X41961906Y-44695628D01*
X41961906Y-44695628D02*
X42038096Y-44657533D01*
X42038096Y-44657533D02*
X42228572Y-44657533D01*
X42228572Y-44657533D02*
X42304763Y-44619438D01*
X42685716Y-44962295D02*
X42685716Y-44428961D01*
X42685716Y-44581342D02*
X42723811Y-44505152D01*
X42723811Y-44505152D02*
X42761906Y-44467057D01*
X42761906Y-44467057D02*
X42838097Y-44428961D01*
X42838097Y-44428961D02*
X42914287Y-44428961D01*
X43180954Y-44962295D02*
X43180954Y-44162295D01*
X43257144Y-44657533D02*
X43485716Y-44962295D01*
X43485716Y-44428961D02*
X43180954Y-44733723D01*
X44133335Y-44924200D02*
X44057144Y-44962295D01*
X44057144Y-44962295D02*
X43904763Y-44962295D01*
X43904763Y-44962295D02*
X43828573Y-44924200D01*
X43828573Y-44924200D02*
X43790477Y-44848009D01*
X43790477Y-44848009D02*
X43790477Y-44543247D01*
X43790477Y-44543247D02*
X43828573Y-44467057D01*
X43828573Y-44467057D02*
X43904763Y-44428961D01*
X43904763Y-44428961D02*
X44057144Y-44428961D01*
X44057144Y-44428961D02*
X44133335Y-44467057D01*
X44133335Y-44467057D02*
X44171430Y-44543247D01*
X44171430Y-44543247D02*
X44171430Y-44619438D01*
X44171430Y-44619438D02*
X43790477Y-44695628D01*
X44514287Y-44962295D02*
X44514287Y-44428961D01*
X44514287Y-44581342D02*
X44552382Y-44505152D01*
X44552382Y-44505152D02*
X44590477Y-44467057D01*
X44590477Y-44467057D02*
X44666668Y-44428961D01*
X44666668Y-44428961D02*
X44742858Y-44428961D01*
X45009525Y-44657533D02*
X45619049Y-44657533D01*
X46114286Y-44962295D02*
X46038096Y-44924200D01*
X46038096Y-44924200D02*
X46000001Y-44848009D01*
X46000001Y-44848009D02*
X46000001Y-44162295D01*
X46761906Y-44962295D02*
X46761906Y-44543247D01*
X46761906Y-44543247D02*
X46723811Y-44467057D01*
X46723811Y-44467057D02*
X46647620Y-44428961D01*
X46647620Y-44428961D02*
X46495239Y-44428961D01*
X46495239Y-44428961D02*
X46419049Y-44467057D01*
X46761906Y-44924200D02*
X46685715Y-44962295D01*
X46685715Y-44962295D02*
X46495239Y-44962295D01*
X46495239Y-44962295D02*
X46419049Y-44924200D01*
X46419049Y-44924200D02*
X46380953Y-44848009D01*
X46380953Y-44848009D02*
X46380953Y-44771819D01*
X46380953Y-44771819D02*
X46419049Y-44695628D01*
X46419049Y-44695628D02*
X46495239Y-44657533D01*
X46495239Y-44657533D02*
X46685715Y-44657533D01*
X46685715Y-44657533D02*
X46761906Y-44619438D01*
X47142859Y-44962295D02*
X47142859Y-44428961D01*
X47142859Y-44505152D02*
X47180954Y-44467057D01*
X47180954Y-44467057D02*
X47257144Y-44428961D01*
X47257144Y-44428961D02*
X47371430Y-44428961D01*
X47371430Y-44428961D02*
X47447621Y-44467057D01*
X47447621Y-44467057D02*
X47485716Y-44543247D01*
X47485716Y-44543247D02*
X47485716Y-44962295D01*
X47485716Y-44543247D02*
X47523811Y-44467057D01*
X47523811Y-44467057D02*
X47600002Y-44428961D01*
X47600002Y-44428961D02*
X47714287Y-44428961D01*
X47714287Y-44428961D02*
X47790478Y-44467057D01*
X47790478Y-44467057D02*
X47828573Y-44543247D01*
X47828573Y-44543247D02*
X47828573Y-44962295D01*
X48209526Y-44428961D02*
X48209526Y-45228961D01*
X48209526Y-44467057D02*
X48285716Y-44428961D01*
X48285716Y-44428961D02*
X48438097Y-44428961D01*
X48438097Y-44428961D02*
X48514288Y-44467057D01*
X48514288Y-44467057D02*
X48552383Y-44505152D01*
X48552383Y-44505152D02*
X48590478Y-44581342D01*
X48590478Y-44581342D02*
X48590478Y-44809914D01*
X48590478Y-44809914D02*
X48552383Y-44886104D01*
X48552383Y-44886104D02*
X48514288Y-44924200D01*
X48514288Y-44924200D02*
X48438097Y-44962295D01*
X48438097Y-44962295D02*
X48285716Y-44962295D01*
X48285716Y-44962295D02*
X48209526Y-44924200D01*
X48933336Y-44657533D02*
X49542860Y-44657533D01*
X50266669Y-44924200D02*
X50190478Y-44962295D01*
X50190478Y-44962295D02*
X50038097Y-44962295D01*
X50038097Y-44962295D02*
X49961907Y-44924200D01*
X49961907Y-44924200D02*
X49923812Y-44886104D01*
X49923812Y-44886104D02*
X49885716Y-44809914D01*
X49885716Y-44809914D02*
X49885716Y-44581342D01*
X49885716Y-44581342D02*
X49923812Y-44505152D01*
X49923812Y-44505152D02*
X49961907Y-44467057D01*
X49961907Y-44467057D02*
X50038097Y-44428961D01*
X50038097Y-44428961D02*
X50190478Y-44428961D01*
X50190478Y-44428961D02*
X50266669Y-44467057D01*
X50723811Y-44962295D02*
X50647621Y-44924200D01*
X50647621Y-44924200D02*
X50609526Y-44886104D01*
X50609526Y-44886104D02*
X50571430Y-44809914D01*
X50571430Y-44809914D02*
X50571430Y-44581342D01*
X50571430Y-44581342D02*
X50609526Y-44505152D01*
X50609526Y-44505152D02*
X50647621Y-44467057D01*
X50647621Y-44467057D02*
X50723811Y-44428961D01*
X50723811Y-44428961D02*
X50838097Y-44428961D01*
X50838097Y-44428961D02*
X50914288Y-44467057D01*
X50914288Y-44467057D02*
X50952383Y-44505152D01*
X50952383Y-44505152D02*
X50990478Y-44581342D01*
X50990478Y-44581342D02*
X50990478Y-44809914D01*
X50990478Y-44809914D02*
X50952383Y-44886104D01*
X50952383Y-44886104D02*
X50914288Y-44924200D01*
X50914288Y-44924200D02*
X50838097Y-44962295D01*
X50838097Y-44962295D02*
X50723811Y-44962295D01*
X51333336Y-44428961D02*
X51333336Y-44962295D01*
X51333336Y-44505152D02*
X51371431Y-44467057D01*
X51371431Y-44467057D02*
X51447621Y-44428961D01*
X51447621Y-44428961D02*
X51561907Y-44428961D01*
X51561907Y-44428961D02*
X51638098Y-44467057D01*
X51638098Y-44467057D02*
X51676193Y-44543247D01*
X51676193Y-44543247D02*
X51676193Y-44962295D01*
X51942860Y-44428961D02*
X52247622Y-44428961D01*
X52057146Y-44162295D02*
X52057146Y-44848009D01*
X52057146Y-44848009D02*
X52095241Y-44924200D01*
X52095241Y-44924200D02*
X52171431Y-44962295D01*
X52171431Y-44962295D02*
X52247622Y-44962295D01*
X52514289Y-44962295D02*
X52514289Y-44428961D01*
X52514289Y-44581342D02*
X52552384Y-44505152D01*
X52552384Y-44505152D02*
X52590479Y-44467057D01*
X52590479Y-44467057D02*
X52666670Y-44428961D01*
X52666670Y-44428961D02*
X52742860Y-44428961D01*
X53123812Y-44962295D02*
X53047622Y-44924200D01*
X53047622Y-44924200D02*
X53009527Y-44886104D01*
X53009527Y-44886104D02*
X52971431Y-44809914D01*
X52971431Y-44809914D02*
X52971431Y-44581342D01*
X52971431Y-44581342D02*
X53009527Y-44505152D01*
X53009527Y-44505152D02*
X53047622Y-44467057D01*
X53047622Y-44467057D02*
X53123812Y-44428961D01*
X53123812Y-44428961D02*
X53238098Y-44428961D01*
X53238098Y-44428961D02*
X53314289Y-44467057D01*
X53314289Y-44467057D02*
X53352384Y-44505152D01*
X53352384Y-44505152D02*
X53390479Y-44581342D01*
X53390479Y-44581342D02*
X53390479Y-44809914D01*
X53390479Y-44809914D02*
X53352384Y-44886104D01*
X53352384Y-44886104D02*
X53314289Y-44924200D01*
X53314289Y-44924200D02*
X53238098Y-44962295D01*
X53238098Y-44962295D02*
X53123812Y-44962295D01*
X53847622Y-44962295D02*
X53771432Y-44924200D01*
X53771432Y-44924200D02*
X53733337Y-44848009D01*
X53733337Y-44848009D02*
X53733337Y-44162295D01*
X54266670Y-44962295D02*
X54190480Y-44924200D01*
X54190480Y-44924200D02*
X54152385Y-44848009D01*
X54152385Y-44848009D02*
X54152385Y-44162295D01*
X54876195Y-44924200D02*
X54800004Y-44962295D01*
X54800004Y-44962295D02*
X54647623Y-44962295D01*
X54647623Y-44962295D02*
X54571433Y-44924200D01*
X54571433Y-44924200D02*
X54533337Y-44848009D01*
X54533337Y-44848009D02*
X54533337Y-44543247D01*
X54533337Y-44543247D02*
X54571433Y-44467057D01*
X54571433Y-44467057D02*
X54647623Y-44428961D01*
X54647623Y-44428961D02*
X54800004Y-44428961D01*
X54800004Y-44428961D02*
X54876195Y-44467057D01*
X54876195Y-44467057D02*
X54914290Y-44543247D01*
X54914290Y-44543247D02*
X54914290Y-44619438D01*
X54914290Y-44619438D02*
X54533337Y-44695628D01*
X55257147Y-44962295D02*
X55257147Y-44428961D01*
X55257147Y-44581342D02*
X55295242Y-44505152D01*
X55295242Y-44505152D02*
X55333337Y-44467057D01*
X55333337Y-44467057D02*
X55409528Y-44428961D01*
X55409528Y-44428961D02*
X55485718Y-44428961D01*
X47609523Y-7562295D02*
X47152380Y-7562295D01*
X47380952Y-7562295D02*
X47380952Y-6762295D01*
X47380952Y-6762295D02*
X47304761Y-6876580D01*
X47304761Y-6876580D02*
X47228571Y-6952771D01*
X47228571Y-6952771D02*
X47152380Y-6990866D01*
X48523809Y-6724200D02*
X47838095Y-7752771D01*
X49057142Y-7143247D02*
X49171428Y-7181342D01*
X49171428Y-7181342D02*
X49209523Y-7219438D01*
X49209523Y-7219438D02*
X49247619Y-7295628D01*
X49247619Y-7295628D02*
X49247619Y-7409914D01*
X49247619Y-7409914D02*
X49209523Y-7486104D01*
X49209523Y-7486104D02*
X49171428Y-7524200D01*
X49171428Y-7524200D02*
X49095238Y-7562295D01*
X49095238Y-7562295D02*
X48790476Y-7562295D01*
X48790476Y-7562295D02*
X48790476Y-6762295D01*
X48790476Y-6762295D02*
X49057142Y-6762295D01*
X49057142Y-6762295D02*
X49133333Y-6800390D01*
X49133333Y-6800390D02*
X49171428Y-6838485D01*
X49171428Y-6838485D02*
X49209523Y-6914676D01*
X49209523Y-6914676D02*
X49209523Y-6990866D01*
X49209523Y-6990866D02*
X49171428Y-7067057D01*
X49171428Y-7067057D02*
X49133333Y-7105152D01*
X49133333Y-7105152D02*
X49057142Y-7143247D01*
X49057142Y-7143247D02*
X48790476Y-7143247D01*
X49290475Y-12638485D02*
X49328571Y-12600390D01*
X49328571Y-12600390D02*
X49404761Y-12562295D01*
X49404761Y-12562295D02*
X49595237Y-12562295D01*
X49595237Y-12562295D02*
X49671428Y-12600390D01*
X49671428Y-12600390D02*
X49709523Y-12638485D01*
X49709523Y-12638485D02*
X49747618Y-12714676D01*
X49747618Y-12714676D02*
X49747618Y-12790866D01*
X49747618Y-12790866D02*
X49709523Y-12905152D01*
X49709523Y-12905152D02*
X49252380Y-13362295D01*
X49252380Y-13362295D02*
X49747618Y-13362295D01*
X50661904Y-12524200D02*
X49976190Y-13552771D01*
X50928571Y-12943247D02*
X51195237Y-12943247D01*
X51309523Y-13362295D02*
X50928571Y-13362295D01*
X50928571Y-13362295D02*
X50928571Y-12562295D01*
X50928571Y-12562295D02*
X51309523Y-12562295D01*
X53714285Y-9562295D02*
X54209523Y-9562295D01*
X54209523Y-9562295D02*
X53942857Y-9867057D01*
X53942857Y-9867057D02*
X54057142Y-9867057D01*
X54057142Y-9867057D02*
X54133333Y-9905152D01*
X54133333Y-9905152D02*
X54171428Y-9943247D01*
X54171428Y-9943247D02*
X54209523Y-10019438D01*
X54209523Y-10019438D02*
X54209523Y-10209914D01*
X54209523Y-10209914D02*
X54171428Y-10286104D01*
X54171428Y-10286104D02*
X54133333Y-10324200D01*
X54133333Y-10324200D02*
X54057142Y-10362295D01*
X54057142Y-10362295D02*
X53828571Y-10362295D01*
X53828571Y-10362295D02*
X53752380Y-10324200D01*
X53752380Y-10324200D02*
X53714285Y-10286104D01*
X55123809Y-9524200D02*
X54438095Y-10552771D01*
X55847619Y-10286104D02*
X55809523Y-10324200D01*
X55809523Y-10324200D02*
X55695238Y-10362295D01*
X55695238Y-10362295D02*
X55619047Y-10362295D01*
X55619047Y-10362295D02*
X55504761Y-10324200D01*
X55504761Y-10324200D02*
X55428571Y-10248009D01*
X55428571Y-10248009D02*
X55390476Y-10171819D01*
X55390476Y-10171819D02*
X55352380Y-10019438D01*
X55352380Y-10019438D02*
X55352380Y-9905152D01*
X55352380Y-9905152D02*
X55390476Y-9752771D01*
X55390476Y-9752771D02*
X55428571Y-9676580D01*
X55428571Y-9676580D02*
X55504761Y-9600390D01*
X55504761Y-9600390D02*
X55619047Y-9562295D01*
X55619047Y-9562295D02*
X55695238Y-9562295D01*
X55695238Y-9562295D02*
X55809523Y-9600390D01*
X55809523Y-9600390D02*
X55847619Y-9638485D01*
X58290476Y-20662295D02*
X58290476Y-19862295D01*
X58747619Y-20662295D02*
X58404761Y-20205152D01*
X58747619Y-19862295D02*
X58290476Y-20319438D01*
X64428571Y-15562295D02*
X63971428Y-15562295D01*
X64200000Y-15562295D02*
X64200000Y-14762295D01*
X64200000Y-14762295D02*
X64123809Y-14876580D01*
X64123809Y-14876580D02*
X64047619Y-14952771D01*
X64047619Y-14952771D02*
X63971428Y-14990866D01*
X16858333Y-7985427D02*
X16574999Y-7580665D01*
X16372618Y-7985427D02*
X16372618Y-7135427D01*
X16372618Y-7135427D02*
X16696428Y-7135427D01*
X16696428Y-7135427D02*
X16777380Y-7175903D01*
X16777380Y-7175903D02*
X16817857Y-7216379D01*
X16817857Y-7216379D02*
X16858333Y-7297331D01*
X16858333Y-7297331D02*
X16858333Y-7418760D01*
X16858333Y-7418760D02*
X16817857Y-7499712D01*
X16817857Y-7499712D02*
X16777380Y-7540189D01*
X16777380Y-7540189D02*
X16696428Y-7580665D01*
X16696428Y-7580665D02*
X16372618Y-7580665D01*
X17667857Y-7985427D02*
X17182142Y-7985427D01*
X17424999Y-7985427D02*
X17424999Y-7135427D01*
X17424999Y-7135427D02*
X17344047Y-7256855D01*
X17344047Y-7256855D02*
X17263095Y-7337808D01*
X17263095Y-7337808D02*
X17182142Y-7378284D01*
X16372618Y-21585427D02*
X16372618Y-20735427D01*
X16372618Y-20735427D02*
X16574999Y-20735427D01*
X16574999Y-20735427D02*
X16696428Y-20775903D01*
X16696428Y-20775903D02*
X16777380Y-20856855D01*
X16777380Y-20856855D02*
X16817857Y-20937808D01*
X16817857Y-20937808D02*
X16858333Y-21099712D01*
X16858333Y-21099712D02*
X16858333Y-21221141D01*
X16858333Y-21221141D02*
X16817857Y-21383046D01*
X16817857Y-21383046D02*
X16777380Y-21463998D01*
X16777380Y-21463998D02*
X16696428Y-21544951D01*
X16696428Y-21544951D02*
X16574999Y-21585427D01*
X16574999Y-21585427D02*
X16372618Y-21585427D01*
X17667857Y-21585427D02*
X17182142Y-21585427D01*
X17424999Y-21585427D02*
X17424999Y-20735427D01*
X17424999Y-20735427D02*
X17344047Y-20856855D01*
X17344047Y-20856855D02*
X17263095Y-20937808D01*
X17263095Y-20937808D02*
X17182142Y-20978284D01*
X22858333Y-7985427D02*
X22574999Y-7580665D01*
X22372618Y-7985427D02*
X22372618Y-7135427D01*
X22372618Y-7135427D02*
X22696428Y-7135427D01*
X22696428Y-7135427D02*
X22777380Y-7175903D01*
X22777380Y-7175903D02*
X22817857Y-7216379D01*
X22817857Y-7216379D02*
X22858333Y-7297331D01*
X22858333Y-7297331D02*
X22858333Y-7418760D01*
X22858333Y-7418760D02*
X22817857Y-7499712D01*
X22817857Y-7499712D02*
X22777380Y-7540189D01*
X22777380Y-7540189D02*
X22696428Y-7580665D01*
X22696428Y-7580665D02*
X22372618Y-7580665D01*
X23182142Y-7216379D02*
X23222618Y-7175903D01*
X23222618Y-7175903D02*
X23303571Y-7135427D01*
X23303571Y-7135427D02*
X23505952Y-7135427D01*
X23505952Y-7135427D02*
X23586904Y-7175903D01*
X23586904Y-7175903D02*
X23627380Y-7216379D01*
X23627380Y-7216379D02*
X23667857Y-7297331D01*
X23667857Y-7297331D02*
X23667857Y-7378284D01*
X23667857Y-7378284D02*
X23627380Y-7499712D01*
X23627380Y-7499712D02*
X23141666Y-7985427D01*
X23141666Y-7985427D02*
X23667857Y-7985427D01*
X22372618Y-16685427D02*
X22372618Y-15835427D01*
X22372618Y-15835427D02*
X22574999Y-15835427D01*
X22574999Y-15835427D02*
X22696428Y-15875903D01*
X22696428Y-15875903D02*
X22777380Y-15956855D01*
X22777380Y-15956855D02*
X22817857Y-16037808D01*
X22817857Y-16037808D02*
X22858333Y-16199712D01*
X22858333Y-16199712D02*
X22858333Y-16321141D01*
X22858333Y-16321141D02*
X22817857Y-16483046D01*
X22817857Y-16483046D02*
X22777380Y-16563998D01*
X22777380Y-16563998D02*
X22696428Y-16644951D01*
X22696428Y-16644951D02*
X22574999Y-16685427D01*
X22574999Y-16685427D02*
X22372618Y-16685427D01*
X23141666Y-15835427D02*
X23667857Y-15835427D01*
X23667857Y-15835427D02*
X23384523Y-16159236D01*
X23384523Y-16159236D02*
X23505952Y-16159236D01*
X23505952Y-16159236D02*
X23586904Y-16199712D01*
X23586904Y-16199712D02*
X23627380Y-16240189D01*
X23627380Y-16240189D02*
X23667857Y-16321141D01*
X23667857Y-16321141D02*
X23667857Y-16523522D01*
X23667857Y-16523522D02*
X23627380Y-16604474D01*
X23627380Y-16604474D02*
X23586904Y-16644951D01*
X23586904Y-16644951D02*
X23505952Y-16685427D01*
X23505952Y-16685427D02*
X23263095Y-16685427D01*
X23263095Y-16685427D02*
X23182142Y-16644951D01*
X23182142Y-16644951D02*
X23141666Y-16604474D01*
X25872618Y-27685427D02*
X25872618Y-26835427D01*
X25872618Y-26835427D02*
X26074999Y-26835427D01*
X26074999Y-26835427D02*
X26196428Y-26875903D01*
X26196428Y-26875903D02*
X26277380Y-26956855D01*
X26277380Y-26956855D02*
X26317857Y-27037808D01*
X26317857Y-27037808D02*
X26358333Y-27199712D01*
X26358333Y-27199712D02*
X26358333Y-27321141D01*
X26358333Y-27321141D02*
X26317857Y-27483046D01*
X26317857Y-27483046D02*
X26277380Y-27563998D01*
X26277380Y-27563998D02*
X26196428Y-27644951D01*
X26196428Y-27644951D02*
X26074999Y-27685427D01*
X26074999Y-27685427D02*
X25872618Y-27685427D01*
X26682142Y-26916379D02*
X26722618Y-26875903D01*
X26722618Y-26875903D02*
X26803571Y-26835427D01*
X26803571Y-26835427D02*
X27005952Y-26835427D01*
X27005952Y-26835427D02*
X27086904Y-26875903D01*
X27086904Y-26875903D02*
X27127380Y-26916379D01*
X27127380Y-26916379D02*
X27167857Y-26997331D01*
X27167857Y-26997331D02*
X27167857Y-27078284D01*
X27167857Y-27078284D02*
X27127380Y-27199712D01*
X27127380Y-27199712D02*
X26641666Y-27685427D01*
X26641666Y-27685427D02*
X27167857Y-27685427D01*
X31352380Y-7035427D02*
X31352380Y-7723522D01*
X31352380Y-7723522D02*
X31392857Y-7804474D01*
X31392857Y-7804474D02*
X31433333Y-7844951D01*
X31433333Y-7844951D02*
X31514285Y-7885427D01*
X31514285Y-7885427D02*
X31676190Y-7885427D01*
X31676190Y-7885427D02*
X31757142Y-7844951D01*
X31757142Y-7844951D02*
X31797619Y-7804474D01*
X31797619Y-7804474D02*
X31838095Y-7723522D01*
X31838095Y-7723522D02*
X31838095Y-7035427D01*
X32202380Y-7116379D02*
X32242856Y-7075903D01*
X32242856Y-7075903D02*
X32323809Y-7035427D01*
X32323809Y-7035427D02*
X32526190Y-7035427D01*
X32526190Y-7035427D02*
X32607142Y-7075903D01*
X32607142Y-7075903D02*
X32647618Y-7116379D01*
X32647618Y-7116379D02*
X32688095Y-7197331D01*
X32688095Y-7197331D02*
X32688095Y-7278284D01*
X32688095Y-7278284D02*
X32647618Y-7399712D01*
X32647618Y-7399712D02*
X32161904Y-7885427D01*
X32161904Y-7885427D02*
X32688095Y-7885427D01*
X33858333Y-21504474D02*
X33817857Y-21544951D01*
X33817857Y-21544951D02*
X33696428Y-21585427D01*
X33696428Y-21585427D02*
X33615476Y-21585427D01*
X33615476Y-21585427D02*
X33494047Y-21544951D01*
X33494047Y-21544951D02*
X33413095Y-21463998D01*
X33413095Y-21463998D02*
X33372618Y-21383046D01*
X33372618Y-21383046D02*
X33332142Y-21221141D01*
X33332142Y-21221141D02*
X33332142Y-21099712D01*
X33332142Y-21099712D02*
X33372618Y-20937808D01*
X33372618Y-20937808D02*
X33413095Y-20856855D01*
X33413095Y-20856855D02*
X33494047Y-20775903D01*
X33494047Y-20775903D02*
X33615476Y-20735427D01*
X33615476Y-20735427D02*
X33696428Y-20735427D01*
X33696428Y-20735427D02*
X33817857Y-20775903D01*
X33817857Y-20775903D02*
X33858333Y-20816379D01*
X34182142Y-20816379D02*
X34222618Y-20775903D01*
X34222618Y-20775903D02*
X34303571Y-20735427D01*
X34303571Y-20735427D02*
X34505952Y-20735427D01*
X34505952Y-20735427D02*
X34586904Y-20775903D01*
X34586904Y-20775903D02*
X34627380Y-20816379D01*
X34627380Y-20816379D02*
X34667857Y-20897331D01*
X34667857Y-20897331D02*
X34667857Y-20978284D01*
X34667857Y-20978284D02*
X34627380Y-21099712D01*
X34627380Y-21099712D02*
X34141666Y-21585427D01*
X34141666Y-21585427D02*
X34667857Y-21585427D01*
X40858333Y-7985427D02*
X40574999Y-7580665D01*
X40372618Y-7985427D02*
X40372618Y-7135427D01*
X40372618Y-7135427D02*
X40696428Y-7135427D01*
X40696428Y-7135427D02*
X40777380Y-7175903D01*
X40777380Y-7175903D02*
X40817857Y-7216379D01*
X40817857Y-7216379D02*
X40858333Y-7297331D01*
X40858333Y-7297331D02*
X40858333Y-7418760D01*
X40858333Y-7418760D02*
X40817857Y-7499712D01*
X40817857Y-7499712D02*
X40777380Y-7540189D01*
X40777380Y-7540189D02*
X40696428Y-7580665D01*
X40696428Y-7580665D02*
X40372618Y-7580665D01*
X41141666Y-7135427D02*
X41667857Y-7135427D01*
X41667857Y-7135427D02*
X41384523Y-7459236D01*
X41384523Y-7459236D02*
X41505952Y-7459236D01*
X41505952Y-7459236D02*
X41586904Y-7499712D01*
X41586904Y-7499712D02*
X41627380Y-7540189D01*
X41627380Y-7540189D02*
X41667857Y-7621141D01*
X41667857Y-7621141D02*
X41667857Y-7823522D01*
X41667857Y-7823522D02*
X41627380Y-7904474D01*
X41627380Y-7904474D02*
X41586904Y-7944951D01*
X41586904Y-7944951D02*
X41505952Y-7985427D01*
X41505952Y-7985427D02*
X41263095Y-7985427D01*
X41263095Y-7985427D02*
X41182142Y-7944951D01*
X41182142Y-7944951D02*
X41141666Y-7904474D01*
X42858333Y-29404474D02*
X42817857Y-29444951D01*
X42817857Y-29444951D02*
X42696428Y-29485427D01*
X42696428Y-29485427D02*
X42615476Y-29485427D01*
X42615476Y-29485427D02*
X42494047Y-29444951D01*
X42494047Y-29444951D02*
X42413095Y-29363998D01*
X42413095Y-29363998D02*
X42372618Y-29283046D01*
X42372618Y-29283046D02*
X42332142Y-29121141D01*
X42332142Y-29121141D02*
X42332142Y-28999712D01*
X42332142Y-28999712D02*
X42372618Y-28837808D01*
X42372618Y-28837808D02*
X42413095Y-28756855D01*
X42413095Y-28756855D02*
X42494047Y-28675903D01*
X42494047Y-28675903D02*
X42615476Y-28635427D01*
X42615476Y-28635427D02*
X42696428Y-28635427D01*
X42696428Y-28635427D02*
X42817857Y-28675903D01*
X42817857Y-28675903D02*
X42858333Y-28716379D01*
X43141666Y-28635427D02*
X43667857Y-28635427D01*
X43667857Y-28635427D02*
X43384523Y-28959236D01*
X43384523Y-28959236D02*
X43505952Y-28959236D01*
X43505952Y-28959236D02*
X43586904Y-28999712D01*
X43586904Y-28999712D02*
X43627380Y-29040189D01*
X43627380Y-29040189D02*
X43667857Y-29121141D01*
X43667857Y-29121141D02*
X43667857Y-29323522D01*
X43667857Y-29323522D02*
X43627380Y-29404474D01*
X43627380Y-29404474D02*
X43586904Y-29444951D01*
X43586904Y-29444951D02*
X43505952Y-29485427D01*
X43505952Y-29485427D02*
X43263095Y-29485427D01*
X43263095Y-29485427D02*
X43182142Y-29444951D01*
X43182142Y-29444951D02*
X43141666Y-29404474D01*
X45858333Y-16685427D02*
X45574999Y-16280665D01*
X45372618Y-16685427D02*
X45372618Y-15835427D01*
X45372618Y-15835427D02*
X45696428Y-15835427D01*
X45696428Y-15835427D02*
X45777380Y-15875903D01*
X45777380Y-15875903D02*
X45817857Y-15916379D01*
X45817857Y-15916379D02*
X45858333Y-15997331D01*
X45858333Y-15997331D02*
X45858333Y-16118760D01*
X45858333Y-16118760D02*
X45817857Y-16199712D01*
X45817857Y-16199712D02*
X45777380Y-16240189D01*
X45777380Y-16240189D02*
X45696428Y-16280665D01*
X45696428Y-16280665D02*
X45372618Y-16280665D01*
X46586904Y-16118760D02*
X46586904Y-16685427D01*
X46384523Y-15794951D02*
X46182142Y-16402093D01*
X46182142Y-16402093D02*
X46708333Y-16402093D01*
X50919047Y-7666379D02*
X50838095Y-7625903D01*
X50838095Y-7625903D02*
X50757142Y-7544951D01*
X50757142Y-7544951D02*
X50635714Y-7423522D01*
X50635714Y-7423522D02*
X50554761Y-7383046D01*
X50554761Y-7383046D02*
X50473809Y-7383046D01*
X50514285Y-7585427D02*
X50433333Y-7544951D01*
X50433333Y-7544951D02*
X50352380Y-7463998D01*
X50352380Y-7463998D02*
X50311904Y-7302093D01*
X50311904Y-7302093D02*
X50311904Y-7018760D01*
X50311904Y-7018760D02*
X50352380Y-6856855D01*
X50352380Y-6856855D02*
X50433333Y-6775903D01*
X50433333Y-6775903D02*
X50514285Y-6735427D01*
X50514285Y-6735427D02*
X50676190Y-6735427D01*
X50676190Y-6735427D02*
X50757142Y-6775903D01*
X50757142Y-6775903D02*
X50838095Y-6856855D01*
X50838095Y-6856855D02*
X50878571Y-7018760D01*
X50878571Y-7018760D02*
X50878571Y-7302093D01*
X50878571Y-7302093D02*
X50838095Y-7463998D01*
X50838095Y-7463998D02*
X50757142Y-7544951D01*
X50757142Y-7544951D02*
X50676190Y-7585427D01*
X50676190Y-7585427D02*
X50514285Y-7585427D01*
X51688095Y-7585427D02*
X51202380Y-7585427D01*
X51445237Y-7585427D02*
X51445237Y-6735427D01*
X51445237Y-6735427D02*
X51364285Y-6856855D01*
X51364285Y-6856855D02*
X51283333Y-6937808D01*
X51283333Y-6937808D02*
X51202380Y-6978284D01*
X53872618Y-20685427D02*
X53872618Y-19835427D01*
X53872618Y-19835427D02*
X54074999Y-19835427D01*
X54074999Y-19835427D02*
X54196428Y-19875903D01*
X54196428Y-19875903D02*
X54277380Y-19956855D01*
X54277380Y-19956855D02*
X54317857Y-20037808D01*
X54317857Y-20037808D02*
X54358333Y-20199712D01*
X54358333Y-20199712D02*
X54358333Y-20321141D01*
X54358333Y-20321141D02*
X54317857Y-20483046D01*
X54317857Y-20483046D02*
X54277380Y-20563998D01*
X54277380Y-20563998D02*
X54196428Y-20644951D01*
X54196428Y-20644951D02*
X54074999Y-20685427D01*
X54074999Y-20685427D02*
X53872618Y-20685427D01*
X55086904Y-20118760D02*
X55086904Y-20685427D01*
X54884523Y-19794951D02*
X54682142Y-20402093D01*
X54682142Y-20402093D02*
X55208333Y-20402093D01*
X55858333Y-11985427D02*
X55574999Y-11580665D01*
X55372618Y-11985427D02*
X55372618Y-11135427D01*
X55372618Y-11135427D02*
X55696428Y-11135427D01*
X55696428Y-11135427D02*
X55777380Y-11175903D01*
X55777380Y-11175903D02*
X55817857Y-11216379D01*
X55817857Y-11216379D02*
X55858333Y-11297331D01*
X55858333Y-11297331D02*
X55858333Y-11418760D01*
X55858333Y-11418760D02*
X55817857Y-11499712D01*
X55817857Y-11499712D02*
X55777380Y-11540189D01*
X55777380Y-11540189D02*
X55696428Y-11580665D01*
X55696428Y-11580665D02*
X55372618Y-11580665D01*
X56627380Y-11135427D02*
X56222618Y-11135427D01*
X56222618Y-11135427D02*
X56182142Y-11540189D01*
X56182142Y-11540189D02*
X56222618Y-11499712D01*
X56222618Y-11499712D02*
X56303571Y-11459236D01*
X56303571Y-11459236D02*
X56505952Y-11459236D01*
X56505952Y-11459236D02*
X56586904Y-11499712D01*
X56586904Y-11499712D02*
X56627380Y-11540189D01*
X56627380Y-11540189D02*
X56667857Y-11621141D01*
X56667857Y-11621141D02*
X56667857Y-11823522D01*
X56667857Y-11823522D02*
X56627380Y-11904474D01*
X56627380Y-11904474D02*
X56586904Y-11944951D01*
X56586904Y-11944951D02*
X56505952Y-11985427D01*
X56505952Y-11985427D02*
X56303571Y-11985427D01*
X56303571Y-11985427D02*
X56222618Y-11944951D01*
X56222618Y-11944951D02*
X56182142Y-11904474D01*
X61858333Y-16085427D02*
X61574999Y-15680665D01*
X61372618Y-16085427D02*
X61372618Y-15235427D01*
X61372618Y-15235427D02*
X61696428Y-15235427D01*
X61696428Y-15235427D02*
X61777380Y-15275903D01*
X61777380Y-15275903D02*
X61817857Y-15316379D01*
X61817857Y-15316379D02*
X61858333Y-15397331D01*
X61858333Y-15397331D02*
X61858333Y-15518760D01*
X61858333Y-15518760D02*
X61817857Y-15599712D01*
X61817857Y-15599712D02*
X61777380Y-15640189D01*
X61777380Y-15640189D02*
X61696428Y-15680665D01*
X61696428Y-15680665D02*
X61372618Y-15680665D01*
X62586904Y-15235427D02*
X62424999Y-15235427D01*
X62424999Y-15235427D02*
X62344047Y-15275903D01*
X62344047Y-15275903D02*
X62303571Y-15316379D01*
X62303571Y-15316379D02*
X62222618Y-15437808D01*
X62222618Y-15437808D02*
X62182142Y-15599712D01*
X62182142Y-15599712D02*
X62182142Y-15923522D01*
X62182142Y-15923522D02*
X62222618Y-16004474D01*
X62222618Y-16004474D02*
X62263095Y-16044951D01*
X62263095Y-16044951D02*
X62344047Y-16085427D01*
X62344047Y-16085427D02*
X62505952Y-16085427D01*
X62505952Y-16085427D02*
X62586904Y-16044951D01*
X62586904Y-16044951D02*
X62627380Y-16004474D01*
X62627380Y-16004474D02*
X62667857Y-15923522D01*
X62667857Y-15923522D02*
X62667857Y-15721141D01*
X62667857Y-15721141D02*
X62627380Y-15640189D01*
X62627380Y-15640189D02*
X62586904Y-15599712D01*
X62586904Y-15599712D02*
X62505952Y-15559236D01*
X62505952Y-15559236D02*
X62344047Y-15559236D01*
X62344047Y-15559236D02*
X62263095Y-15599712D01*
X62263095Y-15599712D02*
X62222618Y-15640189D01*
X62222618Y-15640189D02*
X62182142Y-15721141D01*
X61858333Y-26404474D02*
X61817857Y-26444951D01*
X61817857Y-26444951D02*
X61696428Y-26485427D01*
X61696428Y-26485427D02*
X61615476Y-26485427D01*
X61615476Y-26485427D02*
X61494047Y-26444951D01*
X61494047Y-26444951D02*
X61413095Y-26363998D01*
X61413095Y-26363998D02*
X61372618Y-26283046D01*
X61372618Y-26283046D02*
X61332142Y-26121141D01*
X61332142Y-26121141D02*
X61332142Y-25999712D01*
X61332142Y-25999712D02*
X61372618Y-25837808D01*
X61372618Y-25837808D02*
X61413095Y-25756855D01*
X61413095Y-25756855D02*
X61494047Y-25675903D01*
X61494047Y-25675903D02*
X61615476Y-25635427D01*
X61615476Y-25635427D02*
X61696428Y-25635427D01*
X61696428Y-25635427D02*
X61817857Y-25675903D01*
X61817857Y-25675903D02*
X61858333Y-25716379D01*
X62667857Y-26485427D02*
X62182142Y-26485427D01*
X62424999Y-26485427D02*
X62424999Y-25635427D01*
X62424999Y-25635427D02*
X62344047Y-25756855D01*
X62344047Y-25756855D02*
X62263095Y-25837808D01*
X62263095Y-25837808D02*
X62182142Y-25878284D01*
X68352380Y-15035427D02*
X68352380Y-15723522D01*
X68352380Y-15723522D02*
X68392857Y-15804474D01*
X68392857Y-15804474D02*
X68433333Y-15844951D01*
X68433333Y-15844951D02*
X68514285Y-15885427D01*
X68514285Y-15885427D02*
X68676190Y-15885427D01*
X68676190Y-15885427D02*
X68757142Y-15844951D01*
X68757142Y-15844951D02*
X68797619Y-15804474D01*
X68797619Y-15804474D02*
X68838095Y-15723522D01*
X68838095Y-15723522D02*
X68838095Y-15035427D01*
X69688095Y-15885427D02*
X69202380Y-15885427D01*
X69445237Y-15885427D02*
X69445237Y-15035427D01*
X69445237Y-15035427D02*
X69364285Y-15156855D01*
X69364285Y-15156855D02*
X69283333Y-15237808D01*
X69283333Y-15237808D02*
X69202380Y-15278284D01*
X30190475Y-42854819D02*
X30190475Y-41854819D01*
X30190475Y-41854819D02*
X30523808Y-42569104D01*
X30523808Y-42569104D02*
X30857141Y-41854819D01*
X30857141Y-41854819D02*
X30857141Y-42854819D01*
X31285713Y-42569104D02*
X31761903Y-42569104D01*
X31190475Y-42854819D02*
X31523808Y-41854819D01*
X31523808Y-41854819D02*
X31857141Y-42854819D01*
X32761903Y-42854819D02*
X32428570Y-42378628D01*
X32190475Y-42854819D02*
X32190475Y-41854819D01*
X32190475Y-41854819D02*
X32571427Y-41854819D01*
X32571427Y-41854819D02*
X32666665Y-41902438D01*
X32666665Y-41902438D02*
X32714284Y-41950057D01*
X32714284Y-41950057D02*
X32761903Y-42045295D01*
X32761903Y-42045295D02*
X32761903Y-42188152D01*
X32761903Y-42188152D02*
X32714284Y-42283390D01*
X32714284Y-42283390D02*
X32666665Y-42331009D01*
X32666665Y-42331009D02*
X32571427Y-42378628D01*
X32571427Y-42378628D02*
X32190475Y-42378628D01*
X33190475Y-42854819D02*
X33190475Y-41854819D01*
X33761903Y-42854819D02*
X33333332Y-42283390D01*
X33761903Y-41854819D02*
X33190475Y-42426247D01*
X34190475Y-42331009D02*
X34523808Y-42331009D01*
X34666665Y-42854819D02*
X34190475Y-42854819D01*
X34190475Y-42854819D02*
X34190475Y-41854819D01*
X34190475Y-41854819D02*
X34666665Y-41854819D01*
X35666665Y-42854819D02*
X35333332Y-42378628D01*
X35095237Y-42854819D02*
X35095237Y-41854819D01*
X35095237Y-41854819D02*
X35476189Y-41854819D01*
X35476189Y-41854819D02*
X35571427Y-41902438D01*
X35571427Y-41902438D02*
X35619046Y-41950057D01*
X35619046Y-41950057D02*
X35666665Y-42045295D01*
X35666665Y-42045295D02*
X35666665Y-42188152D01*
X35666665Y-42188152D02*
X35619046Y-42283390D01*
X35619046Y-42283390D02*
X35571427Y-42331009D01*
X35571427Y-42331009D02*
X35476189Y-42378628D01*
X35476189Y-42378628D02*
X35095237Y-42378628D01*
X37333332Y-42854819D02*
X36857142Y-42854819D01*
X36857142Y-42854819D02*
X36857142Y-41854819D01*
X37619047Y-42569104D02*
X38095237Y-42569104D01*
X37523809Y-42854819D02*
X37857142Y-41854819D01*
X37857142Y-41854819D02*
X38190475Y-42854819D01*
X38523809Y-42854819D02*
X38523809Y-41854819D01*
X38523809Y-41854819D02*
X38857142Y-42569104D01*
X38857142Y-42569104D02*
X39190475Y-41854819D01*
X39190475Y-41854819D02*
X39190475Y-42854819D01*
X39666666Y-42854819D02*
X39666666Y-41854819D01*
X39666666Y-41854819D02*
X40047618Y-41854819D01*
X40047618Y-41854819D02*
X40142856Y-41902438D01*
X40142856Y-41902438D02*
X40190475Y-41950057D01*
X40190475Y-41950057D02*
X40238094Y-42045295D01*
X40238094Y-42045295D02*
X40238094Y-42188152D01*
X40238094Y-42188152D02*
X40190475Y-42283390D01*
X40190475Y-42283390D02*
X40142856Y-42331009D01*
X40142856Y-42331009D02*
X40047618Y-42378628D01*
X40047618Y-42378628D02*
X39666666Y-42378628D01*
X41999999Y-42759580D02*
X41952380Y-42807200D01*
X41952380Y-42807200D02*
X41809523Y-42854819D01*
X41809523Y-42854819D02*
X41714285Y-42854819D01*
X41714285Y-42854819D02*
X41571428Y-42807200D01*
X41571428Y-42807200D02*
X41476190Y-42711961D01*
X41476190Y-42711961D02*
X41428571Y-42616723D01*
X41428571Y-42616723D02*
X41380952Y-42426247D01*
X41380952Y-42426247D02*
X41380952Y-42283390D01*
X41380952Y-42283390D02*
X41428571Y-42092914D01*
X41428571Y-42092914D02*
X41476190Y-41997676D01*
X41476190Y-41997676D02*
X41571428Y-41902438D01*
X41571428Y-41902438D02*
X41714285Y-41854819D01*
X41714285Y-41854819D02*
X41809523Y-41854819D01*
X41809523Y-41854819D02*
X41952380Y-41902438D01*
X41952380Y-41902438D02*
X41999999Y-41950057D01*
X42285714Y-41854819D02*
X42857142Y-41854819D01*
X42571428Y-42854819D02*
X42571428Y-41854819D01*
X43761904Y-42854819D02*
X43428571Y-42378628D01*
X43190476Y-42854819D02*
X43190476Y-41854819D01*
X43190476Y-41854819D02*
X43571428Y-41854819D01*
X43571428Y-41854819D02*
X43666666Y-41902438D01*
X43666666Y-41902438D02*
X43714285Y-41950057D01*
X43714285Y-41950057D02*
X43761904Y-42045295D01*
X43761904Y-42045295D02*
X43761904Y-42188152D01*
X43761904Y-42188152D02*
X43714285Y-42283390D01*
X43714285Y-42283390D02*
X43666666Y-42331009D01*
X43666666Y-42331009D02*
X43571428Y-42378628D01*
X43571428Y-42378628D02*
X43190476Y-42378628D01*
X44666666Y-42854819D02*
X44190476Y-42854819D01*
X44190476Y-42854819D02*
X44190476Y-41854819D01*
X46333333Y-42854819D02*
X46000000Y-42378628D01*
X45761905Y-42854819D02*
X45761905Y-41854819D01*
X45761905Y-41854819D02*
X46142857Y-41854819D01*
X46142857Y-41854819D02*
X46238095Y-41902438D01*
X46238095Y-41902438D02*
X46285714Y-41950057D01*
X46285714Y-41950057D02*
X46333333Y-42045295D01*
X46333333Y-42045295D02*
X46333333Y-42188152D01*
X46333333Y-42188152D02*
X46285714Y-42283390D01*
X46285714Y-42283390D02*
X46238095Y-42331009D01*
X46238095Y-42331009D02*
X46142857Y-42378628D01*
X46142857Y-42378628D02*
X45761905Y-42378628D01*
X46761905Y-42331009D02*
X47095238Y-42331009D01*
X47238095Y-42854819D02*
X46761905Y-42854819D01*
X46761905Y-42854819D02*
X46761905Y-41854819D01*
X46761905Y-41854819D02*
X47238095Y-41854819D01*
X47523810Y-41854819D02*
X47857143Y-42854819D01*
X47857143Y-42854819D02*
X48190476Y-41854819D01*
X49619048Y-42331009D02*
X49761905Y-42378628D01*
X49761905Y-42378628D02*
X49809524Y-42426247D01*
X49809524Y-42426247D02*
X49857143Y-42521485D01*
X49857143Y-42521485D02*
X49857143Y-42664342D01*
X49857143Y-42664342D02*
X49809524Y-42759580D01*
X49809524Y-42759580D02*
X49761905Y-42807200D01*
X49761905Y-42807200D02*
X49666667Y-42854819D01*
X49666667Y-42854819D02*
X49285715Y-42854819D01*
X49285715Y-42854819D02*
X49285715Y-41854819D01*
X49285715Y-41854819D02*
X49619048Y-41854819D01*
X49619048Y-41854819D02*
X49714286Y-41902438D01*
X49714286Y-41902438D02*
X49761905Y-41950057D01*
X49761905Y-41950057D02*
X49809524Y-42045295D01*
X49809524Y-42045295D02*
X49809524Y-42140533D01*
X49809524Y-42140533D02*
X49761905Y-42235771D01*
X49761905Y-42235771D02*
X49714286Y-42283390D01*
X49714286Y-42283390D02*
X49619048Y-42331009D01*
X49619048Y-42331009D02*
X49285715Y-42331009D01*
D10*
X48819048Y-24072306D02*
X49580953Y-24072306D01*
X49200000Y-24453259D02*
X49200000Y-23691354D01*
D11*
X32657142Y-3418771D02*
X32257142Y-3418771D01*
X32257142Y-4047342D02*
X32257142Y-2847342D01*
X32257142Y-2847342D02*
X32828570Y-2847342D01*
X33285713Y-3590200D02*
X34199999Y-3590200D01*
X35399998Y-4047342D02*
X34714284Y-4047342D01*
X35057141Y-4047342D02*
X35057141Y-2847342D01*
X35057141Y-2847342D02*
X34942855Y-3018771D01*
X34942855Y-3018771D02*
X34828570Y-3133057D01*
X34828570Y-3133057D02*
X34714284Y-3190200D01*
X36485712Y-2847342D02*
X35914284Y-2847342D01*
X35914284Y-2847342D02*
X35857141Y-3418771D01*
X35857141Y-3418771D02*
X35914284Y-3361628D01*
X35914284Y-3361628D02*
X36028570Y-3304485D01*
X36028570Y-3304485D02*
X36314284Y-3304485D01*
X36314284Y-3304485D02*
X36428570Y-3361628D01*
X36428570Y-3361628D02*
X36485712Y-3418771D01*
X36485712Y-3418771D02*
X36542855Y-3533057D01*
X36542855Y-3533057D02*
X36542855Y-3818771D01*
X36542855Y-3818771D02*
X36485712Y-3933057D01*
X36485712Y-3933057D02*
X36428570Y-3990200D01*
X36428570Y-3990200D02*
X36314284Y-4047342D01*
X36314284Y-4047342D02*
X36028570Y-4047342D01*
X36028570Y-4047342D02*
X35914284Y-3990200D01*
X35914284Y-3990200D02*
X35857141Y-3933057D01*
X37285712Y-2847342D02*
X37399998Y-2847342D01*
X37399998Y-2847342D02*
X37514284Y-2904485D01*
X37514284Y-2904485D02*
X37571427Y-2961628D01*
X37571427Y-2961628D02*
X37628569Y-3075914D01*
X37628569Y-3075914D02*
X37685712Y-3304485D01*
X37685712Y-3304485D02*
X37685712Y-3590200D01*
X37685712Y-3590200D02*
X37628569Y-3818771D01*
X37628569Y-3818771D02*
X37571427Y-3933057D01*
X37571427Y-3933057D02*
X37514284Y-3990200D01*
X37514284Y-3990200D02*
X37399998Y-4047342D01*
X37399998Y-4047342D02*
X37285712Y-4047342D01*
X37285712Y-4047342D02*
X37171427Y-3990200D01*
X37171427Y-3990200D02*
X37114284Y-3933057D01*
X37114284Y-3933057D02*
X37057141Y-3818771D01*
X37057141Y-3818771D02*
X36999998Y-3590200D01*
X36999998Y-3590200D02*
X36999998Y-3304485D01*
X36999998Y-3304485D02*
X37057141Y-3075914D01*
X37057141Y-3075914D02*
X37114284Y-2961628D01*
X37114284Y-2961628D02*
X37171427Y-2904485D01*
X37171427Y-2904485D02*
X37285712Y-2847342D01*
X39685712Y-4047342D02*
X39114284Y-4047342D01*
X39114284Y-4047342D02*
X39114284Y-2847342D01*
X40085713Y-4047342D02*
X40085713Y-2847342D01*
X41285713Y-2904485D02*
X41171428Y-2847342D01*
X41171428Y-2847342D02*
X40999999Y-2847342D01*
X40999999Y-2847342D02*
X40828570Y-2904485D01*
X40828570Y-2904485D02*
X40714285Y-3018771D01*
X40714285Y-3018771D02*
X40657142Y-3133057D01*
X40657142Y-3133057D02*
X40599999Y-3361628D01*
X40599999Y-3361628D02*
X40599999Y-3533057D01*
X40599999Y-3533057D02*
X40657142Y-3761628D01*
X40657142Y-3761628D02*
X40714285Y-3875914D01*
X40714285Y-3875914D02*
X40828570Y-3990200D01*
X40828570Y-3990200D02*
X40999999Y-4047342D01*
X40999999Y-4047342D02*
X41114285Y-4047342D01*
X41114285Y-4047342D02*
X41285713Y-3990200D01*
X41285713Y-3990200D02*
X41342856Y-3933057D01*
X41342856Y-3933057D02*
X41342856Y-3533057D01*
X41342856Y-3533057D02*
X41114285Y-3533057D01*
X41857142Y-4047342D02*
X41857142Y-2847342D01*
X41857142Y-3418771D02*
X42542856Y-3418771D01*
X42542856Y-4047342D02*
X42542856Y-2847342D01*
X42942856Y-2847342D02*
X43628571Y-2847342D01*
X43285713Y-4047342D02*
X43285713Y-2847342D01*
X44028571Y-4047342D02*
X44028571Y-2847342D01*
X44028571Y-2847342D02*
X44714285Y-4047342D01*
X44714285Y-4047342D02*
X44714285Y-2847342D01*
X45285714Y-4047342D02*
X45285714Y-2847342D01*
X45857143Y-4047342D02*
X45857143Y-2847342D01*
X45857143Y-2847342D02*
X46542857Y-4047342D01*
X46542857Y-4047342D02*
X46542857Y-2847342D01*
X47742857Y-2904485D02*
X47628572Y-2847342D01*
X47628572Y-2847342D02*
X47457143Y-2847342D01*
X47457143Y-2847342D02*
X47285714Y-2904485D01*
X47285714Y-2904485D02*
X47171429Y-3018771D01*
X47171429Y-3018771D02*
X47114286Y-3133057D01*
X47114286Y-3133057D02*
X47057143Y-3361628D01*
X47057143Y-3361628D02*
X47057143Y-3533057D01*
X47057143Y-3533057D02*
X47114286Y-3761628D01*
X47114286Y-3761628D02*
X47171429Y-3875914D01*
X47171429Y-3875914D02*
X47285714Y-3990200D01*
X47285714Y-3990200D02*
X47457143Y-4047342D01*
X47457143Y-4047342D02*
X47571429Y-4047342D01*
X47571429Y-4047342D02*
X47742857Y-3990200D01*
X47742857Y-3990200D02*
X47800000Y-3933057D01*
X47800000Y-3933057D02*
X47800000Y-3533057D01*
X47800000Y-3533057D02*
X47571429Y-3533057D01*
M02*
